<?xml version="1.0" standalone="no"?><!DOCTYPE svg PUBLIC "-//W3C//DTD SVG 1.1//EN" "http://www.w3.org/Graphics/SVG/1.1/DTD/svg11.dtd"><svg height="1024" node-id="1" sillyvg="true" template-height="1024" template-width="1024" version="1.1" viewBox="0 0 1024 1024" width="1024" xmlns="http://www.w3.org/2000/svg" xmlns:xlink="http://www.w3.org/1999/xlink"><defs node-id="32"></defs><g node-id="34"><g node-id="35"><path d="M 782.40 369.60 L 785.70 369.90 L 788.80 370.70 L 791.70 372.00 L 794.30 373.80 L 796.70 375.90 L 798.60 378.50 L 800.10 381.30 L 801.40 385.90 L 804.80 385.60 L 807.40 385.80 L 809.90 386.30 L 814.50 388.20 L 816.50 389.60 L 820.00 393.10 L 822.50 397.30 L 823.80 402.20 L 824.00 404.80 L 823.30 409.90 L 821.40 414.50 L 818.40 418.40 L 814.50 421.40 L 809.90 423.30 L 804.80 424.00 L 756.00 423.80 L 751.50 422.60 L 747.60 420.30 L 744.50 417.20 L 742.20 413.30 L 741.00 408.80 L 741.00 404.00 L 742.20 399.50 L 743.20 397.50 L 746.00 394.00 L 749.50 391.20 L 753.70 389.40 L 758.40 388.80 L 763.20 389.50 L 763.60 385.10 L 765.10 380.50 L 766.20 378.40 L 769.30 374.80 L 773.10 372.00 L 775.20 371.00 L 779.90 369.80 L 782.40 369.60 Z" fill="#ffffff" fill-opacity="0.53444564" fill-rule="evenodd" group-id="1,2" id="形状结合备份" node-id="6" stroke="#000000" stroke-linecap="butt" stroke-opacity="0.53444564" stroke-width="3.2" target-height="54.399994" target-width="83" target-x="741" target-y="369.6"></path></g><path d="M 382.40 369.60 L 648.00 369.60 L 651.40 369.80 L 654.60 370.50 L 657.80 371.50 L 660.80 373.00 L 663.50 374.90 L 666.10 377.10 L 668.30 379.70 L 670.20 382.40 L 671.70 385.40 L 672.70 388.60 L 673.40 391.80 L 673.60 395.20 L 673.60 536.00 L 673.40 539.40 L 672.70 542.60 L 671.70 545.80 L 670.20 548.80 L 668.30 551.50 L 666.10 554.10 L 663.50 556.30 L 660.80 558.20 L 657.80 559.70 L 654.60 560.70 L 651.40 561.40 L 648.00 561.60 L 382.40 561.60 L 379.00 561.40 L 375.80 560.70 L 372.60 559.70 L 369.60 558.20 L 366.90 556.30 L 364.30 554.10 L 362.10 551.50 L 360.20 548.80 L 358.70 545.80 L 357.70 542.60 L 357.00 539.40 L 356.80 536.00 L 356.80 395.20 L 357.00 391.80 L 357.70 388.60 L 358.70 385.40 L 360.20 382.40 L 362.10 379.70 L 364.30 377.10 L 366.90 374.90 L 369.60 373.00 L 372.60 371.50 L 375.80 370.50 L 379.00 369.80 L 382.40 369.60 Z" fill="#edebe9" fill-rule="evenodd" group-id="1" id="矩形" node-id="7" stroke="#979797" stroke-linecap="butt" stroke-opacity="0" stroke-width="3.2" target-height="191.99997" target-width="316.8" target-x="356.8" target-y="369.6"></path><g node-id="36"><path d="M 456.90 592.00 L 434.50 599.00 L 415.60 603.70 L 393.20 607.90 L 372.90 610.20 L 356.30 610.80 L 347.90 610.70 L 339.60 610.10 L 331.50 609.10 L 323.40 607.60 L 315.70 605.60 L 308.20 603.20 L 302.80 600.90 L 297.60 598.30 L 292.60 595.30 L 287.90 592.00 L 283.40 588.20 L 278.80 583.50 L 273.80 577.80 L 269.30 571.70 L 264.80 564.90 L 260.40 557.20 L 256.40 549.20 L 252.80 540.70 L 249.50 531.60 L 245.60 517.40 L 243.00 502.40 L 242.30 494.70 L 242.10 486.90 L 242.30 479.00 L 243.00 470.90 L 244.10 463.00 L 245.90 455.00 L 248.20 446.90 L 251.20 438.70 L 253.90 432.40 L 257.10 426.10 L 260.70 419.70 L 264.90 413.40 L 269.60 407.00 L 276.90 398.20 L 284.60 389.80 L 292.80 382.00 L 301.40 374.60 L 310.30 367.70 L 319.60 361.20 L 329.20 355.20 L 339.20 349.50 L 349.30 344.30 L 359.70 339.50 L 370.30 335.00 L 392.20 327.30 L 414.50 320.90 L 425.70 318.30 L 440.90 315.20 L 456.00 312.80 L 471.00 310.80 L 486.10 309.40 L 500.80 308.40 L 515.20 307.90 L 533.20 307.80 L 550.10 308.10 L 565.90 308.80 L 580.70 309.80 L 594.60 311.10 L 609.10 313.00 L 622.70 315.10 L 635.30 317.50 L 647.00 320.20 L 657.90 323.10 L 669.20 326.60 L 679.60 330.40 L 689.30 334.30 L 698.20 338.40 L 706.50 342.60 L 714.80 347.50 L 722.40 352.50 L 729.50 357.60 L 735.90 362.80 L 741.70 368.20 L 747.40 374.10 L 752.60 380.10 L 757.30 386.10 L 761.40 392.30 L 765.20 398.60 L 769.40 406.80 L 772.90 415.20 L 775.80 423.70 L 778.20 432.40 L 780.00 441.20 L 781.20 450.10 L 782.00 459.10 L 782.20 468.20 L 781.90 474.20 L 781.10 480.00 L 779.70 485.60 L 777.80 491.20 L 775.30 496.60 L 772.20 502.00 L 768.50 507.40 L 764.10 512.70 L 758.90 517.90 L 752.90 523.20 L 746.10 528.40 L 738.40 533.60 L 729.60 538.70 L 719.70 543.80 L 708.50 548.90 L 696.10 553.90 L 682.30 558.80 L 666.90 563.60 L 650.00 568.30 L 631.20 572.80 L 610.70 577.10 L 588.10 581.30 L 563.40 585.20 L 562.10 580.70 L 561.50 576.90 L 561.40 573.70 L 561.70 571.10 L 562.40 568.80 L 563.40 567.00 L 564.80 565.60 L 567.00 564.20 L 570.40 563.00 L 575.30 562.00 L 582.40 561.20 L 591.90 560.80 L 578.80 562.70 L 569.30 563.70 L 562.80 563.90 L 558.50 563.70 L 555.80 563.20 L 554.00 562.40 L 552.60 561.30 L 551.60 559.90 L 551.00 558.00 L 550.70 555.70 L 551.00 552.60 L 551.90 548.70 L 533.10 518.00 L 555.40 516.50 L 575.20 514.70 L 592.90 512.50 L 608.40 510.00 L 622.10 507.30 L 634.00 504.40 L 644.40 501.30 L 653.40 498.10 L 661.00 494.80 L 667.60 491.40 L 673.10 488.00 L 677.70 484.40 L 681.50 480.90 L 684.60 477.30 L 687.00 473.60 L 688.90 469.80 L 690.10 466.00 L 690.90 462.00 L 691.10 457.80 L 690.80 453.40 L 689.90 448.70 L 688.30 443.70 L 686.10 438.30 L 683.60 433.80 L 680.90 429.60 L 677.80 425.70 L 674.40 422.20 L 670.60 418.90 L 665.60 415.20 L 660.00 411.90 L 654.00 409.00 L 647.50 406.50 L 640.80 404.40 L 633.70 402.60 L 626.20 401.20 L 618.20 400.10 L 607.50 399.20 L 596.20 398.80 L 584.20 398.90 L 559.90 400.50 L 547.10 402.00 L 521.50 405.90 L 508.40 408.30 L 488.80 412.50 L 469.50 417.10 L 450.40 422.20 L 414.00 432.90 L 397.30 438.30 L 386.80 442.10 L 377.50 446.10 L 369.50 450.10 L 362.50 454.20 L 356.40 458.50 L 351.30 462.70 L 346.90 467.10 L 343.30 471.60 L 340.30 476.10 L 338.00 480.70 L 336.20 485.50 L 335.00 490.40 L 334.30 495.60 L 334.30 501.00 L 334.80 506.60 L 335.90 512.60 L 337.80 518.90 L 340.40 525.60 L 343.90 532.80 L 348.20 540.50 L 353.60 548.70 L 449.50 523.80 L 439.60 540.20 L 432.40 552.80 L 427.50 562.50 L 424.40 569.70 L 422.60 574.90 L 421.90 578.50 L 421.80 581.00 L 422.10 581.60 L 422.90 581.90 L 424.60 581.90 L 431.10 580.50 L 447.30 576.10 L 450.80 575.60 L 453.10 575.80 L 456.40 577.30 L 457.40 578.40 L 458.30 580.30 L 458.80 582.50 L 458.70 584.80 L 458.40 587.00 L 456.90 592.00 Z" fill="#ffffff" fill-rule="evenodd" group-id="1,3" id="路径-123" node-id="9" stroke="#000000" stroke-linecap="butt" stroke-width="3.2" target-height="303" target-width="540.1" target-x="242.1" target-y="307.8"></path><g node-id="39"><path d="M 352.90 550.30 L 356.00 549.50 L 367.90 610.10 L 364.80 611.00 Z" fill="#000000" fill-rule="evenodd" group-id="1,3,6" id="矩形" node-id="10" stroke="none" target-height="61.5" target-width="15" target-x="352.9" target-y="549.5"></path></g><path d="M 637.70 502.30 L 640.80 501.50 L 654.10 567.50 L 651.00 568.30 Z" fill="#000000" fill-rule="evenodd" group-id="1,3,7" id="矩形备份" node-id="11" stroke="none" target-height="66.79999" target-width="16.399963" target-x="637.7" target-y="501.5"></path></g><path d="M 526.40 296.00 L 526.40 314.30 L 522.90 312.90 L 518.40 312.00 L 513.90 312.90 L 510.40 314.30 L 510.40 296.00 L 526.40 296.00 Z" fill="#ffffff" fill-rule="evenodd" group-id="1" id="矩形" node-id="12" stroke="#000000" stroke-linecap="butt" stroke-width="3.2" target-height="18.299988" target-width="16.00003" target-x="510.4" target-y="296"></path><path d="M 499.20 248.50 L 496.80 251.10 L 495.00 253.90 L 493.70 257.00 L 492.90 260.50 L 492.70 264.40 L 493.00 268.70 L 494.00 273.60 L 495.80 279.10 L 498.50 285.30 L 502.20 292.40 L 513.10 289.00 L 521.80 285.70 L 528.60 282.70 L 533.90 279.90 L 537.90 277.30 L 540.80 274.90 L 543.40 272.10 L 546.20 268.50 L 549.20 263.80 L 552.40 258.00 L 555.70 250.80 L 559.30 242.10 L 550.80 242.40 L 534.60 242.10 L 529.60 241.80 L 518.70 240.20 L 515.70 240.00 L 512.80 240.20 L 509.00 241.40 L 506.70 242.50 L 503.40 244.80 L 499.20 248.50 Z" fill="#000000" fill-rule="evenodd" group-id="1" id="路径-122" node-id="13" stroke="none" target-height="52.399994" target-width="66.599976" target-x="492.7" target-y="240"></path><path d="M 528.40 260.80 L 531.50 261.10 L 533.80 261.70 L 535.10 262.50 L 537.00 264.50 L 538.50 268.40 L 538.90 271.00 L 539.20 280.00 L 539.00 283.10 L 537.70 288.80 L 536.50 291.40 L 533.50 295.90 L 531.60 297.80 L 527.40 300.70 L 522.60 302.20 L 520.00 302.40 L 514.90 301.60 L 510.40 299.40 L 506.50 295.90 L 503.50 291.40 L 502.30 288.80 L 501.00 283.10 L 500.90 277.70 L 501.30 275.90 L 502.80 273.00 L 504.40 271.40 L 506.20 270.10 L 513.60 266.30 L 520.80 263.10 L 525.20 261.50 L 528.40 260.80 Z" fill="#ffffff" fill-rule="evenodd" group-id="1" id="椭圆形" node-id="14" stroke="#000000" stroke-linecap="butt" stroke-width="3.2" target-height="41.600006" target-width="38.30002" target-x="500.9" target-y="260.8"></path><g node-id="37"><path d="M 829.60 569.50 L 816.00 569.50 L 819.00 565.90 L 821.40 562.20 L 823.40 558.50 L 825.10 554.50 L 827.40 547.00 L 828.40 541.40 L 828.90 536.50 L 829.00 528.70 L 828.80 527.70 L 827.60 526.10 L 825.70 525.40 L 823.70 525.80 L 822.80 526.40 L 810.30 538.80 L 809.70 540.00 L 810.20 541.20 L 810.80 541.60 L 812.10 541.60 L 812.70 541.20 L 825.50 528.90 L 825.40 536.80 L 824.80 541.80 L 823.70 547.40 L 821.20 555.00 L 819.30 558.90 L 817.10 562.60 L 814.30 566.10 L 811.00 569.50 L 802.20 569.50 L 802.60 568.50 L 806.80 564.00 L 811.90 557.60 L 814.40 553.90 L 816.90 549.20 L 816.50 548.00 L 815.90 547.60 L 815.30 547.40 L 814.10 547.80 L 809.80 554.60 L 805.60 560.10 L 806.90 552.10 L 807.10 548.00 L 806.80 542.00 L 805.90 535.80 L 804.50 529.60 L 801.10 518.00 L 796.30 505.40 L 795.00 504.00 L 793.10 503.40 L 792.10 503.60 L 790.50 504.60 L 790.00 505.40 L 785.20 518.00 L 781.70 529.60 L 780.40 535.80 L 779.40 542.00 L 779.10 548.00 L 779.80 556.10 L 780.60 560.10 L 776.50 554.60 L 772.20 547.80 L 770.90 547.40 L 769.70 548.00 L 769.40 548.60 L 769.50 549.90 L 774.30 557.60 L 779.40 564.00 L 783.60 568.50 L 784.10 569.50 L 775.20 569.50 L 771.90 566.10 L 769.20 562.60 L 766.90 558.90 L 765.10 555.00 L 762.50 547.40 L 761.40 541.80 L 760.90 536.80 L 760.80 528.90 L 773.60 541.30 L 774.30 541.70 L 775.20 541.70 L 776.00 541.20 L 776.50 540.50 L 776.50 539.60 L 776.00 538.80 L 763.40 526.40 L 762.50 525.80 L 760.50 525.40 L 758.60 526.10 L 757.50 527.70 L 757.30 528.70 L 757.40 536.50 L 757.90 541.40 L 759.80 550.70 L 762.80 558.50 L 764.80 562.20 L 767.30 565.90 L 770.30 569.50 L 756.60 569.50 L 754.80 569.80 L 753.30 570.40 L 751.90 571.50 L 750.80 572.80 L 750.20 574.40 L 749.90 576.20 L 750.20 578.00 L 750.80 579.60 L 751.90 580.90 L 753.30 582.00 L 754.80 582.60 L 758.00 582.90 L 765.80 616.20 L 766.30 617.80 L 768.30 620.20 L 771.20 621.60 L 772.90 621.80 L 813.40 621.80 L 815.10 621.60 L 817.90 620.20 L 819.90 617.80 L 820.50 616.20 L 828.30 582.90 L 831.40 582.60 L 833.00 582.00 L 834.40 580.90 L 835.40 579.60 L 836.10 578.00 L 836.30 576.20 L 836.10 574.40 L 835.40 572.80 L 834.40 571.50 L 833.00 570.40 L 831.40 569.80 L 829.60 569.50 Z" fill="#282828" fill-rule="nonzero" group-id="1,4" id="路径" node-id="16" stroke="none" target-height="118.399994" target-width="86.39996" target-x="749.9" target-y="503.4"></path><path d="M 793.10 506.90 L 796.10 514.40 L 799.60 524.60 L 802.40 536.30 L 803.30 542.30 L 803.60 548.00 L 803.40 552.60 L 801.90 560.40 L 800.10 565.60 L 798.30 569.50 L 794.90 569.50 L 794.90 535.80 L 794.30 534.60 L 793.10 534.10 L 792.50 534.20 L 791.50 535.10 L 791.40 535.80 L 791.40 569.50 L 787.90 569.50 L 786.10 565.60 L 784.30 560.40 L 782.90 552.60 L 782.60 548.00 L 782.90 542.30 L 783.80 536.30 L 785.10 530.40 L 788.40 519.10 L 793.10 506.90 Z" fill="#ffffff" fill-rule="nonzero" group-id="1,4" id="路径" node-id="17" stroke="none" target-height="62.600006" target-width="21" target-x="782.6" target-y="506.9"></path><path d="M 829.60 579.40 L 775.10 579.40 L 774.50 579.60 L 773.60 580.50 L 773.60 581.80 L 774.50 582.70 L 775.10 582.90 L 824.70 582.90 L 817.10 615.40 L 816.60 616.60 L 815.80 617.50 L 814.70 618.10 L 813.40 618.30 L 772.90 618.30 L 771.60 618.10 L 770.50 617.50 L 769.70 616.60 L 769.10 615.40 L 761.50 582.90 L 767.70 582.70 L 768.50 581.80 L 768.50 580.50 L 767.70 579.60 L 767.00 579.40 L 756.60 579.40 L 755.40 579.20 L 754.30 578.50 L 753.70 577.50 L 753.40 576.20 L 753.70 574.90 L 754.30 573.90 L 755.40 573.20 L 756.60 573.00 L 829.60 573.00 L 830.90 573.20 L 831.90 573.90 L 832.60 574.90 L 832.80 576.20 L 832.60 577.50 L 831.90 578.50 L 830.90 579.20 L 829.60 579.40 Z" fill="#ffffff" fill-rule="nonzero" group-id="1,4" id="路径" node-id="18" stroke="none" target-height="45.299988" target-width="79.39996" target-x="753.4" target-y="573"></path></g><path d="M 649.60 369.60 L 652.90 369.80 L 656.00 370.50 L 658.90 371.50 L 664.30 374.60 L 668.60 378.90 L 670.30 381.50 L 671.70 384.30 L 672.70 387.20 L 673.40 390.30 L 673.60 393.60 L 673.60 478.40 L 356.80 478.40 L 356.80 393.60 L 357.00 390.30 L 357.70 387.20 L 358.70 384.30 L 360.10 381.50 L 361.80 378.90 L 366.10 374.60 L 371.50 371.50 L 374.40 370.50 L 377.50 369.80 L 380.80 369.60 Z" fill="#edebe9" fill-rule="evenodd" group-id="1" id="形状结合" node-id="19" stroke="#979797" stroke-linecap="butt" stroke-opacity="0" stroke-width="3.2" target-height="108.79999" target-width="316.8" target-x="356.8" target-y="369.6"></path><path d="M 467.20 355.20 L 569.60 355.20 L 569.60 368.00 L 467.20 368.00 Z" fill="#000000" fill-rule="evenodd" group-id="1" id="矩形" node-id="20" stroke="none" target-height="12.799988" target-width="102.39996" target-x="467.2" target-y="355.2"></path><path d="M 438.40 412.80 L 443.20 413.10 L 447.80 414.10 L 452.10 415.60 L 456.20 417.60 L 459.90 420.10 L 463.30 423.10 L 466.30 426.50 L 468.80 430.20 L 470.80 434.30 L 472.30 438.60 L 473.30 443.20 L 473.60 448.00 L 472.80 455.50 L 470.60 462.30 L 468.30 466.50 L 465.60 470.40 L 462.40 473.80 L 458.70 476.80 L 454.70 479.20 L 450.30 481.20 L 455.40 482.40 L 460.40 484.10 L 465.10 486.20 L 469.70 488.60 L 474.00 491.50 L 478.00 494.70 L 481.70 498.20 L 485.20 502.00 L 488.30 506.10 L 491.10 510.40 L 493.40 515.00 L 495.50 519.80 L 497.10 524.80 L 498.20 529.90 L 498.90 535.30 L 499.10 544.00 L 377.70 544.00 L 377.90 535.30 L 378.60 529.90 L 379.70 524.80 L 381.30 519.80 L 383.40 515.00 L 385.70 510.40 L 388.50 506.10 L 391.60 502.00 L 395.10 498.20 L 398.80 494.70 L 402.80 491.50 L 407.10 488.60 L 411.70 486.20 L 416.40 484.10 L 421.40 482.40 L 426.60 481.20 L 422.10 479.20 L 418.10 476.80 L 414.40 473.80 L 411.20 470.40 L 408.50 466.50 L 406.20 462.30 L 404.00 455.50 L 403.20 448.00 L 403.50 443.20 L 404.50 438.60 L 406.00 434.30 L 408.00 430.20 L 410.50 426.50 L 413.50 423.10 L 416.90 420.10 L 420.60 417.60 L 424.70 415.60 L 429.00 414.10 L 433.60 413.10 L 438.40 412.80 Z M 524.80 422.40 L 588.80 422.40 L 588.80 435.20 L 524.80 435.20 Z M 524.80 467.20 L 649.60 467.20 L 649.60 480.00 L 524.80 480.00 Z" fill="#d8d8d8" fill-rule="evenodd" group-id="1" id="形状结合" node-id="21" stroke="none" target-height="131.20001" target-width="271.89996" target-x="377.7" target-y="412.8"></path><g node-id="38"><g node-id="41"><path d="M 384.10 503.00 L 479.60 493.00 L 484.10 493.30 L 488.10 495.10 L 491.20 498.20 L 492.40 500.00 L 493.60 504.40 L 498.60 552.10 L 498.70 554.70 L 498.20 557.10 L 497.20 559.40 L 495.90 561.50 L 494.10 563.30 L 492.00 564.70 L 489.70 565.70 L 487.30 566.20 L 391.80 576.20 L 387.20 575.90 L 383.20 574.10 L 380.10 571.10 L 379.00 569.20 L 377.70 564.80 L 372.70 517.10 L 372.70 514.80 L 373.80 510.50 L 376.20 506.90 L 379.70 504.30 L 384.10 503.00 Z" fill="#3251e6" fill-rule="evenodd" group-id="1,5,8" id="矩形" node-id="23" stroke="none" target-height="83.20001" target-width="126" target-x="372.7" target-y="493"></path></g><g node-id="42"><path d="M 534.50 477.40 L 630.00 467.40 L 634.50 467.70 L 638.50 469.50 L 641.60 472.60 L 642.80 474.40 L 644.00 478.80 L 649.00 526.50 L 649.10 528.90 L 648.00 533.10 L 645.50 536.70 L 642.00 539.30 L 637.70 540.60 L 542.20 550.60 L 539.70 550.60 L 537.20 550.20 L 534.90 549.20 L 532.80 547.90 L 531.00 546.10 L 529.60 544.00 L 528.60 541.70 L 528.10 539.20 L 523.10 491.50 L 523.10 489.20 L 524.20 484.90 L 526.60 481.30 L 530.10 478.70 L 534.50 477.40 Z" fill="#5478eb" fill-rule="evenodd" group-id="1,5,9" id="矩形备份-3" node-id="24" stroke="none" target-height="83.19998" target-width="126" target-x="523.1" target-y="467.4"></path></g><path d="M 475.90 518.10 L 545.30 505.90 L 547.40 505.80 L 549.40 506.30 L 551.30 507.20 L 552.80 508.60 L 553.90 510.30 L 554.50 512.40 L 554.60 514.50 L 554.20 516.50 L 553.20 518.40 L 551.80 519.90 L 550.10 521.00 L 548.10 521.60 L 478.70 533.90 L 476.60 534.00 L 474.60 533.50 L 472.70 532.50 L 471.20 531.20 L 470.10 529.40 L 469.50 527.40 L 469.40 525.20 L 469.80 523.20 L 470.80 521.40 L 472.20 519.90 L 473.90 518.80 L 475.90 518.10 Z" fill="#ffffff" fill-rule="evenodd" group-id="1,5,10" id="矩形" node-id="25" stroke="none" target-height="28.200012" target-width="85.19998" target-x="469.4" target-y="505.8"></path></g><path d="M 524.80 281.60 L 524.80 288.70 L 520.00 288.70" fill="none" group-id="1" id="路径-124" node-id="26" stroke="#000000" stroke-linecap="butt" stroke-width="3.2" target-height="7.100006" target-width="4.799988" target-x="520" target-y="281.6"></path><path d="M 337.60 235.20 L 340.80 235.40 L 346.60 236.80 L 349.30 238.00 L 354.20 241.30 L 358.20 245.60 L 359.90 248.20 L 362.20 253.70 L 363.10 258.40 L 367.10 257.70 L 373.10 257.80 L 376.40 258.50 L 379.60 259.60 L 382.50 261.10 L 385.20 262.90 L 387.70 265.10 L 389.90 267.60 L 391.70 270.30 L 393.20 273.20 L 394.30 276.40 L 395.00 279.70 L 395.20 283.20 L 395.00 286.70 L 394.30 290.00 L 393.20 293.20 L 391.70 296.10 L 389.90 298.80 L 387.70 301.30 L 385.20 303.50 L 382.50 305.30 L 379.60 306.80 L 376.40 307.90 L 373.10 308.60 L 369.60 308.80 L 307.20 308.80 L 303.90 308.60 L 300.80 307.90 L 297.90 306.90 L 292.50 303.80 L 288.20 299.50 L 285.10 294.10 L 284.10 291.20 L 283.40 288.10 L 283.20 284.80 L 283.40 281.50 L 284.10 278.40 L 285.10 275.50 L 286.50 272.70 L 290.20 267.80 L 295.10 264.10 L 297.90 262.70 L 300.80 261.70 L 303.90 261.00 L 307.20 260.80 L 312.00 261.30 L 312.40 256.10 L 313.20 253.00 L 314.40 250.00 L 315.90 247.10 L 320.00 242.20 L 325.00 238.50 L 327.90 237.10 L 331.00 236.10 L 334.20 235.40 L 337.60 235.20 Z" fill="#ffffff" fill-rule="evenodd" group-id="1" id="形状结合" node-id="27" stroke="#000000" stroke-linecap="butt" stroke-width="3.2" target-height="73.59999" target-width="112" target-x="283.2" target-y="235.2"></path><path d="M 188.80 620.80 L 835.20 620.80 L 835.20 624.00 L 188.80 624.00 Z" fill="#000000" fill-rule="evenodd" group-id="1" id="矩形" node-id="28" stroke="none" target-height="3.2000122" target-width="646.4" target-x="188.8" target-y="620.8"></path><path d="M 692.80 363.20 L 692.60 364.90 L 691.90 366.40 L 690.90 367.70 L 689.60 368.70 L 688.10 369.40 L 686.40 369.60 L 684.70 369.40 L 683.20 368.70 L 681.90 367.70 L 680.90 366.40 L 680.20 364.90 L 680.00 363.20 L 680.20 361.50 L 680.90 360.00 L 681.90 358.70 L 683.20 357.70 L 684.70 357.00 L 686.40 356.80 L 688.10 357.00 L 689.60 357.70 L 690.90 358.70 L 691.90 360.00 L 692.60 361.50 L 692.80 363.20 Z" fill="#ffffff" fill-rule="evenodd" group-id="1" id="椭圆形" node-id="29" stroke="#2b4be4" stroke-linecap="butt" stroke-width="3.2" target-height="12.800018" target-width="12.799988" target-x="680" target-y="356.8"></path><path d="M 347.20 497.60 L 347.00 498.80 L 346.30 499.90 L 345.20 500.60 L 344.00 500.80 L 342.80 500.60 L 341.70 499.90 L 341.00 498.80 L 340.80 497.60 L 341.00 496.40 L 341.70 495.30 L 342.80 494.60 L 344.00 494.40 L 345.20 494.60 L 346.30 495.30 L 347.00 496.40 L 347.20 497.60 Z" fill="#ffffff" fill-rule="evenodd" group-id="1" id="椭圆形备份-4" node-id="30" stroke="#2b4be4" stroke-linecap="butt" stroke-width="3.2" target-height="6.399994" target-width="6.4000244" target-x="340.8" target-y="494.4"></path></g></svg>