<?xml version="1.0" standalone="no"?><!DOCTYPE svg PUBLIC "-//W3C//DTD SVG 1.1//EN" "http://www.w3.org/Graphics/SVG/1.1/DTD/svg11.dtd"><svg height="1024" node-id="1" sillyvg="true" template-height="1024" template-width="1024" version="1.1" viewBox="0 0 1024 1024" width="1024" xmlns="http://www.w3.org/2000/svg" xmlns:xlink="http://www.w3.org/1999/xlink"><defs node-id="43"><mask height="92.160034" id="mask-2" maskUnits="userSpaceOnUse" node-id="33" width="216.92358" x="539.1582" y="508.24768"><path d="M 742.40 544.40 L 745.30 552.60 L 747.60 560.50 L 749.20 567.90 L 750.20 575.00 L 750.60 581.80 L 750.50 588.40 L 749.90 594.70 L 748.80 600.80 L 747.20 606.70 L 745.00 612.40 L 740.00 622.00 L 736.90 626.80 L 731.70 633.60 L 726.00 640.10 L 713.90 652.10 L 692.70 670.70 L 686.80 676.50 L 680.00 686.00 L 677.00 690.90 L 674.70 695.90 L 673.50 699.40 L 672.80 702.70 L 672.50 706.00 L 673.10 712.30 L 675.10 718.70 L 676.90 722.20 L 681.40 729.20 L 686.80 734.70 L 709.40 754.20 L 722.50 766.80 L 728.60 773.50 L 734.00 780.20 L 737.20 784.80 L 739.80 789.30 L 741.80 793.60 L 743.70 799.00 L 745.30 805.00 L 746.40 811.60 L 747.10 818.80 L 747.30 826.80 L 747.00 835.60 L 746.10 845.30 L 744.60 856.00 L 742.40 867.60 L 547.20 867.60 L 545.20 855.50 L 543.90 844.50 L 543.30 834.60 L 543.30 825.80 L 543.90 817.80 L 544.90 810.70 L 546.40 804.40 L 548.20 798.70 L 550.40 793.60 L 555.60 785.20 L 559.00 780.60 L 564.70 774.00 L 571.10 767.20 L 584.60 754.40 L 607.60 734.40 L 613.20 729.20 L 618.20 722.80 L 620.60 717.80 L 621.40 714.50 L 621.90 710.90 L 622.10 706.00 L 621.80 701.60 L 620.90 697.60 L 619.50 694.00 L 617.70 690.50 L 613.30 684.40 L 605.70 676.50 L 583.90 658.50 L 571.60 647.00 L 565.50 640.60 L 559.80 633.90 L 554.70 627.00 L 551.70 622.10 L 549.20 617.30 L 547.20 612.40 L 545.10 606.00 L 543.70 599.40 L 542.80 592.50 L 542.50 585.40 L 542.70 577.90 L 543.60 570.20 L 545.10 562.00 L 547.40 553.50 L 550.40 544.40 L 742.40 544.40 Z" fill="#ffffff" fill-rule="evenodd" node-id="48" stroke="none" target-height="323.19995" target-width="208.09998" target-x="542.5" target-y="544.4"></path></mask></defs><g node-id="89"><path d="M 439.50 311.10 L 370.70 350.40 L 309.10 383.70 L 284.80 487.20 L 284.80 573.80 L 587.60 573.80 L 575.30 442.40 L 510.40 343.50 L 479.70 338.10 L 439.50 311.10 Z" fill="#ffffff" fill-rule="evenodd" group-id="1" id="路径-62" node-id="8" stroke="none" target-height="262.69998" target-width="302.8" target-x="284.8" target-y="311.1"></path><path d="M 482.80 264.80 L 481.40 262.70 L 479.90 261.30 L 478.30 260.60 L 476.50 260.40 L 474.50 260.80 L 473.70 261.20 L 471.30 264.00 L 462.30 276.50 L 456.90 282.70 L 453.70 285.80 L 447.90 290.60 L 438.30 297.90 L 435.20 297.90 L 432.70 298.30 L 430.80 299.20 L 429.30 300.50 L 428.10 302.10 L 427.30 304.30 L 427.10 306.10 L 427.40 307.80 L 428.10 309.60 L 429.40 311.40 L 431.40 313.40 L 434.30 315.50 L 438.30 317.60 L 438.10 322.00 L 437.20 325.90 L 435.90 329.40 L 434.00 332.70 L 431.50 335.70 L 428.50 338.40 L 424.70 340.90 L 420.20 343.20 L 414.80 345.20 L 408.30 346.90 L 393.20 349.50 L 385.80 351.10 L 378.60 353.00 L 371.60 355.40 L 358.40 360.90 L 346.40 367.50 L 335.90 374.80 L 331.50 378.70 L 327.60 382.60 L 324.10 386.80 L 321.30 390.90 L 319.20 394.90 L 315.00 404.90 L 311.60 414.70 L 308.80 424.20 L 306.50 433.80 L 303.00 453.20 L 301.20 468.00 L 296.80 515.90 L 295.10 531.10 L 293.20 543.40 L 291.20 553.10 L 289.20 560.70 L 287.20 566.40 L 285.20 570.70 L 283.30 573.80 L 238.80 573.80 L 233.50 571.00 L 225.50 565.80 L 220.80 562.10 L 216.20 557.80 L 211.50 552.70 L 208.70 548.90 L 203.70 540.40 L 201.70 535.70 L 200.10 530.60 L 199.00 525.10 L 198.40 516.50 L 198.60 511.80 L 199.30 506.70 L 200.50 500.90 L 202.00 495.60 L 205.70 486.40 L 208.90 480.70 L 212.50 475.40 L 216.40 470.60 L 220.60 466.00 L 229.80 457.50 L 252.40 438.80 L 260.00 431.80 L 264.90 426.80 L 269.60 421.40 L 274.20 415.40 L 279.40 407.70 L 286.50 395.50 L 290.80 385.30 L 292.30 380.70 L 299.10 353.30 L 304.30 337.30 L 308.30 327.00 L 311.50 319.70 L 314.90 313.10 L 318.50 307.20 L 322.30 301.90 L 326.50 296.80 L 330.90 292.20 L 335.50 287.90 L 340.40 284.10 L 347.20 279.50 L 354.60 275.30 L 362.50 271.50 L 379.30 264.90 L 423.70 250.60 L 441.90 242.40 L 436.30 241.60 L 431.50 240.50 L 427.40 239.10 L 424.00 237.30 L 421.00 235.20 L 418.60 232.90 L 416.40 230.00 L 414.90 227.00 L 413.90 223.90 L 413.60 220.60 L 413.90 217.30 L 414.80 213.90 L 417.40 209.10 L 419.30 206.70 L 421.70 204.20 L 424.40 202.10 L 427.10 200.50 L 429.90 199.40 L 432.80 198.70 L 438.60 198.50 L 444.00 199.70 L 448.90 202.10 L 450.90 203.70 L 452.70 205.50 L 454.00 207.50 L 455.00 210.10 L 455.70 213.40 L 455.90 217.40 L 455.60 222.40 L 454.50 228.60 L 452.70 236.20 L 456.80 235.20 L 460.80 234.80 L 464.70 235.00 L 468.50 235.80 L 472.40 237.30 L 476.30 239.40 L 481.60 243.70 L 485.10 247.70 L 486.60 250.30 L 487.90 253.10 L 488.60 256.20 L 488.70 257.80 L 487.30 264.80 L 487.30 266.60 L 487.70 268.20 L 488.60 269.80 L 492.00 273.30 L 496.10 276.80 L 521.00 293.90 L 525.70 297.90 L 529.90 302.00 L 536.60 309.70 L 544.80 320.50 L 551.40 328.20 L 551.70 329.20 L 551.60 330.20 L 550.70 331.60 L 548.80 333.40 L 535.60 342.60 L 532.20 345.50 L 527.20 350.90 L 520.00 359.50 L 516.40 354.90 L 512.50 350.60 L 508.00 346.50 L 503.10 342.60 L 500.40 340.90 L 494.80 338.80 L 490.60 338.00 L 483.20 337.70 L 478.20 338.10 L 478.80 337.10 L 479.80 336.30 L 485.00 333.60 L 487.40 332.00 L 489.80 330.00 L 492.60 327.00 L 495.90 322.70 L 498.10 319.10 L 499.70 315.40 L 500.70 312.10 L 501.20 308.90 L 501.10 303.70 L 499.50 298.80 L 488.60 280.60 L 485.20 272.50 L 482.80 264.80 Z" fill="#000000" fill-rule="evenodd" group-id="1" id="路径-59" node-id="9" stroke="none" target-height="375.3" target-width="353.30002" target-x="198.4" target-y="198.5"></path><path d="M 475.80 259.80 L 473.50 260.50 L 470.50 262.50 L 460.20 277.00 L 448.50 289.90 L 443.40 294.70 L 440.20 297.00 L 438.30 297.90 L 433.60 297.50 L 430.30 297.70 L 428.00 298.30 L 426.50 299.20 L 425.50 300.30 L 424.80 303.00 L 425.70 306.80 L 426.90 309.10 L 430.80 314.70 L 435.10 318.10 L 438.30 320.00 L 441.20 324.30 L 444.10 327.80 L 447.10 330.70 L 450.10 333.10 L 453.20 334.90 L 456.30 336.20 L 459.50 337.10 L 464.20 337.80 L 468.70 338.10 L 472.90 337.90 L 476.90 337.30 L 480.90 336.30 L 484.50 334.80 L 487.90 332.80 L 491.00 330.30 L 494.70 326.70 L 499.60 320.90 L 502.10 315.60 L 502.70 312.80 L 503.00 309.40 L 502.90 305.40 L 502.40 302.30 L 500.30 296.50 L 495.90 288.80 L 489.90 281.50 L 487.40 273.30 L 484.40 266.50 L 482.50 263.50 L 480.50 261.20 L 479.00 260.20 L 477.50 259.70 L 475.80 259.80 Z" fill="#ffffff" fill-rule="evenodd" group-id="1" id="路径-61" node-id="10" stroke="#000000" stroke-linecap="butt" stroke-width="3.2" target-height="78.399994" target-width="78.20001" target-x="424.8" target-y="259.7"></path><path d="M 405.60 338.10 L 453.50 399.20 L 497.20 338.10 L 525.40 349.60 L 424.80 473.00 L 393.50 394.60" fill="none" group-id="1" id="路径-63" node-id="11" stroke="#000000" stroke-linecap="butt" stroke-width="3.2" target-height="134.9" target-width="131.90002" target-x="393.5" target-y="338.1"></path><path d="M 422.40 465.70 L 361.80 513.00" fill="none" group-id="1" id="路径-64" node-id="12" stroke="#000000" stroke-linecap="butt" stroke-width="3.2" target-height="47.299988" target-width="60.600006" target-x="361.8" target-y="465.7"></path><path d="M 310.90 411.30 L 328.10 449.60 L 339.70 474.40 L 347.20 489.30 L 353.00 500.10 L 363.80 518.00 L 368.90 525.20 L 373.40 531.20 L 377.90 536.20 L 382.20 540.60 L 386.50 544.30 L 390.60 547.30 L 395.30 550.00 L 399.90 552.00 L 404.60 553.40 L 409.40 554.20 L 414.30 554.30 L 418.30 553.90 L 422.30 553.00 L 426.30 551.60 L 430.30 549.60 L 435.40 546.40 L 440.50 542.50 L 445.60 537.80 L 450.50 532.70 L 460.40 520.70 L 474.80 500.40 L 539.10 402.60 L 567.70 471.30" fill="none" group-id="1" id="路径-65" node-id="13" stroke="#000000" stroke-linecap="butt" stroke-width="3.2" target-height="151.69998" target-width="256.80002" target-x="310.9" target-y="402.6"></path><path d="M 827.20 287.40 L 826.90 289.10 L 826.30 290.60 L 825.30 291.90 L 823.90 293.00 L 822.50 293.60 L 820.80 293.80 L 819.10 293.60 L 817.60 293.00 L 816.20 291.90 L 815.20 290.60 L 814.60 289.10 L 814.40 287.40 L 814.60 285.70 L 815.20 284.20 L 816.20 282.90 L 817.60 281.90 L 819.10 281.20 L 820.80 281.00 L 822.40 281.20 L 823.90 281.90 L 825.30 282.90 L 826.30 284.20 L 826.90 285.70 L 827.20 287.40 Z" fill="#ffffff" fill-rule="evenodd" group-id="1" id="椭圆形" node-id="14" stroke="#2b4be4" stroke-linecap="butt" stroke-width="3.2" target-height="12.799988" target-width="12.799988" target-x="814.4" target-y="281"></path><path d="M 526.40 258.60 L 526.10 260.30 L 525.50 261.80 L 524.50 263.10 L 523.20 264.10 L 521.70 264.80 L 520.00 265.00 L 518.20 264.80 L 516.70 264.10 L 515.40 263.10 L 514.40 261.80 L 513.80 260.30 L 513.60 258.60 L 513.80 256.90 L 514.40 255.40 L 515.40 254.10 L 516.70 253.10 L 518.20 252.50 L 520.00 252.20 L 521.70 252.50 L 523.20 253.10 L 524.50 254.10 L 525.50 255.40 L 526.10 256.90 L 526.40 258.60 Z" fill="#ffffff" fill-rule="evenodd" group-id="1" id="椭圆形备份-4" node-id="15" stroke="#2b4be4" stroke-linecap="butt" stroke-width="3.2" target-height="12.800003" target-width="12.800049" target-x="513.6" target-y="252.2"></path><path d="M 557.20 447.40 L 542.80 468.80 L 531.60 484.60 L 523.00 495.80 L 516.60 503.40 L 512.00 508.30 L 508.90 510.80 L 505.00 513.10 L 500.40 515.30 L 494.70 517.20 L 488.00 518.80 L 480.00 520.10 L 470.50 521.00 L 459.40 521.40" fill="none" group-id="1" id="路径-66" node-id="16" stroke="#000000" stroke-linecap="butt" stroke-width="3.2" target-height="74.00003" target-width="97.80002" target-x="459.4" target-y="447.4"></path><path d="M 508.30 450.30 L 509.40 460.90 L 509.80 469.30 L 509.70 475.80 L 509.10 480.70 L 508.30 484.40 L 507.00 487.90 L 504.80 491.90 L 501.60 496.50 L 497.20 501.60 L 491.40 507.30" fill="none" group-id="1" id="路径-67" node-id="17" stroke="#000000" stroke-linecap="butt" stroke-width="3.2" target-height="57" target-width="18.399994" target-x="491.4" target-y="450.3"></path><path d="M 378.30 536.40 L 340.70 536.40 L 338.80 537.00 L 337.50 538.00 L 336.70 539.40 L 336.40 541.30 L 336.70 543.20 L 337.50 544.60 L 338.80 545.70 L 340.70 546.40 L 337.30 547.10 L 335.10 548.00 L 333.70 549.20 L 333.00 550.40 L 332.70 551.90 L 333.00 553.30 L 333.70 554.40 L 335.10 555.30 L 337.30 556.00 L 340.70 556.20 L 338.70 557.10 L 337.40 558.20 L 336.70 559.40 L 336.40 560.90 L 337.20 563.10 L 338.20 564.00 L 342.40 565.80 L 341.20 565.70 L 340.40 566.20 L 339.90 567.30 L 339.70 569.40 L 339.90 571.00 L 340.50 572.10 L 341.60 573.00 L 343.20 573.60 L 345.60 573.80 L 393.50 573.80" fill="none" group-id="1" id="路径-68" node-id="18" stroke="#000000" stroke-linecap="butt" stroke-width="3.2" target-height="37.399963" target-width="60.799988" target-x="332.7" target-y="536.4"></path><path d="M 340.80 546.60 L 382.40 546.60 L 382.40 547.60 L 340.80 547.60 Z" fill="#d8d8d8" fill-rule="evenodd" group-id="1" id="矩形" node-id="19" stroke="#000000" stroke-linecap="butt" stroke-width="3.2" target-height="1" target-width="41.600006" target-x="340.8" target-y="546.6"></path><path d="M 340.80 556.20 L 382.40 556.20 L 382.40 557.20 L 340.80 557.20 Z" fill="#d8d8d8" fill-rule="evenodd" group-id="1" id="矩形备份-2" node-id="20" stroke="#000000" stroke-linecap="butt" stroke-width="3.2" target-height="1" target-width="41.600006" target-x="340.8" target-y="556.2"></path><path d="M 340.80 565.80 L 382.40 565.80 L 382.40 566.80 L 340.80 566.80 Z" fill="#d8d8d8" fill-rule="evenodd" group-id="1" id="矩形备份-3" node-id="21" stroke="#000000" stroke-linecap="butt" stroke-width="3.2" target-height="1" target-width="41.600006" target-x="340.8" target-y="565.8"></path><path d="M 236.80 573.80 L 748.80 573.80 L 748.80 580.20 L 236.80 580.20 Z" fill="#000000" fill-rule="evenodd" group-id="1" id="矩形" node-id="22" stroke="none" target-height="6.4000244" target-width="512" target-x="236.8" target-y="573.8"></path><path d="M 470.40 285.80 L 470.10 287.00 L 469.40 288.10 L 468.40 288.80 L 467.20 289.00 L 465.90 288.80 L 464.90 288.10 L 464.20 287.00 L 464.00 285.80 L 464.20 284.60 L 464.90 283.50 L 465.90 282.90 L 467.20 282.60 L 468.40 282.90 L 469.40 283.50 L 470.10 284.60 L 470.40 285.80 Z" fill="#000000" fill-rule="evenodd" group-id="1" id="椭圆形" node-id="23" stroke="none" target-height="6.399994" target-width="6.399994" target-x="464" target-y="282.6"></path><path d="M 483.70 282.60 L 493.20 298.90 L 485.40 298.90" fill="none" group-id="1" id="路径-69" node-id="24" stroke="#000000" stroke-linecap="butt" stroke-width="3.2" target-height="16.299988" target-width="9.5" target-x="483.7" target-y="282.6"></path><path d="M 488.00 309.80 L 487.30 311.40 L 486.60 312.10 L 485.10 312.70 L 483.20 313.00 L 481.20 312.70 L 479.80 312.10 L 479.00 311.40 L 478.40 309.80 L 479.00 308.20 L 479.80 307.50 L 481.20 306.90 L 483.20 306.60 L 485.10 306.90 L 486.60 307.50 L 487.30 308.20 L 488.00 309.80 Z" fill="none" group-id="1" id="椭圆形" node-id="25" stroke="#000000" stroke-linecap="butt" stroke-width="3.2" target-height="6.399994" target-width="9.600006" target-x="478.4" target-y="306.6"></path><g node-id="90"><path d="M 815.60 521.50 L 802.00 521.50 L 805.00 517.90 L 807.50 514.20 L 809.50 510.50 L 811.10 506.50 L 813.40 499.00 L 814.40 493.40 L 814.90 488.50 L 815.00 480.70 L 814.80 479.70 L 813.70 478.10 L 811.70 477.40 L 809.70 477.80 L 808.90 478.40 L 796.30 490.80 L 795.80 492.00 L 796.30 493.20 L 796.90 493.60 L 798.20 493.60 L 798.70 493.20 L 811.50 480.90 L 811.40 488.80 L 810.90 493.80 L 809.70 499.40 L 807.20 507.00 L 805.30 510.90 L 803.10 514.60 L 800.40 518.10 L 797.10 521.50 L 788.20 521.50 L 788.70 520.50 L 792.90 516.00 L 798.00 509.60 L 800.50 505.90 L 802.90 501.20 L 802.50 500.00 L 802.00 499.60 L 801.30 499.40 L 800.10 499.80 L 795.80 506.60 L 791.60 512.10 L 792.50 508.10 L 793.20 500.00 L 792.80 494.00 L 791.90 487.80 L 790.60 481.60 L 787.10 470.00 L 782.30 457.40 L 781.00 456.00 L 779.20 455.40 L 778.20 455.60 L 776.50 456.60 L 776.00 457.40 L 771.20 470.00 L 767.70 481.60 L 766.40 487.80 L 765.50 494.00 L 765.20 500.00 L 765.80 508.10 L 766.70 512.10 L 762.50 506.60 L 758.20 499.80 L 757.00 499.40 L 755.80 500.00 L 755.50 500.60 L 755.60 501.90 L 760.40 509.60 L 765.40 516.00 L 769.70 520.50 L 770.10 521.50 L 761.20 521.50 L 757.90 518.10 L 755.20 514.60 L 753.00 510.90 L 751.10 507.00 L 748.60 499.40 L 747.50 493.80 L 746.90 488.80 L 746.80 480.90 L 759.60 493.30 L 760.40 493.70 L 761.30 493.70 L 762.10 493.20 L 762.50 492.50 L 762.50 491.60 L 762.00 490.80 L 749.40 478.40 L 748.60 477.80 L 746.60 477.40 L 744.70 478.10 L 743.50 479.70 L 743.30 480.70 L 743.40 488.50 L 743.90 493.40 L 745.90 502.70 L 748.90 510.50 L 750.90 514.20 L 753.30 517.90 L 756.30 521.50 L 742.70 521.50 L 740.90 521.80 L 739.30 522.40 L 737.90 523.50 L 736.90 524.80 L 736.20 526.40 L 736.00 528.20 L 736.20 530.00 L 736.90 531.60 L 737.90 532.90 L 739.30 534.00 L 740.90 534.60 L 744.00 534.90 L 751.80 568.20 L 753.20 571.10 L 755.70 573.10 L 758.90 573.80 L 799.40 573.80 L 801.10 573.60 L 804.00 572.20 L 806.00 569.80 L 806.50 568.20 L 814.30 534.90 L 817.50 534.60 L 819.00 534.00 L 820.40 532.90 L 821.50 531.60 L 822.10 530.00 L 822.40 528.20 L 822.10 526.40 L 821.50 524.80 L 820.40 523.50 L 819.00 522.40 L 817.50 521.80 L 815.60 521.50 Z M 779.20 458.90 L 782.20 466.40 L 785.60 476.60 L 788.50 488.30 L 789.40 494.30 L 789.70 500.00 L 789.40 504.60 L 788.00 512.40 L 786.20 517.60 L 784.30 521.50 L 780.90 521.50 L 780.90 487.80 L 780.40 486.60 L 779.20 486.10 L 778.50 486.20 L 777.60 487.10 L 777.40 487.80 L 777.40 521.50 L 774.00 521.50 L 772.20 517.60 L 770.40 512.40 L 768.90 504.60 L 768.60 500.00 L 769.00 494.30 L 769.80 488.30 L 771.10 482.40 L 774.50 471.10 L 779.20 458.90 Z M 815.60 531.40 L 761.20 531.40 L 760.50 531.60 L 759.60 532.50 L 759.60 533.80 L 760.50 534.70 L 761.20 534.90 L 810.70 534.90 L 803.10 567.40 L 802.60 568.60 L 800.70 570.10 L 799.40 570.30 L 758.90 570.30 L 757.60 570.10 L 756.50 569.50 L 755.70 568.60 L 755.20 567.40 L 747.60 534.90 L 753.70 534.70 L 754.60 533.80 L 754.60 532.50 L 753.70 531.60 L 753.10 531.40 L 742.70 531.40 L 741.40 531.20 L 740.40 530.50 L 739.70 529.50 L 739.40 528.20 L 739.70 526.90 L 740.40 525.90 L 741.40 525.20 L 742.70 525.00 L 815.60 525.00 L 816.90 525.20 L 817.90 525.90 L 818.60 526.90 L 818.90 528.20 L 818.60 529.50 L 817.90 530.50 L 816.90 531.20 L 815.60 531.40 Z" fill="#282828" fill-rule="nonzero" group-id="1,2" id="形状" node-id="27" stroke="none" target-height="118.399994" target-width="86.400024" target-x="736" target-y="455.4"></path></g><path d="M 517.40 359.60 L 529.10 348.50 L 538.60 340.20 L 546.30 334.10 L 552.40 329.80 L 557.20 327.00 L 561.30 325.30 L 565.10 324.10 L 568.70 323.60 L 572.00 323.70 L 575.30 324.30 L 578.40 325.40 L 581.50 327.00 L 581.50 334.50 L 564.80 339.00 L 561.20 340.70 L 556.90 343.30 L 551.70 347.00 L 558.20 348.00 L 562.60 348.90 L 565.20 349.90 L 566.70 350.80 L 567.50 351.70 L 567.70 352.50 L 567.50 353.40 L 566.70 354.30 L 565.20 355.40 L 562.50 356.60 L 558.20 358.00 L 551.70 359.60 L 557.00 359.20 L 560.90 359.40 L 563.60 360.00 L 565.50 360.90 L 566.70 362.00 L 567.40 363.40 L 567.70 365.10 L 567.40 366.80 L 566.70 368.30 L 565.50 369.60 L 563.70 370.70 L 561.10 371.60 L 557.50 372.20 L 552.50 372.50 L 557.60 372.70 L 561.30 373.30 L 563.90 374.10 L 565.70 375.10 L 566.80 376.10 L 567.50 377.30 L 567.70 378.60 L 567.30 380.10 L 566.10 382.10 L 563.40 385.10 L 558.50 389.30 L 550.70 395.00 L 539.10 402.60" fill="#ffffff" fill-rule="evenodd" group-id="1" id="路径-70" node-id="28" stroke="#000000" stroke-linecap="butt" stroke-width="3.2" target-height="79" target-width="64.099976" target-x="517.4" target-y="323.6"></path><g node-id="91"><path d="M 544.00 231.40 L 748.80 231.40 L 748.80 241.00 L 544.00 241.00 Z" fill="#2b48e7" fill-rule="evenodd" group-id="1,3" id="矩形" node-id="30" stroke="none" target-height="9.600006" target-width="204.79999" target-x="544" target-y="231.4"></path><path d="M 544.00 564.20 L 748.80 564.20 L 748.80 573.80 L 544.00 573.80 Z" fill="#2b48e7" fill-rule="evenodd" group-id="1,3" id="矩形备份" node-id="31" stroke="none" target-height="9.599976" target-width="204.79999" target-x="544" target-y="564.2"></path><g node-id="92"><g node-id="94"><path d="M 742.40 564.20 L 745.30 556.00 L 747.60 548.20 L 749.20 540.70 L 750.20 533.60 L 750.60 526.80 L 750.50 520.30 L 749.90 514.00 L 748.80 507.90 L 747.20 502.00 L 745.00 496.20 L 740.00 486.60 L 736.90 481.90 L 731.70 475.10 L 726.00 468.50 L 713.90 456.50 L 692.70 438.00 L 686.80 432.20 L 680.00 422.70 L 677.00 417.70 L 674.70 412.70 L 673.50 409.30 L 672.80 405.90 L 672.50 402.60 L 673.10 396.40 L 675.10 389.90 L 676.90 386.40 L 681.40 379.40 L 686.80 374.00 L 709.40 354.40 L 722.50 341.90 L 728.60 335.10 L 734.00 328.50 L 737.20 323.80 L 739.80 319.30 L 741.80 315.00 L 743.70 309.60 L 745.30 303.70 L 746.40 297.10 L 747.10 289.80 L 747.30 281.80 L 747.00 273.00 L 746.10 263.30 L 744.60 252.70 L 742.40 241.00 L 547.20 241.00 L 545.20 253.20 L 543.90 264.20 L 543.30 274.00 L 543.30 282.90 L 543.90 290.80 L 544.90 297.90 L 546.40 304.30 L 548.20 310.00 L 550.40 315.00 L 555.60 323.40 L 559.00 328.00 L 564.70 334.60 L 571.10 341.40 L 584.60 354.20 L 607.60 374.20 L 613.20 379.40 L 618.20 385.90 L 620.60 390.90 L 621.40 394.20 L 621.90 397.80 L 622.10 402.60 L 621.80 407.00 L 620.90 411.00 L 619.50 414.70 L 617.70 418.10 L 613.30 424.30 L 605.70 432.20 L 583.90 450.20 L 571.60 461.60 L 565.50 468.00 L 559.80 474.70 L 554.70 481.70 L 551.70 486.50 L 549.20 491.40 L 547.20 496.20 L 545.10 502.60 L 543.70 509.30 L 542.80 516.10 L 542.50 523.30 L 542.70 530.70 L 543.60 538.50 L 545.10 546.60 L 547.40 555.20 L 550.40 564.20 L 742.40 564.20 Z" fill="#3251e6" fill-rule="evenodd" group-id="1,3,4,6" node-id="82" stroke="none" target-height="323.2" target-width="208.09998" target-x="542.5" target-y="241"></path></g><path d="M 557.20 566.50 L 561.70 559.10 L 566.40 552.50 L 571.30 546.50 L 576.40 541.10 L 581.60 536.30 L 587.10 532.00 L 592.80 528.30 L 598.70 525.10 L 604.80 522.30 L 611.20 520.10 L 617.90 518.30 L 625.00 517.00 L 632.30 516.20 L 640.10 515.90 L 648.10 516.20 L 656.00 517.10 L 663.70 518.50 L 671.30 520.50 L 678.70 523.00 L 686.10 526.10 L 693.30 529.90 L 700.40 534.20 L 707.50 539.20 L 714.60 544.90 L 721.50 551.30 L 728.50 558.50 L 735.40 566.50 L 737.00 572.50 L 737.80 577.10 L 738.00 580.70 L 737.70 583.30 L 737.00 585.30 L 736.00 586.70 L 734.70 587.70 L 733.00 588.40 L 730.80 588.60 L 722.00 587.90 L 663.70 581.10 L 646.70 579.80 L 639.50 579.70 L 634.00 579.90 L 624.40 581.20 L 617.60 582.80 L 598.90 588.70 L 592.50 590.50 L 585.60 591.90 L 575.70 592.70 L 570.10 592.60 L 568.60 592.30 L 567.00 591.50 L 565.50 590.10 L 563.90 587.90 L 562.20 584.70 L 560.60 580.30 L 558.90 574.30 L 557.20 566.50 Z" fill="#ffffff" fill-rule="evenodd" group-id="1,3,4,7" node-id="87" stroke="none" target-height="76.79999" target-width="180.79999" target-x="557.2" target-y="515.9"></path></g><path d="M 566.30 309.50 L 569.70 317.70 L 573.30 325.10 L 577.30 331.70 L 581.40 337.80 L 585.90 343.20 L 590.50 348.00 L 595.50 352.30 L 600.70 356.10 L 606.30 359.30 L 612.10 362.10 L 618.30 364.50 L 624.90 366.30 L 631.80 367.60 L 639.30 368.40 L 647.20 368.70 L 655.10 368.40 L 662.50 367.60 L 669.50 366.30 L 676.00 364.40 L 682.10 362.10 L 687.80 359.30 L 693.20 356.00 L 698.30 352.20 L 703.00 348.00 L 707.50 343.10 L 711.70 337.70 L 715.70 331.70 L 719.30 325.10 L 722.70 317.70 L 725.70 309.50 L 727.00 303.00 L 727.50 298.00 L 727.50 294.20 L 726.90 291.30 L 726.00 289.10 L 724.80 287.50 L 723.30 286.40 L 721.40 285.70 L 719.10 285.50 L 715.10 285.80 L 709.60 286.90 L 681.50 294.60 L 664.40 298.10 L 652.60 299.30 L 646.60 299.50 L 640.60 299.30 L 630.20 297.90 L 622.80 296.10 L 602.40 289.70 L 595.50 287.80 L 588.00 286.30 L 577.30 285.40 L 571.20 285.50 L 569.50 285.80 L 568.10 286.60 L 566.90 287.90 L 566.00 289.90 L 565.30 292.80 L 565.10 296.80 L 565.30 302.20 L 566.30 309.50 Z" fill="#ffffff" fill-rule="evenodd" group-id="1,3" id="路径-60" node-id="37" stroke="none" target-height="83.30002" target-width="162.40002" target-x="565.1" target-y="285.4"></path><path d="M 662.40 389.80 L 662.10 392.40 L 661.50 394.80 L 660.40 397.10 L 659.00 399.10 L 657.30 400.80 L 655.20 402.20 L 653.00 403.30 L 650.60 404.00 L 648.00 404.20 L 645.30 404.00 L 642.90 403.30 L 640.70 402.20 L 638.70 400.80 L 637.00 399.10 L 635.50 397.10 L 634.50 394.80 L 633.80 392.40 L 633.60 389.80 L 633.80 387.20 L 634.50 384.80 L 635.50 382.50 L 637.00 380.50 L 638.70 378.80 L 640.70 377.40 L 642.90 376.30 L 645.30 375.70 L 648.00 375.40 L 650.60 375.70 L 653.00 376.30 L 655.20 377.40 L 657.30 378.80 L 659.00 380.50 L 660.40 382.50 L 661.50 384.80 L 662.10 387.20 L 662.40 389.80 Z" fill="#ffffff" fill-rule="evenodd" group-id="1,3" id="椭圆形" node-id="38" stroke="none" target-height="28.800018" target-width="28.800049" target-x="633.6" target-y="375.4"></path><path d="M 657.60 425.00 L 657.40 426.90 L 656.00 430.30 L 653.30 433.00 L 649.90 434.40 L 646.10 434.40 L 642.60 433.00 L 640.00 430.30 L 638.60 426.90 L 638.60 423.10 L 640.00 419.70 L 642.60 417.00 L 646.10 415.60 L 649.90 415.60 L 653.30 417.00 L 656.00 419.70 L 657.40 423.10 L 657.60 425.00 Z" fill="#ffffff" fill-rule="evenodd" group-id="1,3" id="椭圆形备份" node-id="39" stroke="none" target-height="18.799988" target-width="19" target-x="638.6" target-y="415.6"></path><path d="M 654.40 453.80 L 654.10 455.50 L 653.50 457.00 L 652.50 458.30 L 651.20 459.30 L 649.70 460.00 L 648.00 460.20 L 646.20 460.00 L 644.70 459.30 L 642.40 457.00 L 641.80 455.50 L 641.60 453.80 L 641.80 452.10 L 642.40 450.60 L 643.40 449.30 L 644.70 448.30 L 646.20 447.70 L 648.00 447.40 L 649.70 447.70 L 651.20 448.30 L 652.50 449.30 L 653.50 450.60 L 654.10 452.10 L 654.40 453.80 Z" fill="#ffffff" fill-rule="evenodd" group-id="1,3" id="椭圆形备份-2" node-id="40" stroke="none" target-height="12.800018" target-width="12.800049" target-x="641.6" target-y="447.4"></path><g node-id="93"><path d="M 651.20 476.20 L 650.90 475.00 L 650.20 473.90 L 649.20 473.30 L 648.00 473.00 L 646.70 473.30 L 645.70 473.90 L 645.00 475.00 L 644.80 476.20 L 645.00 477.50 L 645.70 478.50 L 646.70 479.20 L 648.00 479.40 L 649.20 479.20 L 650.20 478.50 L 650.90 477.50 L 651.20 476.20 Z" fill="#ffffff" fill-rule="evenodd" group-id="1,3,5" id="椭圆形备份-3" node-id="41" stroke="none" target-height="6.399994" target-width="6.4000244" target-x="644.8" target-y="473"></path></g></g></g></svg>