<?xml version="1.0" standalone="no"?><!DOCTYPE svg PUBLIC "-//W3C//DTD SVG 1.1//EN" "http://www.w3.org/Graphics/SVG/1.1/DTD/svg11.dtd"><svg height="1080" node-id="1" sillyvg="true" template-height="1080" template-width="1080" version="1.1" viewBox="0 0 1080 1080" width="1080" xmlns="http://www.w3.org/2000/svg" xmlns:xlink="http://www.w3.org/1999/xlink"><defs node-id="100"><linearGradient gradientUnits="objectBoundingBox" id="linearGradient-1" node-id="5" spreadMethod="pad" x1="1.2094132" x2="-0.25048688" y1="0.494954" y2="0.494954"><stop offset="0" stop-color="#c8cacd" stop-opacity="0"></stop><stop offset="1" stop-color="#b2b4b8"></stop></linearGradient><linearGradient gradientUnits="objectBoundingBox" id="linearGradient-2" node-id="8" spreadMethod="pad" x1="0.5169358" x2="0.47718045" y1="0.0974362" y2="1.0007974"><stop offset="0" stop-color="#f4f5f5"></stop><stop offset="1" stop-color="#b3b5b9"></stop></linearGradient><linearGradient gradientUnits="objectBoundingBox" id="linearGradient-3" node-id="11" spreadMethod="pad" x1="0.49269038" x2="0.5171384" y1="0.074888974" y2="0.9985335"><stop offset="0" stop-color="#f3f4f4"></stop><stop offset="1" stop-color="#b3b5b9"></stop></linearGradient><linearGradient gradientUnits="objectBoundingBox" id="linearGradient-4" node-id="14" spreadMethod="pad" x1="0.49934214" x2="0.49934214" y1="1.0001063" y2="-0.44149363"><stop offset="0" stop-color="#f8f8f9"></stop><stop offset="1" stop-color="#e2e3e4"></stop></linearGradient><linearGradient gradientUnits="objectBoundingBox" id="linearGradient-5" node-id="17" spreadMethod="pad" x1="0.4999504" x2="0.4999504" y1="0.9963927" y2="0.028771164"><stop offset="0" stop-color="#f4f5f5" stop-opacity="0"></stop><stop offset="1" stop-color="#eeeff0"></stop></linearGradient><linearGradient gradientUnits="objectBoundingBox" id="linearGradient-6" node-id="20" spreadMethod="pad" x1="0.5000121" x2="0.5000121" y1="0.99704915" y2="0.028549144"><stop offset="0" stop-color="#f4f5f5" stop-opacity="0"></stop><stop offset="1" stop-color="#eeeff0"></stop></linearGradient><linearGradient gradientUnits="objectBoundingBox" id="linearGradient-7" node-id="23" spreadMethod="pad" x1="0.49997026" x2="0.49997026" y1="0.99996376" y2="0.000988388"><stop offset="0.002903294" stop-color="#f4f5f5" stop-opacity="0"></stop><stop offset="0.9798" stop-color="#f0f1f2"></stop></linearGradient><linearGradient gradientUnits="objectBoundingBox" id="linearGradient-8" node-id="26" spreadMethod="pad" x1="0.5234527" x2="0.4701875" y1="0.09366339" y2="0.9998581"><stop offset="0" stop-color="#f4f5f5"></stop><stop offset="1" stop-color="#b3b5b9"></stop></linearGradient><linearGradient gradientUnits="objectBoundingBox" id="linearGradient-9" node-id="29" spreadMethod="pad" x1="0.48885635" x2="0.5245774" y1="0.07504363" y2="0.9966592"><stop offset="0" stop-color="#f3f4f4"></stop><stop offset="1" stop-color="#b3b5b9"></stop></linearGradient><linearGradient gradientUnits="objectBoundingBox" id="linearGradient-10" node-id="32" spreadMethod="pad" x1="0.52245086" x2="0.46896595" y1="0.09786528" y2="1.0030867"><stop offset="0" stop-color="#f4f5f5"></stop><stop offset="1" stop-color="#b3b5b9"></stop></linearGradient><linearGradient gradientUnits="objectBoundingBox" id="linearGradient-11" node-id="35" spreadMethod="pad" x1="0.4876765" x2="0.52464366" y1="0.074530855" y2="0.9967368"><stop offset="0" stop-color="#f3f4f4"></stop><stop offset="1" stop-color="#b3b5b9"></stop></linearGradient><linearGradient gradientUnits="objectBoundingBox" id="linearGradient-12" node-id="38" spreadMethod="pad" x1="0.500015" x2="0.500015" y1="0.49880862" y2="1.7537224"><stop offset="0" stop-color="#c3c4c8"></stop><stop offset="1" stop-color="#ecedee"></stop></linearGradient><linearGradient gradientUnits="objectBoundingBox" id="linearGradient-15" node-id="42" spreadMethod="pad" x1="0.50315326" x2="0.47462872" y1="0.18622705" y2="0.82073534"><stop offset="0" stop-color="#c3c4c8"></stop><stop offset="1" stop-color="#eaeaeb"></stop></linearGradient><linearGradient gradientUnits="objectBoundingBox" id="linearGradient-16" node-id="45" spreadMethod="pad" x1="0.49996015" x2="0.46197358" y1="-0.09829538" y2="0.8023224"><stop offset="0" stop-color="#d7d8da"></stop><stop offset="1" stop-color="#eeeff0"></stop></linearGradient><linearGradient gradientUnits="objectBoundingBox" id="linearGradient-17" node-id="48" spreadMethod="pad" x1="0.50020707" x2="0.45118555" y1="-0.09806942" y2="0.80223155"><stop offset="0" stop-color="#d7d8da"></stop><stop offset="1" stop-color="#eeeff0"></stop></linearGradient><linearGradient gradientUnits="objectBoundingBox" id="linearGradient-18" node-id="51" spreadMethod="pad" x1="0.5096448" x2="0.45323944" y1="0.1876164" y2="0.8025812"><stop offset="0" stop-color="#c3c4c8"></stop><stop offset="1" stop-color="#eaeaeb"></stop></linearGradient><linearGradient gradientUnits="objectBoundingBox" id="linearGradient-19" node-id="54" spreadMethod="pad" x1="0.8768898" x2="-0.16658972" y1="0.21487226" y2="0.57097256"><stop offset="0" stop-color="#c3c4c8"></stop><stop offset="1" stop-color="#eaeaeb"></stop></linearGradient><linearGradient gradientUnits="objectBoundingBox" id="linearGradient-20" node-id="57" spreadMethod="pad" x1="0.49973407" x2="0.20545071" y1="-0.09887389" y2="0.800928"><stop offset="0" stop-color="#d7d8da"></stop><stop offset="1" stop-color="#eeeff0"></stop></linearGradient><mask height="1684.9167" id="mask-14" maskUnits="userSpaceOnUse" node-id="85" width="1663.8029" x="1773.6132" y="97.52057"><path d="M 2695.10 959.60 L 2705.70 938.20 L 2715.70 917.40 L 2724.90 897.10 L 2733.70 876.60 L 2741.70 856.90 L 2749.00 838.00 L 2755.90 819.00 L 2761.90 801.10 L 2767.00 784.30 L 2771.80 767.30 L 2775.60 751.80 L 2778.50 737.60 L 2780.40 726.70 L 2782.60 707.90 L 2783.00 699.90 L 2783.00 691.50 L 2782.50 684.30 L 2781.50 678.10 L 2780.10 672.90 L 2778.50 668.70 L 2776.60 665.20 L 2774.40 662.40 L 2772.00 660.20 L 2769.30 658.50 L 2761.60 655.60 L 2742.50 650.50 L 2709.00 643.60 L 2688.10 639.90 L 2666.10 636.50 L 2641.40 633.00 L 2615.90 629.90 L 2588.60 627.10 L 2551.10 624.10 L 2531.70 623.00 L 2492.70 621.60 L 2453.40 621.50 L 2433.90 622.10 L 2414.70 623.10 L 2395.60 624.60 L 2377.00 626.60 L 2359.00 629.00 L 2332.40 633.80 L 2307.90 639.80 L 2295.90 643.50 L 2284.50 647.50 L 2273.80 651.80 L 2263.80 656.40 L 2255.80 660.60 L 2248.30 664.90 L 2241.30 669.60 L 2234.80 674.40 L 2228.70 679.50 L 2222.90 685.00 L 2217.60 690.80 L 2212.90 696.80 L 2208.60 703.20 L 2204.90 709.80 L 2201.70 716.80 L 2199.00 724.00 L 2196.90 731.40 L 2195.30 739.00 L 2194.30 747.00 L 2193.80 754.90 L 2193.70 763.00 L 2194.10 771.40 L 2194.90 780.00 L 2196.20 788.90 L 2198.40 799.80 L 2201.20 811.00 L 2204.70 822.50 L 2208.80 834.40 L 2213.30 845.90 L 2218.30 857.70 L 2223.90 869.80 L 2230.00 882.00 L 2238.70 898.10 L 2248.00 914.20 L 2258.10 930.60 L 2268.50 946.70 L 2279.50 962.80 L 2302.60 994.60 L 2326.70 1025.30 L 2339.00 1040.40 L 2363.50 1068.90 L 2381.80 1089.40 L 2399.30 1108.20 L 2416.60 1126.10 L 2432.30 1141.90 L 2447.60 1156.70 L 2472.80 1179.70 L 2488.20 1192.20 L 2495.10 1196.70 L 2498.10 1197.90 L 2501.30 1198.50 L 2504.80 1198.60 L 2508.70 1198.10 L 2513.10 1196.90 L 2518.10 1195.00 L 2523.70 1192.20 L 2529.80 1188.40 L 2536.70 1183.40 L 2542.90 1178.40 L 2556.80 1165.60 L 2564.50 1157.60 L 2574.20 1146.90 L 2584.50 1134.70 L 2595.50 1120.90 L 2606.10 1106.80 L 2617.00 1091.50 L 2628.40 1074.70 L 2639.40 1057.80 L 2650.60 1039.70 L 2662.00 1020.50 L 2673.00 1001.10 L 2684.00 980.80 L 2695.10 959.60 Z" fill="#ffffff" fill-rule="evenodd" node-id="213" stroke="none" target-height="577.1" target-width="589.30005" target-x="2193.7" target-y="621.5"></path></mask></defs><g node-id="215"><g node-id="216"><path d="M 0.00 0.00 L 1080.00 0.00 L 1080.00 1080.00 L 0.00 1080.00 Z" fill="#ffffff" fill-opacity="0" fill-rule="nonzero" group-id="1,2" id="矩形" node-id="63" stroke="none" target-height="1080" target-width="1080" target-x="0" target-y="0"></path><g node-id="218"><path d="M 688.50 881.70 L 688.20 882.70 L 687.10 883.70 L 684.90 885.00 L 680.90 886.40 L 675.90 887.80 L 659.80 890.60 L 645.60 892.20 L 627.70 893.80 L 608.70 895.00 L 586.90 895.90 L 540.00 896.70 L 493.10 895.90 L 471.30 895.00 L 452.30 893.80 L 434.40 892.20 L 420.20 890.60 L 404.10 887.80 L 399.10 886.40 L 395.10 885.00 L 392.90 883.70 L 391.80 882.70 L 391.50 881.70 L 391.80 880.70 L 392.90 879.70 L 395.10 878.40 L 399.10 877.00 L 411.00 874.30 L 420.20 872.80 L 434.40 871.20 L 452.30 869.60 L 471.30 868.40 L 493.10 867.50 L 540.00 866.70 L 586.90 867.50 L 608.70 868.40 L 627.70 869.60 L 645.60 871.20 L 659.80 872.80 L 675.90 875.60 L 680.90 877.00 L 684.90 878.40 L 687.10 879.70 L 688.20 880.70 L 688.50 881.70 Z" fill="url(#linearGradient-1)" fill-opacity="0.2648" fill-rule="nonzero" group-id="1,2,4" id="椭圆形" node-id="64" stroke="none" target-height="30" target-width="297" target-x="391.5" target-y="866.7"></path></g><g node-id="219"><g node-id="225"><path d="M 232.20 668.10 L 232.00 669.00 L 231.20 669.90 L 229.80 670.80 L 227.30 671.90 L 223.60 672.80 L 219.50 673.30 L 214.80 673.50 L 210.10 673.30 L 206.00 672.80 L 202.30 671.90 L 199.80 670.80 L 198.40 669.90 L 197.60 669.00 L 197.40 668.10 L 197.60 667.20 L 198.40 666.30 L 199.80 665.40 L 202.30 664.30 L 206.00 663.40 L 210.10 662.90 L 214.80 662.70 L 219.50 662.90 L 223.60 663.40 L 227.30 664.30 L 229.80 665.40 L 231.20 666.30 L 232.00 667.20 L 232.20 668.10 Z" fill="#9da0a6" fill-opacity="0.3733638" fill-rule="nonzero" group-id="1,2,5,11" id="椭圆形_1_" node-id="66" stroke="none" target-height="10.799988" target-width="34.800003" target-x="197.4" target-y="662.7"></path></g><g node-id="226"><path d="M 199.50 668.10 L 200.30 668.10 L 201.50 667.60 L 203.30 666.20 L 205.80 663.60 L 212.30 655.40 L 222.40 640.20 L 229.90 626.70 L 231.00 624.00 L 231.90 620.70 L 232.20 617.50 L 232.10 614.30 L 231.50 611.20 L 230.60 608.40 L 229.20 605.80 L 227.40 603.50 L 225.30 601.70 L 222.90 600.30 L 220.20 599.50 L 217.60 599.30 L 215.00 599.70 L 212.40 600.60 L 210.00 601.90 L 207.70 603.80 L 205.80 606.10 L 204.20 608.80 L 202.80 612.00 L 201.10 619.40 L 199.30 630.50 L 198.00 643.00 L 197.40 654.80 L 197.40 660.10 L 198.30 666.30 L 198.90 667.50 L 199.50 668.10 Z" fill="url(#linearGradient-2)" fill-opacity="0.35945928" fill-rule="nonzero" group-id="1,2,5,12" id="椭圆形_2_" node-id="67" stroke="none" target-height="68.79999" target-width="34.800003" target-x="197.4" target-y="599.3"></path></g><path d="M 200.40 668.10 L 201.80 666.60 L 203.30 661.20 L 204.00 656.40 L 204.70 645.30 L 204.80 632.80 L 204.40 620.50 L 203.10 605.50 L 202.50 602.70 L 201.20 598.90 L 199.50 595.60 L 197.50 592.70 L 195.00 590.20 L 192.30 588.30 L 189.40 586.90 L 184.80 586.00 L 180.00 586.50 L 175.60 588.60 L 172.00 591.90 L 170.20 594.60 L 168.80 597.70 L 167.80 601.20 L 167.30 604.90 L 167.40 608.60 L 168.00 612.60 L 170.30 619.50 L 174.60 629.00 L 180.00 639.90 L 186.00 650.70 L 191.80 659.90 L 194.60 663.70 L 198.50 667.50 L 199.60 668.10 L 200.40 668.10 Z" fill="url(#linearGradient-3)" fill-opacity="0.62352" fill-rule="nonzero" group-id="1,2,5" id="椭圆形_3_" node-id="68" stroke="none" target-height="82.099976" target-width="37.5" target-x="167.3" target-y="586"></path></g><g node-id="220"><path d="M 295.80 286.20 L 292.20 285.90 L 287.70 286.20 L 283.40 286.00 L 279.20 285.30 L 275.20 284.30 L 271.40 282.90 L 264.30 279.10 L 261.20 276.70 L 255.50 271.00 L 251.00 264.30 L 249.30 260.60 L 247.90 256.80 L 246.90 252.80 L 246.20 248.60 L 246.00 244.20 L 246.20 239.80 L 246.90 235.60 L 247.90 231.60 L 249.30 227.80 L 251.00 224.10 L 255.50 217.50 L 261.20 211.90 L 267.80 207.50 L 275.20 204.30 L 279.20 203.30 L 283.40 202.70 L 287.70 202.50 L 295.50 203.10 L 298.10 198.70 L 301.10 194.60 L 304.30 190.80 L 308.00 187.20 L 311.90 184.00 L 316.10 181.20 L 320.50 178.80 L 325.20 176.70 L 330.10 175.00 L 335.20 173.80 L 340.40 173.10 L 345.90 172.80 L 355.10 173.60 L 363.80 175.70 L 369.30 177.90 L 374.50 180.60 L 379.30 183.80 L 383.90 187.50 L 387.90 191.50 L 391.60 196.10 L 394.80 200.90 L 397.50 206.10 L 399.70 211.60 L 400.90 215.90 L 402.40 224.80 L 402.60 229.50 L 436.20 229.50 L 440.10 229.80 L 443.70 230.50 L 447.20 231.70 L 450.50 233.40 L 453.40 235.40 L 456.10 237.80 L 458.50 240.50 L 460.50 243.40 L 462.20 246.70 L 463.40 250.20 L 464.10 253.80 L 464.40 257.70 L 464.10 261.60 L 463.40 265.20 L 462.20 268.70 L 460.50 272.00 L 458.50 275.10 L 456.10 277.80 L 453.40 280.20 L 450.50 282.30 L 447.20 283.90 L 443.70 285.20 L 440.10 285.90 L 436.20 286.20 L 295.80 286.20 Z" fill="url(#linearGradient-4)" fill-opacity="0.56" fill-rule="nonzero" group-id="1,2,6" id="形状结合" node-id="69" stroke="none" target-height="113.40001" target-width="218.4" target-x="246" target-y="172.8"></path></g><g node-id="221"><path d="M 108.00 799.20 L 117.60 785.60 L 126.80 773.30 L 135.80 762.10 L 144.50 752.10 L 152.90 743.20 L 161.10 735.20 L 169.10 728.10 L 176.80 721.80 L 184.80 716.00 L 192.60 711.10 L 200.20 706.90 L 207.60 703.40 L 214.80 700.70 L 221.90 698.60 L 228.80 697.20 L 235.60 696.30 L 242.40 696.00 L 249.10 696.30 L 255.90 697.10 L 263.00 698.60 L 270.30 700.60 L 277.80 703.30 L 285.60 706.80 L 293.70 711.00 L 302.20 716.00 L 311.00 721.80 L 319.40 728.10 L 328.20 735.20 L 337.30 743.10 L 346.80 752.10 L 356.60 762.10 L 366.90 773.30 L 377.60 785.60 L 388.80 799.20 L 108.00 799.20 Z" fill="url(#linearGradient-5)" fill-opacity="0.8" fill-rule="nonzero" group-id="1,2,7" id="路径" node-id="71" stroke="none" target-height="103.20001" target-width="280.8" target-x="108" target-y="696"></path><path d="M 274.20 799.20 L 283.20 782.80 L 292.10 767.70 L 300.80 753.90 L 309.40 741.40 L 317.90 730.00 L 326.20 719.60 L 334.40 710.30 L 342.50 702.00 L 350.40 694.50 L 358.30 687.90 L 366.00 682.00 L 373.70 676.90 L 381.20 672.50 L 388.70 668.80 L 396.20 665.70 L 403.60 663.20 L 411.00 661.30 L 418.30 659.90 L 425.80 659.10 L 433.20 658.80 L 441.30 659.10 L 450.40 660.00 L 460.50 661.70 L 471.70 664.20 L 484.30 667.60 L 498.20 672.00 L 513.60 677.60 L 530.60 684.30 L 549.40 692.50 L 570.00 702.10 L 592.60 713.40 L 617.40 726.40 L 644.50 741.40 L 674.00 758.40 L 706.10 777.60 L 741.00 799.20 L 274.20 799.20 Z" fill="url(#linearGradient-6)" fill-opacity="0.8" fill-rule="nonzero" group-id="1,2,7" id="路径-2" node-id="72" stroke="none" target-height="140.40002" target-width="466.8" target-x="274.2" target-y="658.8"></path><path d="M 972.00 799.20 L 961.50 784.70 L 951.30 771.60 L 941.40 759.70 L 931.90 749.10 L 922.70 739.50 L 913.70 731.00 L 905.10 723.50 L 896.70 716.90 L 888.00 710.70 L 879.50 705.40 L 871.30 700.90 L 863.30 697.30 L 855.50 694.40 L 847.90 692.20 L 840.40 690.60 L 833.10 689.70 L 825.90 689.40 L 818.70 689.70 L 810.70 690.60 L 802.00 692.20 L 792.40 694.50 L 781.80 697.70 L 770.20 701.90 L 757.50 707.00 L 743.70 713.30 L 728.50 720.90 L 711.90 729.80 L 693.90 740.20 L 674.20 752.20 L 652.90 765.90 L 629.80 781.60 L 604.80 799.20 L 972.00 799.20 Z" fill="url(#linearGradient-7)" fill-opacity="0.8" fill-rule="nonzero" group-id="1,2,7" id="路径-3" node-id="73" stroke="none" target-height="109.79999" target-width="367.2" target-x="604.8" target-y="689.4"></path></g><g node-id="222"><g node-id="227"><path d="M 823.50 595.20 L 822.80 596.60 L 819.70 598.10 L 813.70 599.20 L 810.00 599.40 L 806.30 599.20 L 800.30 598.10 L 798.30 597.30 L 796.70 595.90 L 796.50 595.20 L 797.20 593.80 L 800.30 592.30 L 806.30 591.20 L 810.00 591.00 L 813.70 591.20 L 819.70 592.30 L 822.80 593.80 L 823.50 595.20 Z" fill="#9da0a6" fill-opacity="0.53592" fill-rule="nonzero" group-id="1,2,8,13" id="椭圆形_4_" node-id="75" stroke="none" target-height="8.400024" target-width="27" target-x="796.5" target-y="591"></path></g><g node-id="228"><path d="M 798.30 595.20 L 799.90 594.90 L 801.30 593.90 L 803.20 592.00 L 808.20 586.10 L 816.00 575.30 L 821.70 565.60 L 823.30 561.30 L 823.50 556.80 L 822.30 552.60 L 820.00 549.20 L 816.60 546.90 L 814.60 546.30 L 812.70 546.20 L 810.60 546.50 L 806.80 548.10 L 805.00 549.50 L 802.10 553.10 L 801.00 555.30 L 799.60 560.40 L 798.30 568.20 L 797.30 577.20 L 796.80 589.40 L 797.40 593.90 L 798.30 595.20 Z" fill="url(#linearGradient-8)" fill-opacity="0.4612" fill-rule="nonzero" group-id="1,2,8,14" id="椭圆形_5_" node-id="76" stroke="none" target-height="49" target-width="26.700012" target-x="796.8" target-y="546.2"></path></g><path d="M 797.70 595.20 L 799.00 593.80 L 799.60 591.90 L 800.30 588.90 L 801.10 580.00 L 801.00 564.50 L 800.00 551.60 L 798.60 546.70 L 797.30 544.30 L 795.70 542.30 L 793.70 540.50 L 791.60 539.10 L 789.30 538.00 L 786.90 537.40 L 784.50 537.30 L 782.10 537.60 L 779.80 538.50 L 777.80 539.70 L 776.00 541.30 L 774.60 543.30 L 773.50 545.50 L 772.70 548.00 L 772.30 550.50 L 772.30 553.20 L 772.80 555.90 L 775.10 561.70 L 779.20 570.00 L 787.10 583.50 L 792.30 590.90 L 794.40 593.30 L 795.90 594.60 L 797.70 595.20 Z" fill="url(#linearGradient-9)" fill-opacity="0.8" fill-rule="nonzero" group-id="1,2,8" id="椭圆形_6_" node-id="77" stroke="none" target-height="57.900024" target-width="28.799988" target-x="772.3" target-y="537.3"></path></g><g node-id="223"><g node-id="229"><path d="M 870.60 885.60 L 870.40 886.50 L 869.60 887.40 L 868.20 888.30 L 865.60 889.40 L 861.80 890.30 L 857.70 890.80 L 852.90 891.00 L 848.10 890.80 L 844.00 890.30 L 840.20 889.40 L 837.60 888.30 L 836.20 887.40 L 835.40 886.50 L 835.20 885.60 L 835.40 884.70 L 836.20 883.80 L 837.60 882.90 L 840.20 881.80 L 844.00 880.90 L 848.10 880.40 L 852.90 880.20 L 857.70 880.40 L 861.80 880.90 L 865.60 881.80 L 868.20 882.90 L 869.60 883.80 L 870.40 884.70 L 870.60 885.60 Z" fill="#9da0a6" fill-opacity="0.42828768" fill-rule="nonzero" group-id="1,2,9,15" id="椭圆形_7_" node-id="79" stroke="none" target-height="10.799988" target-width="35.399963" target-x="835.2" target-y="880.2"></path></g><g node-id="230"><path d="M 840.30 886.50 L 841.20 886.60 L 842.50 886.10 L 847.00 882.60 L 850.40 879.00 L 857.70 870.20 L 865.30 859.80 L 872.40 849.20 L 878.00 839.90 L 881.40 833.10 L 882.60 829.10 L 883.10 825.20 L 882.90 821.40 L 882.20 817.60 L 881.00 814.20 L 879.20 811.10 L 875.50 807.30 L 870.90 804.60 L 865.70 803.50 L 860.50 803.90 L 857.20 805.00 L 854.10 806.70 L 851.10 809.00 L 848.50 811.70 L 846.30 814.90 L 844.50 818.70 L 842.50 826.00 L 840.60 836.80 L 839.00 849.50 L 837.90 862.50 L 837.60 874.10 L 837.80 879.00 L 838.90 884.80 L 839.60 885.90 L 840.30 886.50 Z" fill="url(#linearGradient-10)" fill-opacity="0.41365027" fill-rule="nonzero" group-id="1,2,9,16" id="椭圆形_8_" node-id="80" stroke="none" target-height="83.099976" target-width="45.5" target-x="837.6" target-y="803.5"></path></g><path d="M 840.30 886.80 L 841.30 886.20 L 842.20 884.90 L 843.20 882.50 L 844.20 878.50 L 845.10 872.80 L 846.10 859.60 L 846.10 837.10 L 845.40 823.10 L 844.00 812.20 L 843.30 808.80 L 842.10 805.40 L 840.60 802.30 L 836.60 796.80 L 834.20 794.50 L 831.60 792.50 L 828.70 790.80 L 825.80 789.60 L 822.80 788.80 L 819.60 788.40 L 816.50 788.40 L 813.30 789.00 L 810.20 790.10 L 807.50 791.50 L 805.00 793.30 L 802.80 795.50 L 800.90 797.90 L 799.30 800.70 L 797.20 806.80 L 796.70 810.10 L 796.60 813.50 L 796.90 816.90 L 797.70 820.50 L 798.80 823.80 L 803.30 834.00 L 809.80 846.50 L 817.40 859.80 L 825.30 872.00 L 832.70 881.50 L 835.60 884.50 L 837.70 886.10 L 839.20 886.80 L 840.30 886.80 Z" fill="url(#linearGradient-11)" fill-opacity="0.71752" fill-rule="nonzero" group-id="1,2,9" id="椭圆形_9_" node-id="81" stroke="none" target-height="98.39996" target-width="49.5" target-x="796.6" target-y="788.4"></path></g></g><g node-id="217"><path d="M 850.50 709.20 L 850.20 712.40 L 849.30 715.50 L 847.70 718.70 L 845.40 722.00 L 842.30 725.40 L 838.20 728.90 L 833.00 732.60 L 826.70 736.30 L 818.90 740.20 L 811.40 743.50 L 793.20 750.00 L 782.30 753.30 L 768.00 757.10 L 752.00 760.70 L 734.20 764.20 L 716.40 767.20 L 697.20 770.00 L 676.60 772.50 L 655.90 774.60 L 634.10 776.40 L 611.20 777.80 L 588.30 778.90 L 564.60 779.50 L 540.00 779.70 L 515.40 779.50 L 491.70 778.90 L 468.80 777.80 L 445.90 776.40 L 424.10 774.60 L 403.40 772.50 L 382.80 770.00 L 363.60 767.20 L 345.80 764.20 L 328.00 760.70 L 312.00 757.10 L 297.70 753.30 L 286.80 750.00 L 277.20 746.80 L 261.10 740.20 L 253.30 736.30 L 247.00 732.60 L 241.80 728.90 L 237.70 725.40 L 234.60 722.00 L 232.30 718.70 L 230.70 715.50 L 229.80 712.40 L 229.50 709.20 L 229.80 706.00 L 230.70 702.90 L 232.30 699.70 L 234.60 696.40 L 237.70 693.00 L 241.80 689.50 L 247.00 685.80 L 253.30 682.10 L 261.10 678.20 L 277.20 671.60 L 297.70 665.10 L 312.00 661.30 L 328.00 657.70 L 345.80 654.20 L 363.60 651.20 L 382.80 648.40 L 403.40 645.90 L 424.10 643.80 L 445.90 642.00 L 468.80 640.60 L 491.70 639.50 L 515.40 638.90 L 540.00 638.70 L 564.60 638.90 L 588.30 639.50 L 611.20 640.60 L 634.10 642.00 L 655.90 643.80 L 676.60 645.90 L 697.20 648.40 L 716.40 651.20 L 734.20 654.20 L 752.00 657.70 L 768.00 661.30 L 782.30 665.10 L 793.20 668.40 L 811.40 674.90 L 818.90 678.20 L 826.70 682.10 L 833.00 685.80 L 838.20 689.50 L 842.30 693.00 L 845.40 696.40 L 847.70 699.70 L 849.30 702.90 L 850.20 706.00 L 850.50 709.20 Z" fill="url(#linearGradient-12)" fill-opacity="0.8" fill-rule="nonzero" group-id="1,3" id="椭圆形_10_" node-id="83" stroke="none" target-height="141" target-width="621" target-x="229.5" target-y="638.7"></path><g node-id="224"><g node-id="232"><g node-id="233"><g node-id="234"><path d="M 724.40 876.90 L 718.80 877.70 L 715.90 877.60 L 710.20 876.30 L 707.30 875.10 L 667.60 855.20 L 662.80 851.40 L 660.80 849.20 L 657.60 844.40 L 655.80 839.40 L 655.30 834.40 L 656.10 829.50 L 658.90 820.10 L 661.40 810.60 L 663.40 800.90 L 665.00 791.10 L 666.20 781.20 L 667.00 771.20 L 667.40 761.20 L 667.30 751.10 L 666.90 740.90 L 666.00 730.50 L 664.40 717.70 L 662.10 704.90 L 659.20 691.90 L 655.60 678.90 L 651.50 666.10 L 646.70 653.20 L 641.20 640.40 L 635.10 627.40 L 628.50 614.80 L 621.30 602.50 L 613.70 590.40 L 605.40 578.50 L 596.80 567.00 L 587.60 555.80 L 578.00 544.90 L 567.90 534.30 L 557.40 524.10 L 546.60 514.40 L 535.30 504.90 L 523.60 495.90 L 511.60 487.30 L 499.20 479.20 L 486.50 471.50 L 469.80 462.00 L 466.80 459.40 L 464.20 456.60 L 462.10 453.40 L 460.50 450.10 L 459.50 446.70 L 459.10 443.20 L 459.40 439.80 L 460.20 436.50 L 472.40 404.50 L 425.80 470.60 L 413.50 502.30 L 412.50 507.30 L 412.90 512.50 L 413.90 515.90 L 415.50 519.10 L 417.60 522.30 L 420.20 525.20 L 423.20 527.80 L 452.50 545.00 L 464.80 553.10 L 476.80 561.70 L 488.50 570.80 L 499.80 580.20 L 510.60 590.00 L 521.10 600.20 L 531.20 610.80 L 540.80 621.60 L 549.90 632.80 L 558.60 644.40 L 566.80 656.20 L 574.50 668.30 L 581.70 680.70 L 588.40 693.30 L 594.50 706.20 L 599.90 719.10 L 604.60 731.90 L 608.80 744.70 L 612.40 757.80 L 615.30 770.80 L 617.50 783.60 L 619.20 796.40 L 620.10 806.70 L 620.50 816.90 L 620.60 827.00 L 620.20 837.00 L 619.40 847.00 L 618.30 856.90 L 616.70 866.70 L 614.60 876.40 L 612.20 885.90 L 608.70 897.80 L 608.60 902.90 L 609.80 907.80 L 610.90 910.20 L 614.00 915.00 L 616.10 917.20 L 620.80 921.00 L 660.60 940.90 L 663.50 942.10 L 669.20 943.50 L 672.10 943.60 L 674.90 943.40 L 677.70 942.70 L 680.40 941.70 L 682.80 940.30 L 684.80 938.50 L 686.50 936.40 L 733.20 870.60 L 731.50 872.70 L 729.50 874.40 L 727.10 875.80 L 724.40 876.90" fill="url(#linearGradient-15)" fill-opacity="0.8" fill-rule="nonzero" group-id="1,3,10,18,19,20" id="Fill-1" node-id="91" stroke="none" target-height="539.1" target-width="320.7" target-x="412.5" target-y="404.5"></path><g node-id="235"><path d="M 483.50 394.80 L 486.40 394.20 L 492.20 394.30 L 498.00 395.80 L 501.00 397.10 L 514.50 404.40 L 527.70 412.20 L 540.60 420.20 L 553.30 428.70 L 565.60 437.50 L 577.70 446.80 L 589.40 456.30 L 600.80 466.20 L 611.90 476.30 L 622.60 486.80 L 633.10 497.60 L 643.10 508.70 L 652.70 520.10 L 662.00 531.70 L 670.90 543.60 L 679.40 555.70 L 687.40 568.10 L 695.00 580.70 L 702.20 593.50 L 709.00 606.50 L 715.30 619.80 L 721.10 633.00 L 726.30 646.30 L 731.00 659.50 L 735.20 672.70 L 738.90 686.20 L 742.10 699.50 L 744.70 712.80 L 746.80 726.00 L 748.40 739.20 L 749.50 752.50 L 750.00 765.60 L 750.10 778.60 L 749.50 791.50 L 748.50 804.30 L 746.90 817.00 L 744.80 829.60 L 742.10 842.00 L 738.90 854.30 L 735.10 866.30 L 734.10 868.70 L 731.10 872.60 L 726.90 875.50 L 724.30 876.60 L 718.70 877.40 L 715.80 877.30 L 710.10 876.00 L 670.30 856.50 L 667.50 854.90 L 662.70 851.10 L 658.90 846.60 L 656.40 841.60 L 655.30 836.60 L 655.40 831.60 L 661.30 810.30 L 663.30 800.60 L 664.90 790.80 L 666.10 780.90 L 666.90 770.90 L 667.30 760.90 L 667.20 750.80 L 666.80 740.60 L 665.90 730.20 L 664.30 717.50 L 662.00 704.60 L 659.10 691.70 L 655.50 678.60 L 651.40 665.80 L 646.60 652.90 L 641.10 640.10 L 635.00 627.20 L 628.40 614.50 L 621.20 602.20 L 613.60 590.10 L 605.30 578.20 L 596.70 566.70 L 587.50 555.50 L 577.90 544.60 L 567.80 534.10 L 557.40 523.90 L 546.50 514.10 L 535.20 504.80 L 523.50 495.70 L 511.50 487.20 L 499.20 479.10 L 486.50 471.40 L 469.80 462.00 L 466.80 459.40 L 464.20 456.60 L 462.10 453.40 L 460.50 450.10 L 459.50 446.70 L 459.10 443.20 L 459.40 439.80 L 460.20 436.50 L 473.60 402.50 L 474.90 400.50 L 476.70 398.60 L 480.90 395.80 L 483.50 394.80" fill="url(#linearGradient-16)" fill-opacity="0.8" fill-rule="nonzero" group-id="1,3,10,18,19,20,21" id="Fill-3" node-id="93" stroke="none" target-height="483.2" target-width="290.99997" target-x="459.1" target-y="394.2"></path></g><path d="M 441.90 499.20 L 444.80 498.60 L 447.80 498.40 L 453.90 499.30 L 459.60 501.70 L 472.30 509.10 L 484.50 516.90 L 496.30 525.10 L 507.60 533.70 L 518.50 542.90 L 528.90 552.30 L 538.80 562.10 L 548.10 572.20 L 557.10 582.80 L 565.50 593.50 L 573.20 604.40 L 580.50 615.60 L 587.20 627.20 L 593.40 638.80 L 598.90 650.50 L 603.80 662.40 L 608.20 674.50 L 611.90 686.70 L 615.00 698.80 L 617.40 711.00 L 618.90 720.90 L 620.00 730.70 L 620.60 740.40 L 620.80 750.20 L 620.50 759.90 L 619.80 769.60 L 618.60 779.20 L 617.00 788.70 L 614.90 798.10 L 612.30 807.50 L 611.30 809.90 L 609.90 812.10 L 608.30 814.00 L 606.30 815.70 L 601.50 818.00 L 598.60 818.60 L 592.80 818.70 L 587.00 817.30 L 547.20 797.80 L 543.60 795.70 L 540.50 793.30 L 537.90 790.50 L 535.70 787.50 L 534.00 784.30 L 532.80 781.00 L 532.10 777.50 L 532.10 774.20 L 536.00 756.40 L 537.00 749.00 L 537.60 741.60 L 537.80 734.00 L 537.50 724.70 L 536.70 715.30 L 535.20 705.80 L 533.10 696.30 L 530.50 686.90 L 527.30 677.60 L 523.60 668.40 L 519.30 659.20 L 514.50 650.20 L 509.30 641.40 L 503.50 632.80 L 497.20 624.30 L 490.50 616.20 L 483.40 608.40 L 475.70 600.80 L 467.60 593.40 L 459.20 586.50 L 450.40 580.00 L 441.10 573.90 L 431.40 568.10 L 427.80 565.70 L 424.80 562.80 L 422.20 559.70 L 420.10 556.30 L 419.00 553.70 L 417.80 548.50 L 417.80 545.80 L 418.20 543.30 L 431.10 508.80 L 433.40 504.60 L 435.10 502.80 L 437.10 501.30 L 439.30 500.10 L 441.90 499.20" fill="url(#linearGradient-17)" fill-opacity="0.8" fill-rule="nonzero" group-id="1,3,10,18,19,20" id="Fill-5" node-id="94" stroke="none" target-height="320.30002" target-width="203" target-x="417.8" target-y="498.4"></path><path d="M 601.50 818.00 L 598.60 818.60 L 592.80 818.70 L 587.00 817.30 L 584.10 816.00 L 547.20 797.80 L 543.60 795.70 L 540.50 793.30 L 537.90 790.50 L 535.70 787.50 L 534.00 784.30 L 532.80 781.00 L 532.10 777.50 L 532.10 774.20 L 536.00 756.40 L 537.00 749.00 L 537.60 741.60 L 537.80 734.00 L 537.50 724.70 L 536.70 715.30 L 535.20 705.80 L 533.10 696.30 L 530.50 686.90 L 527.30 677.60 L 523.60 668.40 L 519.30 659.20 L 514.50 650.20 L 509.30 641.40 L 503.50 632.80 L 497.20 624.30 L 490.50 616.20 L 483.40 608.40 L 475.70 600.80 L 467.60 593.40 L 459.20 586.50 L 450.40 580.00 L 441.10 573.90 L 431.40 568.10 L 427.80 565.70 L 424.80 562.80 L 422.20 559.70 L 420.10 556.30 L 419.00 553.70 L 417.80 548.50 L 417.80 545.80 L 418.20 543.30 L 431.10 508.80 L 384.50 574.80 L 372.30 606.80 L 371.60 609.30 L 371.30 611.90 L 371.70 617.10 L 373.50 622.40 L 375.60 625.80 L 378.20 628.90 L 381.20 631.80 L 403.80 646.10 L 412.60 652.60 L 421.00 659.50 L 429.10 666.90 L 436.70 674.50 L 443.90 682.30 L 450.60 690.40 L 456.90 698.90 L 462.70 707.50 L 467.90 716.30 L 472.70 725.20 L 477.00 734.50 L 480.70 743.70 L 483.90 753.00 L 486.50 762.40 L 488.60 771.90 L 490.00 781.30 L 490.90 790.80 L 491.20 800.10 L 491.00 807.70 L 490.40 815.10 L 489.40 822.50 L 485.50 840.30 L 485.50 843.60 L 486.20 847.00 L 487.30 850.40 L 489.00 853.60 L 491.30 856.60 L 493.90 859.40 L 497.00 861.80 L 500.60 863.80 L 537.80 882.00 L 540.60 883.20 L 546.40 884.60 L 552.30 884.60 L 555.20 884.00 L 557.90 883.00 L 560.20 881.60 L 562.10 879.90 L 563.80 877.80 L 610.50 812.00 L 608.70 813.90 L 606.60 815.60 L 604.20 817.00 L 601.50 818.00" fill="url(#linearGradient-18)" fill-opacity="0.8" fill-rule="nonzero" group-id="1,3,10,18,19,20" id="Fill-7" node-id="95" stroke="none" target-height="375.8" target-width="239.20001" target-x="371.3" target-y="508.8"></path><g node-id="236"><path d="M 476.20 723.30 L 429.50 789.20 L 426.40 793.00 L 422.90 796.50 L 418.80 799.70 L 414.30 802.40 L 409.40 804.70 L 404.10 806.60 L 399.50 807.60 L 390.30 808.50 L 385.60 808.40 L 379.30 807.70 L 373.10 806.50 L 366.80 804.60 L 360.80 802.30 L 354.90 799.40 L 349.20 796.00 L 343.70 792.10 L 338.70 787.90 L 333.90 783.10 L 329.60 778.00 L 325.80 772.50 L 322.50 766.60 L 320.30 761.70 L 318.60 756.90 L 317.30 752.20 L 316.50 747.60 L 316.10 742.80 L 316.10 738.30 L 316.50 733.90 L 317.30 729.60 L 318.50 725.50 L 320.00 721.50 L 321.90 717.80 L 370.70 648.50 L 368.40 652.00 L 366.50 655.80 L 364.90 659.80 L 363.70 664.00 L 363.00 668.30 L 362.60 672.70 L 362.60 677.30 L 363.00 682.00 L 363.80 686.60 L 365.00 691.30 L 366.70 696.00 L 368.90 700.90 L 372.20 706.80 L 376.10 712.30 L 380.40 717.40 L 385.10 722.10 L 390.20 726.40 L 395.60 730.30 L 401.30 733.70 L 407.20 736.50 L 413.30 738.90 L 419.60 740.70 L 425.80 741.90 L 432.10 742.50 L 436.90 742.60 L 441.50 742.30 L 450.70 740.50 L 456.10 738.70 L 461.00 736.50 L 465.50 733.80 L 469.60 730.60 L 473.10 727.10 L 476.20 723.30" fill="url(#linearGradient-19)" fill-opacity="0.8" fill-rule="nonzero" group-id="1,3,10,18,19,20,22" id="Fill-9" node-id="97" stroke="none" target-height="160" target-width="160.1" target-x="316.1" target-y="648.5"></path></g><path d="M 396.10 631.10 L 405.30 629.40 L 409.90 629.10 L 414.70 629.20 L 421.00 629.80 L 427.20 631.00 L 433.50 632.80 L 439.60 635.10 L 445.40 638.00 L 451.20 641.40 L 456.60 645.20 L 461.70 649.50 L 466.40 654.20 L 470.70 659.40 L 474.50 664.90 L 477.90 670.80 L 480.40 676.60 L 482.30 682.30 L 483.60 687.80 L 484.20 693.20 L 484.30 698.80 L 483.90 704.00 L 482.90 709.00 L 481.30 713.90 L 479.20 718.50 L 476.60 722.80 L 473.50 726.70 L 469.90 730.40 L 465.90 733.60 L 461.50 736.30 L 456.50 738.60 L 451.00 740.50 L 446.40 741.60 L 437.20 742.50 L 432.40 742.50 L 426.20 741.90 L 419.90 740.60 L 413.60 738.80 L 407.60 736.50 L 401.70 733.60 L 395.90 730.30 L 390.50 726.40 L 385.40 722.10 L 380.70 717.40 L 376.40 712.30 L 372.60 706.80 L 369.20 700.90 L 366.70 695.00 L 364.80 689.40 L 363.50 683.80 L 362.90 678.40 L 362.80 672.90 L 363.20 667.60 L 364.20 662.60 L 365.80 657.80 L 367.90 653.20 L 370.50 648.90 L 373.60 644.90 L 377.20 641.30 L 381.20 638.10 L 385.60 635.30 L 390.60 633.00 L 396.10 631.10" fill="url(#linearGradient-20)" fill-opacity="0.8" fill-rule="nonzero" group-id="1,3,10,18,19,20" id="Fill-11" node-id="98" stroke="none" target-height="113.400024" target-width="121.5" target-x="362.8" target-y="629.1"></path></g></g></g></g></g></g></svg>