<svg xmlns:xlink="http://www.w3.org/1999/xlink" xmlns="http://www.w3.org/2000/svg" version="1.1" viewBox="0 0 1024 1024" height="1024px" width="1024px">
    <title>警告提醒</title>
    <g fill-rule="evenodd" fill="none" stroke-width="1" stroke="none" id="警告提醒">
        <polygon points="512 192 195.2 636.8 828.8 636.8" fill="#EDEBE9" id="路径-115"></polygon>
        <path transform="translate(451.282, 605.6802) rotate(13) translate(-451.282, -605.6802)" fill="#FFFFFF" stroke-width="3.2" stroke="#4A4B48" id="三角形" d="M451.282016,582.123331 L480.456111,630.746823 L422.10792,630.746823 L451.282016,582.123331 Z"></path>
        <rect height="60.8" width="60.8" y="577.6" x="353.6" fill="#FFFFFF" stroke-width="3.2" stroke="#4A4B48" id="矩形"></rect>
        <path fill="#FFFFFF" stroke-width="3.2" stroke="#000000" id="路径-120" d="M574.583811,357.772205 L528.43766,387.84885 C528.43766,414.952557 528.43766,428.50441 528.43766,428.50441 C528.43766,428.50441 551.225106,414.371005 596.8,386.104195 L574.583811,357.772205 Z"></path>
        <path transform="translate(369.2769, 552.0689) rotate(-30) translate(-369.2769, -552.0689)" fill="#D8D8D8" stroke-width="3.2" stroke="#979797" id="形状结合" d="M383.67692,521.71032 L383.676,582.426 L383.255231,582.402808 C375.743241,581.909692 368.976359,578.687768 363.936112,573.719115 L363.602664,573.385295 C358.206147,567.898771 354.87692,560.37264 354.87692,552.068938 C354.87692,543.67421 358.279555,536.07421 363.780873,530.572892 C368.930479,525.423286 375.918997,522.112593 383.67692,521.71032 Z"></path>
        <rect height="249.6" width="86.4" y="294.4" x="464" fill="#3B58E6" id="矩形"></rect>
        <circle r="43.2" cy="593.6" cx="507.2" fill="#5B7DEB" id="椭圆形"></circle>
        <path fill="#000000" id="路径-116" d="M598.290058,300.33329 C617.017346,297.243384 629.440433,309.879255 635.559319,338.240901 C654.45837,335.076774 667.71742,338.36275 675.336467,348.09883 C682.955514,357.83491 685.288494,369.057548 682.335407,381.766743 C699.420032,383.741975 705.761319,391.529319 701.359268,405.128773 C694.756193,425.527954 608.403262,425.527954 608.403262,425.527954 C608.403262,425.527954 575.355341,419.2 570.777404,372.185793 C566.199467,325.171585 584.394893,302.62592 598.290058,300.33329 Z"></path>
        <rect height="12.8" width="9.6" y="329.6" x="591.36" fill="#FFFFFF" id="矩形"></rect>
        <path transform="translate(598.2539, 322.0363) rotate(-45) translate(-598.2539, -322.0363)" fill="#FFFFFF" id="椭圆形" d="M601.163153,333.236278 C609.999709,333.236278 611.344567,327.203281 611.344567,321.017692 C611.344567,314.832102 609.999709,310.836278 601.163153,310.836278 C592.326597,310.836278 585.163153,315.850689 585.163153,322.036278 C585.163153,328.221867 592.326597,333.236278 601.163153,333.236278 Z"></path>
        <path fill="#FFFFFF" id="路径-121" d="M579.963944,352.693783 C588.877503,339.730295 598.281712,335.071037 608.17657,338.716008 C618.071427,342.36098 608.487517,352.825475 579.42484,370.109493 L579.963944,352.693783 Z"></path>
        <g fill-rule="nonzero" transform="translate(720, 521.6)" id="编组">
            <path fill="#282828" id="形状结合" d="M43.1965065,8.11155469e-05 C44.5590639,-0.0092863872 45.7955534,0.793399388 46.3378673,2.03942524 C49.5994048,9.59472234 57.1914926,28.86463 57.1914926,44.6131898 C57.1853043,48.683235 56.673691,52.7368645 55.6683238,56.6816066 C58.4267964,53.3608419 61.4200326,49.2697823 63.6950039,44.8875985 C64.1502677,44.0623312 65.1827381,43.7495863 66.0216645,44.1828314 C66.860591,44.6160766 67.1997955,45.6371929 66.7860583,46.4839058 C62.5351598,54.667418 56.1168901,61.7017561 52.7016384,65.1381348 C52.554911,65.4599035 52.4095812,65.7788864 52.2558669,66.0978692 L61.1084118,66.0978692 C75.245933,53.358056 75.929263,33.4989355 75.5519642,25.4742183 C75.5310032,25.4602888 75.4946707,25.4449665 75.4499538,25.4449665 C75.4010448,25.4393948 75.3828786,25.4588959 75.3619175,25.47979 L62.7783079,37.8323664 C62.0937532,38.5047333 60.9920039,38.496626 60.3174821,37.8142582 C59.6429603,37.1318904 59.6510936,36.0336609 60.3356483,35.361294 L72.9206554,23.0073246 C73.9439791,22.009682 75.459719,21.7042298 76.7914603,22.2272792 C78.1078134,22.7412734 78.9644212,23.9183062 79.0300991,25.298708 C79.4046029,33.2955665 78.7757718,52.4192157 66.0594089,66.0950834 L79.6798912,66.0950834 C83.3878373,66.1010733 86.3923033,69.0934493 86.4,72.7881516 C86.3961475,76.4843524 83.3907336,79.4795416 79.682686,79.4826127 L78.3523589,79.4826127 L70.5618399,112.778016 C69.8018135,116.076676 66.8514176,118.410944 63.4560481,118.399957 L22.9411571,118.399957 C19.547122,118.411498 16.5976717,116.078216 15.83816,112.780801 L8.04764102,79.4853987 L6.71591644,79.4853987 C3.00873335,79.4807939 0.00461953312,76.4862772 0,72.7909375 C0.00385120426,69.0952799 3.0084146,66.1003152 6.71591644,66.0964763 L20.3322066,66.0964763 C7.61724105,52.4220015 6.98561518,33.2941736 7.3615164,25.298708 C7.42719422,23.9183062 8.28659677,22.7412734 9.60015518,22.2272792 C10.9318965,21.7042298 12.4476364,22.009682 13.4709601,23.0073246 L26.0783257,35.3738304 C26.5214046,35.8087755 26.6980422,36.446306 26.5417009,37.0462703 C26.3853596,37.6462346 25.9197913,38.1174838 25.3203711,38.282503 C24.7209509,38.4475221 24.078745,38.2812409 23.6356661,37.8462957 L11.0310954,25.4770041 C11.0101344,25.45611 10.9863785,25.4380019 10.9430591,25.4421807 C10.9070163,25.4437111 10.8719378,25.4542489 10.8410487,25.4728253 C10.4665448,33.5086861 11.1512721,53.358056 25.2818062,66.0964763 L34.1343512,66.0964763 C33.9820342,65.7788864 33.835307,65.4571176 33.6899771,65.1367418 C30.2747254,61.7003632 23.8550583,54.6646321 19.6055572,46.4811199 C19.3930199,46.0727805 19.3520982,45.5969564 19.4918107,45.1585161 C19.6315233,44.7200757 19.9404022,44.3550074 20.3503727,44.1437696 C20.7600209,43.9319113 21.23737,43.8911203 21.6772155,44.0303865 C22.117061,44.1696527 22.4832994,44.4775448 22.6952142,44.8862056 C24.9743778,49.2683894 27.9648191,53.358056 30.7232917,56.6788208 C29.7199567,52.7256621 29.2001229,48.6666401 29.2001229,44.6104039 C29.2001229,28.8618441 36.7894159,9.59193636 40.0523508,2.03803231 C40.5861586,0.799710168 41.8214625,8.11155469e-05 43.1965065,8.11155469e-05 Z M43.1965065,3.53265506 C39.9894677,10.9709454 32.6810525,29.5903509 32.6810525,44.6104039 C32.6810525,53.7912599 35.4800497,61.232336 38.0233223,66.0964763 L41.4567403,66.0964763 L41.4567403,32.3734414 C41.4941729,31.4426893 42.2620213,30.707363 43.1965064,30.707363 C44.1309916,30.707363 44.89884,31.4426893 44.9362726,32.3734414 L44.9362726,66.0992622 L48.3696906,66.0992622 C50.9129632,61.2337289 53.7133578,53.7940458 53.7133578,44.6145827 C53.7133578,29.5917437 46.4021478,10.9709453 43.1965065,3.53265506 Z"></path>
            <path fill="#FFFFFF" id="路径" d="M79.6798912,76.0141965 L25.2175257,76.0141965 C24.2837906,76.0515095 23.5461077,76.8169049 23.5461077,77.7484046 C23.5461077,78.6799044 24.2837906,79.4452998 25.2175257,79.4826127 L74.7750084,79.4826127 L67.1703439,111.989613 C66.7730729,113.715102 65.2292609,114.935793 63.4532533,114.928743 L22.9425545,114.928743 C21.166909,114.934751 19.6236704,113.714514 19.2254637,111.989613 L11.6180045,79.4826127 L17.0832457,79.4826127 C18.0169808,79.4452998 18.7546637,78.6799044 18.7546637,77.7484046 C18.7546637,76.8169049 18.0169808,76.0515095 17.0832457,76.0141965 L6.71451904,76.0141965 C4.92807094,76.0118943 3.48044441,74.5688925 3.47813485,72.7881516 C3.48044255,71.0079535 4.92721928,69.5651758 6.71312164,69.5621066 L79.6770965,69.5621066 C81.4635446,69.5644088 82.9111711,71.0074106 82.9134806,72.7881516 C82.9119426,74.5681243 81.4655667,76.0111256 79.6798912,76.0141965 L79.6798912,76.0141965 Z"></path>
        </g>
        <path fill="#FFFFFF" stroke-width="3.2" stroke="#000000" id="路径-117" d="M586.162048,357.300349 L586.162048,343.562293 C578.228622,348.313319 573.77622,354.001447 572.804843,360.626678 C570.819427,374.168112 574.755396,383.817343 584.612751,389.574373 L586.162048,414.4 L636.384486,395.734917 L615.429984,373.065315 C636.14052,394.212655 649.644456,408.855694 655.941793,416.99443 C667.826679,432.354568 672.856734,447.28418 672.856734,447.28418 C672.856734,447.28418 669.850675,471.548957 676.393939,469.155366 C680.756115,467.55964 682.441151,463.718707 681.449046,457.632569 C685.305571,469.132057 688.65467,474.290578 691.496345,473.108132 C694.33802,471.925686 692.917182,465.842921 687.233833,454.859837 C695.213221,465.314834 699.669233,470.08001 700.601871,469.155366 C702.000827,467.768401 693.007061,451.315795 693.007061,451.315795 C693.007061,451.315795 705.289251,466.154886 708.286941,463.025552 C710.285401,460.93933 706.84478,455.692206 697.965078,447.28418 C708.943632,455.16973 714.014906,457.694949 713.178901,454.859837 C712.558327,452.75531 684.54503,414.4 658.707791,379.978912 C632.870552,345.557824 606.935716,336.525092 606.935716,336.525092 C606.935716,336.525092 600.01116,343.450178 586.162048,357.300349 Z"></path>
        <path fill="#FFFFFF" stroke-width="3.2" stroke="#000000" id="路径-119" d="M612.527773,473.273506 C612.527773,473.273506 615.612574,520.130812 621.782175,613.845425 C604.46995,623.211596 593.863387,629.278321 589.962486,632.045601 C584.841523,635.678387 586.517808,638.861792 586.517808,638.861792 C586.517808,638.861792 606.180393,638.861792 645.505563,638.861792 C645.505563,632.829603 644.661335,628.346527 642.972879,625.412564 C640.440194,621.01162 628.24495,613.845425 628.24495,613.845425 C628.24495,613.845425 646.28983,613.139041 648.872078,596.96953 C650.095378,589.309479 649.14324,558.827457 648.872078,528.146854 C648.570847,494.06414 648.872078,459.896219 648.872078,459.896219 C648.872078,459.896219 612.527773,473.273506 612.527773,473.273506 Z"></path>
        <path fill="#FFFFFF" stroke-width="3.2" stroke="#000000" id="路径-118" d="M601.177452,408.847023 L601.6,435.505678 L614.76309,433.499806 C581.731336,438.078219 557.118016,443.986451 540.923129,451.224503 C524.728243,458.462554 508.420895,468.285243 492.001087,480.692569 L494.270986,512 C505.620005,520.970035 514.060882,524.170035 519.593617,521.6 C536.650512,513.676827 536.120401,491.296891 565.603111,478.003543 C595.085821,464.710195 604.267649,481.253685 636.384486,468.015346 C657.795711,459.189787 656.39114,435.629304 632.170772,397.333897 L601.177452,408.847023 Z"></path>
        <rect height="249.6" width="48" y="294.4" x="464" fill="#5B7DEB" id="矩形"></rect>
    </g>
</svg>