<?xml version="1.0" standalone="no"?><!DOCTYPE svg PUBLIC "-//W3C//DTD SVG 1.1//EN" "http://www.w3.org/Graphics/SVG/1.1/DTD/svg11.dtd"><svg height="1024" node-id="1" sillyvg="true" template-height="1024" template-width="1024" version="1.1" viewBox="0 0 1024 1024" width="1024" xmlns="http://www.w3.org/2000/svg" xmlns:xlink="http://www.w3.org/1999/xlink"><defs node-id="30"></defs><g node-id="32"><path d="M 329.90 358.80 L 312.30 394.00 L 302.00 415.70 L 296.70 428.10 L 294.50 434.20 L 294.00 436.70 L 296.40 447.60 L 301.50 465.80 L 311.80 500.20 L 329.90 558.40 L 312.00 603.40 L 654.20 603.40 L 733.10 487.80 L 639.60 325.00 L 329.90 358.80 Z" fill="#ffffff" fill-rule="evenodd" group-id="1" id="路径-48" node-id="6" stroke="none" target-height="278.40002" target-width="439.09998" target-x="294" target-y="325"></path><path d="M 510.40 406.40 L 514.60 406.60 L 522.30 408.20 L 529.50 411.20 L 535.80 415.50 L 541.30 421.00 L 545.60 427.30 L 548.60 434.50 L 550.20 442.20 L 550.40 446.40 L 550.10 451.00 L 549.40 455.30 L 548.20 459.40 L 546.60 463.40 L 544.60 467.10 L 542.20 470.60 L 539.50 473.80 L 536.50 476.70 L 533.10 479.30 L 529.50 481.50 L 525.70 483.40 L 521.60 484.80 L 521.60 515.20 L 553.60 515.20 L 557.10 515.40 L 560.40 516.10 L 563.60 517.20 L 566.50 518.70 L 569.20 520.50 L 571.70 522.70 L 573.90 525.20 L 575.70 527.90 L 577.20 530.80 L 578.30 534.00 L 579.00 537.30 L 579.20 540.80 L 579.20 572.80 L 441.60 572.80 L 441.60 540.80 L 441.80 537.30 L 442.50 534.00 L 443.60 530.80 L 445.10 527.90 L 446.90 525.20 L 449.10 522.70 L 451.60 520.50 L 454.30 518.70 L 457.20 517.20 L 460.40 516.10 L 463.70 515.40 L 467.20 515.20 L 499.20 515.20 L 499.20 484.80 L 495.10 483.40 L 491.30 481.50 L 487.70 479.30 L 484.30 476.70 L 481.30 473.80 L 478.60 470.60 L 476.20 467.10 L 474.20 463.40 L 472.60 459.40 L 471.40 455.30 L 470.70 451.00 L 470.40 446.40 L 470.60 442.20 L 472.20 434.50 L 475.20 427.30 L 479.50 421.00 L 485.00 415.50 L 491.30 411.20 L 498.50 408.20 L 506.20 406.60 L 510.40 406.40 Z" fill="#3251e6" fill-rule="evenodd" group-id="1" id="形状结合" node-id="7" stroke="none" target-height="166.4" target-width="137.6" target-x="441.6" target-y="406.4"></path><path d="M 441.60 576.00 L 579.20 576.00 L 579.20 598.40 L 441.60 598.40 Z" fill="#3d5bec" fill-rule="evenodd" group-id="1" id="矩形" node-id="8" stroke="none" target-height="22.400024" target-width="137.6" target-x="441.6" target-y="576"></path><path d="M 337.30 373.60 L 387.50 465.90 L 376.40 512.00 L 397.10 512.00 L 406.30 500.80 L 414.50 491.60 L 421.60 484.30 L 427.90 478.50 L 433.40 474.10 L 438.20 470.80 L 442.40 468.50 L 446.00 467.00 L 449.20 466.20 L 452.10 465.90 L 454.70 466.20 L 456.70 466.90 L 458.20 468.00 L 459.20 469.50 L 459.90 471.50 L 460.10 474.30 L 459.70 477.90 L 458.40 482.80 L 456.10 489.10 L 452.30 497.10 L 446.80 507.30 L 459.30 506.20 L 469.10 506.00 L 476.80 506.30 L 482.50 507.00 L 486.80 508.10 L 489.80 509.50 L 492.00 511.00 L 493.40 512.60 L 494.20 514.40 L 494.50 516.50 L 494.20 519.30 L 493.50 521.90 L 492.30 524.30 L 490.50 526.50 L 488.20 528.70 L 485.10 530.70 L 481.30 532.60 L 476.40 534.30 L 470.40 535.80 L 475.90 535.00 L 480.50 534.90 L 484.10 535.20 L 487.00 535.90 L 489.30 537.00 L 491.10 538.40 L 492.60 540.10 L 493.60 542.20 L 494.30 544.70 L 494.50 547.70 L 494.30 550.80 L 493.60 553.20 L 492.60 555.30 L 491.10 556.90 L 489.30 558.20 L 487.00 559.10 L 484.20 559.70 L 480.50 559.90 L 476.00 559.50 L 470.40 558.40 L 477.40 559.10 L 482.80 560.10 L 486.90 561.50 L 489.90 563.00 L 492.00 564.70 L 493.40 566.60 L 494.20 568.60 L 494.50 571.00 L 494.30 573.00 L 493.60 574.80 L 492.50 576.50 L 490.90 577.90 L 488.70 579.20 L 485.70 580.40 L 481.80 581.30 L 476.80 581.90 L 470.40 582.10 L 477.70 582.50 L 483.20 583.20 L 487.20 584.30 L 490.10 585.50 L 492.20 586.90 L 493.50 588.40 L 494.20 590.00 L 494.50 591.80 L 494.20 593.70 L 493.50 595.30 L 492.20 596.80 L 490.20 598.10 L 487.20 599.30 L 483.20 600.30 L 477.70 601.00 L 470.40 601.20 L 290.40 596.30 L 287.90 596.10 L 281.70 594.50 L 277.80 592.90 L 273.30 590.50 L 267.60 586.10 L 264.70 583.00 L 262.10 579.70 L 259.60 575.80 L 257.40 571.00 L 255.60 566.10 L 254.20 560.20 L 253.20 553.40 L 252.80 542.60 L 253.10 536.20 L 254.80 522.20 L 256.30 514.60 L 261.00 496.80 L 272.50 460.10 L 282.50 431.90 L 287.20 420.10 L 291.70 410.10 L 296.30 400.70 L 300.90 392.40 L 305.80 384.50 L 316.60 369.10 L 337.30 342.80 L 341.50 338.00 L 346.20 333.50 L 351.50 329.30 L 357.50 325.30 L 364.10 321.70 L 371.40 318.30 L 379.60 315.20 L 388.70 312.40 L 398.70 310.00 L 409.70 308.00 L 421.80 306.40 L 435.20 305.30 L 449.80 304.70 L 465.80 304.70 L 483.30 305.30 L 502.40 306.60 L 502.40 280.30 L 515.20 280.30 L 515.20 307.10 L 531.00 305.50 L 545.90 304.60 L 559.80 304.30 L 572.90 304.60 L 585.20 305.50 L 596.80 306.90 L 607.60 308.80 L 617.70 311.20 L 627.30 314.00 L 636.20 317.30 L 644.60 321.10 L 652.50 325.20 L 659.90 329.80 L 666.80 334.80 L 673.30 340.20 L 679.40 346.00 L 685.00 352.30 L 690.30 359.10 L 698.20 370.50 L 705.70 382.30 L 712.70 394.40 L 719.20 406.80 L 725.10 419.30 L 730.50 431.90 L 735.30 444.70 L 739.40 457.20 L 742.80 469.60 L 745.00 479.00 L 748.10 497.00 L 748.90 505.60 L 749.40 514.30 L 749.40 522.60 L 748.90 530.50 L 748.00 538.00 L 746.50 545.60 L 744.50 552.60 L 742.10 559.10 L 739.20 565.10 L 736.10 570.10 L 732.70 574.70 L 728.90 578.90 L 724.60 582.90 L 720.10 586.50 L 715.20 589.60 L 710.10 592.40 L 704.60 594.90 L 698.90 596.80 L 693.10 598.30 L 687.00 599.40 L 680.70 600.00 L 674.40 600.10 L 668.10 599.70 L 661.50 598.70 L 654.90 597.20 L 648.40 595.20 L 642.00 592.60 L 635.40 589.40 L 628.80 585.50 L 622.70 581.20 L 616.50 576.20 L 610.40 570.50 L 604.40 563.90 L 595.70 552.50 L 587.30 538.90 L 583.30 531.20 L 572.80 509.30 L 564.70 491.00 L 559.80 479.10 L 552.80 459.60 L 550.20 450.30 L 548.40 442.20 L 547.20 435.20 L 546.70 424.90 L 547.60 416.30 L 548.50 412.20 L 551.50 404.80 L 553.40 401.40 L 556.50 397.10 L 560.10 392.90 L 564.40 388.80 L 568.30 385.80 L 572.10 383.40 L 575.90 381.70 L 579.60 380.60 L 583.30 380.00 L 587.10 380.00 L 590.90 380.50 L 594.90 381.60 L 599.00 383.30 L 603.40 385.80 L 608.00 389.00 L 612.80 393.10 L 617.90 398.30 L 623.40 404.60 L 623.40 440.80 L 667.30 507.30 L 631.30 453.40 L 724.70 431.70" fill="#ffffff" fill-rule="evenodd" group-id="1" id="路径-45" node-id="9" stroke="#000000" stroke-linecap="butt" stroke-width="3.2" target-height="320.90002" target-width="496.60004" target-x="252.8" target-y="280.3"></path><path d="M 779.20 289.60 L 779.00 291.30 L 778.40 292.80 L 777.30 294.10 L 776.00 295.20 L 774.50 295.80 L 772.80 296.00 L 771.10 295.80 L 769.60 295.20 L 768.30 294.10 L 767.20 292.80 L 766.60 291.30 L 766.40 289.60 L 766.60 287.90 L 767.20 286.40 L 768.30 285.10 L 769.60 284.00 L 771.10 283.40 L 772.80 283.20 L 774.50 283.40 L 776.00 284.00 L 777.30 285.10 L 778.40 286.40 L 779.00 287.90 L 779.20 289.60 Z" fill="#ffffff" fill-rule="evenodd" group-id="1" id="椭圆形" node-id="10" stroke="#2b4be4" stroke-linecap="butt" stroke-width="3.2" target-height="12.799988" target-width="12.799988" target-x="766.4" target-y="283.2"></path><path d="M 382.40 257.60 L 382.20 259.30 L 381.50 260.80 L 380.50 262.10 L 379.20 263.10 L 377.70 263.80 L 376.00 264.00 L 374.30 263.80 L 372.80 263.10 L 371.50 262.10 L 370.50 260.80 L 369.80 259.30 L 369.60 257.60 L 369.80 255.90 L 370.50 254.40 L 371.50 253.10 L 372.80 252.10 L 374.30 251.40 L 376.00 251.20 L 377.70 251.40 L 379.20 252.10 L 380.50 253.10 L 381.50 254.40 L 382.20 255.90 L 382.40 257.60 Z" fill="#ffffff" fill-rule="evenodd" group-id="1" id="椭圆形备份-6" node-id="11" stroke="#2b4be4" stroke-linecap="butt" stroke-width="3.2" target-height="12.800003" target-width="12.799988" target-x="369.6" target-y="251.2"></path><path d="M 488.00 259.20 L 487.20 263.10 L 486.30 264.90 L 483.50 267.70 L 479.70 269.70 L 475.20 270.40 L 470.70 269.70 L 466.90 267.70 L 464.10 264.90 L 462.60 261.20 L 462.40 259.20 L 462.60 257.20 L 463.20 255.30 L 465.40 252.00 L 468.70 249.50 L 470.70 248.70 L 475.20 248.00 L 479.70 248.70 L 483.50 250.70 L 486.30 253.50 L 487.20 255.30 L 488.00 259.20 Z" fill="#ffffff" fill-rule="evenodd" group-id="1" id="椭圆形" node-id="12" stroke="#000000" stroke-linecap="butt" stroke-width="3.2" target-height="22.399994" target-width="25.600006" target-x="462.4" target-y="248"></path><path d="M 558.40 259.20 L 557.60 263.10 L 556.70 264.90 L 553.90 267.70 L 550.10 269.70 L 545.60 270.40 L 541.10 269.70 L 537.30 267.70 L 534.50 264.90 L 533.00 261.20 L 532.80 259.20 L 533.00 257.20 L 533.60 255.30 L 535.80 252.00 L 539.10 249.50 L 541.10 248.70 L 545.60 248.00 L 550.10 248.70 L 553.90 250.70 L 556.70 253.50 L 557.60 255.30 L 558.40 259.20 Z" fill="#ffffff" fill-rule="evenodd" group-id="1" id="椭圆形备份" node-id="13" stroke="#000000" stroke-linecap="butt" stroke-width="3.2" target-height="22.399994" target-width="25.600037" target-x="532.8" target-y="248"></path><path d="M 548.80 251.20 L 548.00 260.30 L 545.80 268.60 L 542.20 276.30 L 537.60 282.90 L 531.80 288.40 L 525.30 292.50 L 521.80 294.00 L 518.20 295.10 L 514.40 295.80 L 510.40 296.00 L 506.40 295.80 L 502.60 295.10 L 499.00 294.00 L 495.50 292.50 L 492.10 290.60 L 486.00 285.80 L 480.80 279.70 L 476.70 272.60 L 473.70 264.60 L 472.20 255.90 L 472.00 251.20 L 472.20 246.50 L 473.70 237.80 L 476.70 229.80 L 480.80 222.70 L 486.00 216.60 L 489.00 214.00 L 495.50 209.90 L 499.00 208.40 L 502.60 207.30 L 506.40 206.60 L 510.40 206.40 L 514.40 206.60 L 518.20 207.30 L 521.80 208.40 L 525.30 209.90 L 531.80 214.00 L 537.60 219.50 L 542.20 226.10 L 545.80 233.80 L 548.00 242.10 L 548.80 251.20 Z" fill="#ffffff" fill-rule="evenodd" group-id="1" id="椭圆形" node-id="14" stroke="#000000" stroke-linecap="butt" stroke-width="3.2" target-height="89.600006" target-width="76.79999" target-x="472" target-y="206.4"></path><path d="M 524.80 256.00 L 526.00 256.20 L 527.10 256.90 L 527.80 258.00 L 528.00 259.20 L 527.80 263.60 L 527.10 264.70 L 526.00 265.40 L 524.80 265.60 L 523.60 265.40 L 522.50 264.70 L 521.80 263.60 L 521.60 262.40 L 521.80 258.00 L 522.50 256.90 L 523.60 256.20 L 524.80 256.00 Z" fill="#000000" fill-rule="evenodd" group-id="1" id="矩形" node-id="15" stroke="none" target-height="9.600006" target-width="6.4000244" target-x="521.6" target-y="256"></path><path d="M 496.00 256.00 L 497.20 256.20 L 498.30 256.90 L 499.00 258.00 L 499.20 259.20 L 499.00 263.60 L 498.30 264.70 L 497.20 265.40 L 496.00 265.60 L 494.80 265.40 L 493.70 264.70 L 493.00 263.60 L 492.80 262.40 L 493.00 258.00 L 493.70 256.90 L 494.80 256.20 L 496.00 256.00 Z" fill="#000000" fill-rule="evenodd" group-id="1" id="矩形备份" node-id="16" stroke="none" target-height="9.600006" target-width="6.4000244" target-x="492.8" target-y="256"></path><path d="M 515.20 187.20 L 515.00 191.00 L 514.40 194.50 L 513.50 197.70 L 512.10 200.70 L 510.60 203.20 L 508.90 205.20 L 506.80 206.70 L 504.70 207.70 L 502.40 208.00 L 500.10 207.70 L 498.00 206.70 L 495.90 205.20 L 494.20 203.20 L 492.70 200.70 L 491.30 197.70 L 490.40 194.50 L 489.80 191.00 L 489.60 187.20 L 489.80 183.40 L 490.40 179.90 L 491.30 176.70 L 492.70 173.70 L 494.20 171.20 L 495.90 169.20 L 498.00 167.70 L 500.10 166.70 L 502.40 166.40 L 504.70 166.70 L 506.80 167.70 L 508.90 169.20 L 510.60 171.20 L 512.10 173.70 L 513.50 176.70 L 514.40 179.90 L 515.00 183.40 L 515.20 187.20 Z" fill="#000000" fill-rule="evenodd" group-id="1" id="椭圆形" node-id="17" stroke="none" target-height="41.600006" target-width="25.600006" target-x="489.6" target-y="166.4"></path><path d="M 467.00 254.80 L 479.70 254.20 L 489.60 253.30 L 497.00 252.20 L 502.60 251.00 L 511.50 247.70 L 516.30 245.20 L 527.10 238.30 L 529.20 241.40 L 531.80 244.20 L 534.80 246.60 L 538.30 248.70 L 541.10 250.00 L 546.60 251.10 L 548.90 251.30 L 554.10 251.00 L 552.30 240.80 L 549.10 230.90 L 546.80 225.60 L 543.80 220.30 L 541.40 216.90 L 538.70 213.80 L 535.70 210.80 L 532.30 208.20 L 528.50 206.10 L 524.20 204.30 L 517.20 202.80 L 508.80 202.70 L 503.00 203.40 L 497.70 204.60 L 493.00 206.20 L 488.80 208.20 L 485.00 210.60 L 481.60 213.40 L 478.50 216.60 L 475.80 220.30 L 473.40 224.50 L 471.30 229.20 L 469.60 234.50 L 468.30 240.50 L 467.40 247.20 L 467.00 254.80 Z" fill="#000000" fill-rule="evenodd" group-id="1" id="路径-44" node-id="18" stroke="#000000" stroke-linecap="butt" stroke-width="3.2" target-height="52.100006" target-width="87.099976" target-x="467" target-y="202.7"></path><path d="M 559.10 394.80 L 606.40 420.00" fill="none" group-id="1" id="路径-46" node-id="19" stroke="#000000" stroke-linecap="butt" stroke-width="3.2" target-height="25.200012" target-width="47.30005" target-x="559.1" target-y="394.8"></path><path d="M 548.00 413.50 L 584.00 433.60 L 596.30 433.60" fill="none" group-id="1" id="路径-46备份" node-id="20" stroke="#000000" stroke-linecap="butt" stroke-width="3.2" target-height="20.100006" target-width="48.299988" target-x="548" target-y="413.5"></path><path d="M 548.00 439.00 L 583.20 456.80" fill="none" group-id="1" id="路径-47" node-id="21" stroke="#000000" stroke-linecap="butt" stroke-width="3.2" target-height="17.799988" target-width="35.200012" target-x="548" target-y="439"></path><path d="M 177.60 600.00 L 846.40 600.00 L 846.40 603.20 L 177.60 603.20 Z" fill="none" group-id="1" id="矩形" node-id="22" stroke="#000000" stroke-linecap="butt" stroke-width="3.2" target-height="3.2000122" target-width="668.80005" target-x="177.6" target-y="600"></path><path d="M 499.20 280.30 L 502.50 282.50 L 505.60 283.90 L 508.80 284.80 L 512.00 285.00 L 515.20 284.80 L 518.40 283.90 L 521.50 282.50 L 524.80 280.30" fill="none" group-id="1" id="路径-49" node-id="23" stroke="#000000" stroke-linecap="round" stroke-width="3.2" target-height="4.700012" target-width="25.599976" target-x="499.2" target-y="280.3"></path><g node-id="33"><path d="M 612.70 351.60 L 628.10 355.70 L 617.60 395.60 L 611.40 389.80 L 604.80 384.80 L 612.70 351.60 Z" fill="#3c5de7" fill-rule="evenodd" group-id="1,2" id="矩形" node-id="25" stroke="none" target-height="44" target-width="23.299988" target-x="604.8" target-y="351.6"></path><path d="M 711.50 316.80 L 709.50 323.00 L 707.10 328.90 L 704.40 334.40 L 701.20 339.70 L 697.60 344.70 L 693.70 349.30 L 689.40 353.60 L 684.90 357.60 L 680.00 361.20 L 674.90 364.40 L 669.60 367.20 L 664.10 369.60 L 658.40 371.60 L 652.50 373.10 L 646.50 374.20 L 640.40 374.80 L 634.30 374.90 L 628.10 374.50 L 621.80 373.60 L 615.40 372.20 L 609.20 370.30 L 603.30 367.90 L 597.80 365.10 L 592.50 361.90 L 587.50 358.30 L 582.90 354.40 L 578.60 350.20 L 574.60 345.60 L 571.00 340.80 L 567.80 335.70 L 565.00 330.40 L 562.60 324.80 L 560.70 319.10 L 559.10 313.30 L 558.10 307.30 L 557.40 301.20 L 557.30 295.00 L 557.70 288.80 L 558.60 282.60 L 560.00 276.20 L 561.90 270.00 L 564.30 264.10 L 567.10 258.60 L 570.30 253.30 L 573.90 248.30 L 577.80 243.60 L 582.00 239.30 L 586.60 235.40 L 591.50 231.80 L 596.50 228.60 L 601.80 225.80 L 607.40 223.40 L 613.10 221.40 L 618.90 219.90 L 624.90 218.80 L 631.00 218.20 L 637.20 218.10 L 643.40 218.50 L 649.70 219.30 L 656.00 220.80 L 662.20 222.70 L 668.10 225.10 L 673.70 227.90 L 678.90 231.00 L 683.90 234.60 L 688.60 238.60 L 692.90 242.80 L 696.80 247.40 L 700.40 252.20 L 703.60 257.30 L 706.40 262.60 L 708.80 268.10 L 710.80 273.90 L 712.30 279.70 L 713.40 285.70 L 714.00 291.80 L 714.10 298.00 L 713.80 304.20 L 712.90 310.40 L 711.50 316.80 Z" fill="#3251e6" fill-rule="evenodd" group-id="1,2" id="椭圆形" node-id="26" stroke="none" target-height="156.79999" target-width="156.79999" target-x="557.3" target-y="218.1"></path><g node-id="34"><path d="M 680.90 282.70 L 681.40 283.90 L 681.40 286.30 L 680.20 288.40 L 679.20 289.20 L 629.30 318.00 L 626.90 318.70 L 624.50 318.00 L 623.50 317.30 L 601.90 280.20 L 601.40 279.00 L 601.40 276.60 L 602.60 274.50 L 603.70 273.70 L 604.90 273.20 L 607.30 273.20 L 609.40 274.40 L 610.20 275.40 L 628.60 307.30 L 674.40 280.90 L 675.60 280.40 L 678.00 280.40 L 680.10 281.60 L 680.90 282.70 Z" fill="#ffffff" fill-rule="evenodd" group-id="1,2,3" id="形状结合" node-id="27" stroke="none" target-height="45.5" target-width="80" target-x="601.4" target-y="273.2"></path></g></g><path d="M 470.40 305.90 L 472.70 312.80 L 475.30 318.60 L 478.10 323.50 L 481.10 327.70 L 484.30 331.10 L 487.70 333.80 L 491.30 336.00 L 495.20 337.60 L 499.40 338.70 L 503.90 339.30 L 508.80 339.20 L 513.80 338.60 L 518.30 337.50 L 522.60 336.00 L 526.50 334.00 L 530.10 331.50 L 533.50 328.60 L 536.70 325.10 L 539.60 321.10 L 542.30 316.50 L 544.80 311.10 L 547.00 305.00" fill="none" group-id="1" id="路径-50" node-id="28" stroke="#000000" stroke-linecap="butt" stroke-width="3.2" target-height="34.299988" target-width="76.600006" target-x="470.4" target-y="305"></path></g></svg>