<svg xmlns:xlink="http://www.w3.org/1999/xlink" xmlns="http://www.w3.org/2000/svg" version="1.1" viewBox="0 0 1024 1024" height="1024px" width="1024px">
    <title>暂无消息</title>
    <g fill-rule="evenodd" fill="none" stroke-width="1" stroke="none" id="暂无消息">
        <g transform="translate(249.6, 176)" id="编组-2">
            <path fill="#FFFFFF" stroke-width="3.2" stroke="#7C7C7C" id="形状结合" d="M262.877438,379.363032 C270.327411,389.070163 274.755268,401.218034 274.755268,414.4 C274.755268,430.305801 268.308168,444.705801 257.884618,455.129351 C247.461069,465.5529 233.061069,472 217.155268,472 C203.973302,472 191.825431,467.572143 182.1183,460.12217 Z"></path>
            <g transform="translate(148.3553, 48)" id="编组">
                <rect height="32" width="128" y="0" x="0" fill="#D2D5D4" id="矩形"></rect>
                <rect height="224" width="128" y="28.8" x="0" fill="#EDEBE9" id="矩形备份"></rect>
                <circle r="8" cy="14.4" cx="20.8" fill="#FFFFFF" id="椭圆形"></circle>
                <circle r="8" cy="14.4" cx="49.6" fill="#FFFFFF" id="椭圆形备份-2"></circle>
            </g>
            <path fill="#3152E4" id="形状结合" d="M348.897641,134.4 C409.869877,134.4 459.297641,176.66432 459.297641,228.8 C459.297641,280.93568 409.869877,323.2 348.897641,323.2 C335.959018,323.2 323.540254,321.296794 312.003356,317.799924 L262.610674,342.099731 C266.125697,323.310541 269.006439,307.911834 271.2529,295.903609 C251.027031,278.795933 238.497641,255.049107 238.497641,228.8 C238.497641,176.66432 287.925404,134.4 348.897641,134.4 Z"></path>
            <g fill-rule="nonzero" fill="#282828" transform="translate(439.5224, 349.8073)" id="plants">
                <path id="形状" d="M79.6798912,66.0950834 L66.0594089,66.0950834 C78.7757718,52.4192157 79.4046029,33.2955665 79.0300991,25.298708 C78.9644212,23.9183062 78.1078134,22.7412734 76.7914603,22.2272792 C75.459719,21.7042298 73.9439791,22.009682 72.9206554,23.0073246 L60.3356483,35.361294 C59.6510936,36.0336609 59.6429603,37.1318904 60.3174821,37.8142582 C60.9920039,38.496626 62.0937532,38.5047333 62.7783079,37.8323664 L75.3619175,25.47979 C75.3828786,25.4588959 75.4010448,25.4393948 75.4499538,25.4449665 C75.4946707,25.4449665 75.5310032,25.4602888 75.5519642,25.4742183 C75.929263,33.4989355 75.245933,53.358056 61.1084118,66.0978692 L52.2558669,66.0978692 C52.4095812,65.7788864 52.554911,65.4599035 52.7016384,65.1381348 C56.1168901,61.7017561 62.5351598,54.667418 66.7860583,46.4839058 C67.1997955,45.6371929 66.860591,44.6160766 66.0216645,44.1828314 C65.1827381,43.7495863 64.1502677,44.0623312 63.6950039,44.8875985 C61.4200326,49.2697823 58.4267964,53.3608419 55.6683238,56.6816066 C56.673691,52.7368645 57.1853043,48.683235 57.1914926,44.6131898 C57.1914926,28.86463 49.5994048,9.59472234 46.3378673,2.03942524 C45.7955534,0.793399388 44.5590639,-0.0092863872 43.1965065,8.1115546e-05 C41.8214625,8.1115546e-05 40.5861586,0.799710168 40.0523508,2.03803231 C36.7894159,9.59193636 29.2001229,28.8618441 29.2001229,44.6104039 C29.2001229,48.6666401 29.7199567,52.7256621 30.7232917,56.6788208 C27.9648191,53.358056 24.9743778,49.2683894 22.6952142,44.8862056 C22.4832994,44.4775448 22.117061,44.1696527 21.6772155,44.0303865 C21.23737,43.8911203 20.7600209,43.9319113 20.3503727,44.1437696 C19.9404022,44.3550074 19.6315233,44.7200757 19.4918107,45.1585161 C19.3520982,45.5969564 19.3930199,46.0727805 19.6055572,46.4811199 C23.8550583,54.6646321 30.2747254,61.7003632 33.6899771,65.1367418 C33.835307,65.4571176 33.9820342,65.7788864 34.1343512,66.0964763 L25.2818062,66.0964763 C11.1512721,53.358056 10.4665448,33.5086861 10.8410487,25.4728253 C10.8719378,25.4542489 10.9070163,25.4437111 10.9430591,25.4421807 C10.9863785,25.4380019 11.0101344,25.45611 11.0310954,25.4770041 L23.6356661,37.8462957 C24.078745,38.2812409 24.7209509,38.4475221 25.3203711,38.282503 C25.9197913,38.1174838 26.3853596,37.6462346 26.5417009,37.0462703 C26.6980422,36.446306 26.5214046,35.8087755 26.0783257,35.3738304 L13.4709601,23.0073246 C12.4476364,22.009682 10.9318965,21.7042298 9.60015518,22.2272792 C8.28659677,22.7412734 7.42719422,23.9183062 7.3615164,25.298708 C6.98561518,33.2941736 7.61724105,52.4220015 20.3322066,66.0964763 L6.71591644,66.0964763 C3.0084146,66.1003152 0.00385120426,69.0952799 0,72.7909375 C0.00461953312,76.4862772 3.00873335,79.4807939 6.71591644,79.4853987 L8.04764102,79.4853987 L15.83816,112.780801 C16.5976717,116.078216 19.547122,118.411498 22.9411571,118.399957 L63.4560481,118.399957 C66.8514176,118.410944 69.8018135,116.076676 70.5618399,112.778016 L78.3523589,79.4826127 L79.682686,79.4826127 C83.3907336,79.4795416 86.3961475,76.4843524 86.4,72.7881516 C86.3923033,69.0934493 83.3878373,66.1010733 79.6812886,66.0964763 L79.6798912,66.0950834 Z M43.1965065,3.53265506 C46.4021478,10.9709453 53.7133578,29.5917437 53.7133578,44.6145827 C53.7133578,53.7940458 50.9129632,61.2337289 48.3696906,66.0992622 L44.9362726,66.0992622 L44.9362726,32.3734414 C44.89884,31.4426893 44.1309916,30.707363 43.1965064,30.707363 C42.2620213,30.707363 41.4941729,31.4426893 41.4567403,32.3734414 L41.4567403,66.0964763 L38.0233223,66.0964763 C35.4800497,61.232336 32.6810525,53.7912599 32.6810525,44.6104039 C32.6810525,29.5903509 39.9894677,10.9709454 43.1965065,3.53265506 Z M79.6798912,76.0141965 L25.2175257,76.0141965 C24.2837906,76.0515095 23.5461077,76.8169049 23.5461077,77.7484046 C23.5461077,78.6799044 24.2837906,79.4452998 25.2175257,79.4826127 L74.7750084,79.4826127 L67.1703439,111.989613 C66.7730729,113.715102 65.2292609,114.935793 63.4532533,114.928743 L22.9425545,114.928743 C21.166909,114.934751 19.6236704,113.714514 19.2254637,111.989613 L11.6180045,79.4826127 L17.0832457,79.4826127 C18.0169808,79.4452998 18.7546637,78.6799044 18.7546637,77.7484046 C18.7546637,76.8169049 18.0169808,76.0515095 17.0832457,76.0141965 L6.71451904,76.0141965 C4.92807094,76.0118943 3.48044441,74.5688925 3.47813485,72.7881516 C3.48044255,71.0079535 4.92721928,69.5651758 6.71312164,69.5621066 L79.6770965,69.5621066 C81.4635446,69.5644088 82.9111711,71.0074106 82.9134806,72.7881516 C82.9119426,74.5681243 81.4655667,76.0111256 79.6798912,76.0141965 L79.6798912,76.0141965 Z"></path>
            </g>
            <rect rx="4.8" height="9.6" width="51.2" y="197.747432" x="286.182268" transform="translate(311.7823, 202.5474) rotate(-20) translate(-311.7823, -202.5474)" fill="#FFFFFF" id="矩形"></rect>
            <rect rx="4.8" height="9.6" width="51.2" y="197.747432" x="362.982268" transform="translate(388.5823, 202.5474) scale(-1, 1) rotate(-20) translate(-388.5823, -202.5474)" fill="#FFFFFF" id="矩形"></rect>
            <circle r="12.8" cy="233.6" cx="314.755268" fill="#FFFFFF" id="椭圆形"></circle>
            <circle r="12.8" cy="233.6" cx="381.955268" fill="#FFFFFF" id="椭圆形备份"></circle>
            <rect rx="3.2" height="6.4" width="32" y="259.2" x="333.955268" fill="#FFFFFF" id="矩形"></rect>
            <rect height="22.4" width="204.8" y="0" x="276.355268" fill="#D2D4D6" id="矩形"></rect>
            <circle r="24" cy="57.6" cx="113.155268" fill="#FFFFFF" stroke-width="3.2" stroke="#000000" id="椭圆形"></circle>
            <path fill="#FFFFFF" stroke-width="3.2" stroke="#000000" id="路径-105" d="M70.5704663,128.280178 C70.5704663,128.280178 70.5704663,145.189555 70.5704663,179.008308 L140.482384,180.922498 C144.791742,148.346674 146.946421,132.839175 146.946421,134.4 C146.946421,135.530516 187.486446,166.291365 202.419038,154.257955 C212.374099,146.235682 224.4003,125.669689 238.497641,92.559978 L214.730282,75.6378581 L189.849048,112.993086 C187.969755,115.814547 184.216355,116.681132 181.290372,114.969113 L123.313859,81.0465345 L123.313859,81.0465345 C91.4346207,81.0465345 75.4950017,81.0465345 75.4950017,81.0465345 C75.4950017,81.0465345 29.4263509,105.31687 26.8207124,140.617762 C25.08362,164.15169 37.8153779,188.176531 65.0159862,212.692283 C65.584603,209.217847 66.5865031,204.537452 68.0216866,198.651099 C70.1744619,189.821569 71.9083475,185.618607 71.9083475,185.618607 C66.7731879,177.94061 61.6380283,170.262613 56.5028687,162.584617 C54.4432846,159.505164 54.3394338,155.515444 56.2360236,152.333014 C61.0141712,144.315402 65.7923188,136.29779 70.5704663,128.280178 Z"></path>
            <circle r="8" cy="19.2" cx="97.1552679" fill="#000000" id="椭圆形"></circle>
            <rect height="35.2" width="12.8" y="411.2" x="66.7552679" fill="#FFFFFF" stroke-width="3.2" stroke="#000000" id="矩形"></rect>
            <rect height="35.2" width="12.8" y="385.6" x="137.155268" fill="#FFFFFF" stroke-width="3.2" stroke="#000000" id="矩形备份-2"></rect>
            <path fill="#000000" id="路径-104" d="M126.61382,36.2672162 C124.311762,39.2725011 123.193732,42.0813967 123.259732,44.693903 C124.389366,89.4092725 124.606383,115.611696 123.259732,115.611696 C122.161592,115.611696 79.1081087,146.356689 32.6358603,156.672476 C17.1246817,160.115606 5.90459143,152.864963 2.54855333,143.38181 C-0.807484763,133.898656 -2.19355943,126.36909 7.04971688,115.611696 C13.2119011,108.4401 25.7715617,100.707046 44.7286986,92.4125341 C47.9360487,85.1153731 52.3259518,78.9127526 57.8984079,73.8046727 C66.2570921,66.1425529 77.7193645,63.9613647 77.7193645,63.9613647 C77.7193645,63.9613647 79.9907378,41.1991713 97.1552679,31.4770661 C108.598288,24.9956626 118.417805,26.5923793 126.61382,36.2672162 Z"></path>
            <path fill="#FFFFFF" stroke-width="3.2" stroke="#000000" id="路径-106" d="M85.4426182,225.413906 C117.942395,268.219453 134.192283,289.622227 134.192283,289.622227 C134.192283,289.622227 124.075404,334.644881 124.075404,367.062112 C124.075404,391.653294 154.975553,398.25187 154.975553,398.25187 C154.975553,398.25187 159.300926,373.192558 164.779364,342.099731 C169.236679,316.802275 175.885843,286.650072 170.0141,269.725772 C161.288341,244.575257 148.001325,214.896061 130.153053,180.688182 L74.5528297,179.099474 C69.7832303,189.360619 66.0214838,204.350288 63.2675902,224.068482 C59.1367497,253.645774 63.2675902,279.730493 63.2675902,279.730493 C63.2675902,279.730493 69.4547941,307.753195 68.3521961,337.756058 C67.0911785,372.069684 54.6381009,382.41538 57.8610859,401.530107 C60.0097426,414.273257 69.2035867,423.929854 85.4426182,430.499896 C94.2698646,374.981685 100.021597,333.081615 102.697815,304.799685 C105.374033,276.517755 105.374033,257.634257 102.697815,248.149192"></path>
            <g fill-rule="nonzero" fill="#4C70EA" transform="translate(356.3553, 44.8)" id="？">
                <path id="形状" d="M24.9336384,0 C17.0251716,0 10.8741419,2.41758242 6.4805492,7.25274725 C2.08695652,11.8681319 0,18.021978 0,25.7142857 L8.67734554,25.7142857 C8.67734554,20.3296703 9.88558352,16.1538462 12.3020595,13.0769231 C14.9382151,9.45054945 19.0022883,7.69230769 24.4942792,7.69230769 C29.1075515,7.69230769 32.7322654,8.9010989 35.2585812,11.5384615 C37.6750572,13.956044 38.993135,17.3626374 38.993135,21.7582418 C38.993135,24.8351648 37.8947368,27.6923077 35.6979405,30.4395604 C35.0389016,31.3186813 33.7208238,32.6373626 31.9633867,34.3956044 C26.0320366,39.6703297 22.4073227,43.8461538 20.8695652,47.1428571 C19.5514874,49.8901099 18.8924485,53.0769231 18.8924485,56.7032967 L18.8924485,59.2307692 L27.6796339,59.2307692 L27.6796339,56.7032967 C27.6796339,53.7362637 28.3386728,51.0989011 29.7665904,48.6813187 C30.8649886,46.7032967 32.5125858,44.7252747 34.9290618,42.6373626 C39.7620137,38.3516484 42.7276888,35.4945055 43.826087,34.1758242 C46.5720824,30.5494505 48,26.2637363 48,21.3186813 C48,14.7252747 45.9130435,9.56043956 41.8489703,5.82417582 C37.5652174,1.86813187 31.9633867,0 24.9336384,0 Z M23.2860412,66.9230769 C21.4187643,66.9230769 19.8810069,67.4725275 18.5629291,68.7912088 C17.2448513,70 16.6956522,71.5384615 16.6956522,73.4065934 C16.6956522,75.2747253 17.2448513,76.8131868 18.5629291,78.1318681 C19.8810069,79.3406593 21.4187643,80 23.2860412,80 C25.1533181,80 26.6910755,79.3406593 28.0091533,78.1318681 C29.3272311,76.9230769 29.98627,75.3846154 29.98627,73.4065934 C29.98627,71.5384615 29.3272311,70 28.1189931,68.7912088 C26.8009153,67.4725275 25.1533181,66.9230769 23.2860412,66.9230769 Z"></path>
            </g>
            <path fill="#FFFFFF" stroke-width="3.2" stroke="#000000" id="路径-113" d="M214.730282,75.6378581 C226.454522,44.2794594 234.376975,29.1409757 238.497641,30.2224072 C244.67864,31.8445545 230.16872,62.4 230.16872,62.4 C230.16872,62.4 238.743994,49.7909907 240.385446,49.0636525 C244.414822,47.2782095 236.048356,64 236.048356,64 C236.048356,64 241.983912,54.3747399 246.147255,52.2837468 C250.310599,50.1927536 243.070177,67.1490126 243.070177,67.1490126 C243.070177,67.1490126 251.159088,55.3028852 253.812102,57.2045281 C256.465116,59.106171 248.72376,74.4153846 248.72376,74.4153846 C248.72376,74.4153846 238.497641,92.5599931 238.497641,92.5599931 C238.497641,92.5599931 230.575188,86.9192815 214.730282,75.6378581 Z"></path>
            <path fill="#FFFFFF" stroke-width="3.2" stroke="#000000" id="路径-114" d="M57.3301969,439.686012 L57.3301969,466.262345 C98.2822015,466.262345 118.758204,466.262345 118.758204,466.262345 C118.758204,466.262345 120.455782,459.399877 112.572655,455.267298 C110.133517,453.988626 103.74606,453.224253 93.410284,452.974179 C88.2510659,444.115401 85.6714569,439.686012 85.6714569,439.686012 C85.6714569,439.686012 76.2243702,439.686012 57.3301969,439.686012 Z"></path>
            <path fill="#FFFFFF" stroke-width="3.2" stroke="#000000" id="路径-114备份" d="M127.730197,414.086012 L127.730197,440.662345 C168.682202,440.662345 189.158204,440.662345 189.158204,440.662345 C189.158204,440.662345 190.855782,433.799877 182.972655,429.667298 C180.533517,428.388626 174.14606,427.624253 163.810284,427.374179 C158.651066,418.515401 156.071457,414.086012 156.071457,414.086012 C156.071457,414.086012 146.62437,414.086012 127.730197,414.086012 Z"></path>
        </g>
    </g>
</svg>