<svg xmlns:xlink="http://www.w3.org/1999/xlink" xmlns="http://www.w3.org/2000/svg" version="1.1" viewBox="0 0 1024 1024" height="1024px" width="1024px">
    <title>暂无权限</title>
    <g fill-rule="evenodd" fill="none" stroke-width="1" stroke="none" id="暂无权限">
        <rect height="3.2" width="620.8" y="595.2" x="185.6" fill="#000000" id="矩形"></rect>
        <g transform="translate(473.6, 236.8)" id="编组">
            <rect height="358.4" width="275.2" y="0" x="0" fill="#EBECE9" id="矩形"></rect>
            <rect height="19.2" width="211.2" y="32" x="35.2" fill="#D1D4D3" id="矩形"></rect>
            <rect height="19.2" width="134.4" y="89.6" x="112" fill="#D1D4D3" id="矩形备份"></rect>
        </g>
        <path fill="#FFFFFF" stroke-width="3.2" stroke="#000000" id="路径-126" d="M249.211986,512 C230.803933,478.190128 232.634287,435.896541 266.343033,398.771952 C288.815531,374.022226 327.078985,363.335063 381.133395,366.710463 C414.066629,369.158862 436.383298,385.701668 448.083402,416.33888 C459.783505,446.976093 466.166407,507.129799 467.232108,596.8 L303.014683,596.8 L302.952224,558.42036 C272.376436,537.117978 254.463024,521.644524 249.211986,512 Z"></path>
        <g transform="translate(403.2, 288)" id="编组-3">
            <path fill="#3B58E6" id="路径-125" d="M147.2,0 C178.95996,30.5661704 203.690057,51.4982664 221.39029,62.7962879 C239.090524,74.0943094 264.493761,85.1622135 297.6,96 C288.890435,139.598742 272.890435,177.998742 249.6,211.2 C226.309565,244.401258 192.176232,277.467925 147.2,310.4 C107.109742,283.080132 73.8352116,250.151286 47.3764087,211.613465 C20.9176058,173.075643 5.12546957,134.537822 0,96 C33.4873886,85.6589821 59.2737554,74.5910781 77.3591003,62.7962879 C95.4444452,51.0014977 118.724745,30.0694018 147.2,0 Z"></path>
            <g fill="#FFFFFF" transform="translate(92.8, 96)" id="编组-2">
                <path id="形状结合" d="M83.2,35.2 C97.3384896,35.2 108.8,46.6615104 108.8,60.8 L108.8,86.4 C108.8,100.53849 97.3384896,112 83.2,112 L25.6,112 C11.4615104,112 0,100.53849 0,86.4 L0,60.8 C0,46.6615104 11.4615104,35.2 25.6,35.2 L83.2,35.2 Z M54.4,49.6 C49.0980664,49.6 44.8,53.8980664 44.8,59.2 C44.8,63.9569335 48.2598615,67.905773 52.8003992,68.6673335 L52.8,96 L56,96 L56,86.4 L62.4,86.4 L62.4,83.2 L56,83.2 L56.0005961,68.6671665 C60.5406441,67.9051959 64,63.9565859 64,59.2 C64,53.8980664 59.7019336,49.6 54.4,49.6 Z"></path>
                <path fill-rule="nonzero" id="形状结合" d="M54.4,0 C68.5384896,0 80,11.4615104 80,25.6 L80,38.4 L73.6,38.4 L73.6,25.6 C73.6,14.9961328 65.0038672,6.4 54.4,6.4 C43.7961328,6.4 35.2,14.9961328 35.2,25.6 L35.199,38.4 L28.8,38.4 L28.8,25.6 C28.8,11.4615104 40.2615104,0 54.4,0 Z"></path>
            </g>
        </g>
        <path fill="#FFFFFF" stroke-width="3.2" stroke="#000000" id="路径-127" d="M237.577926,452.8 L316.174368,483.284283 C320.041168,493.684842 324.743739,501.214927 330.282082,505.874539 C338.589596,512.863956 361.610267,517.144826 359.052662,523.1226 C357.347592,527.107782 350.442182,528.213578 338.336431,526.439988 C350.879936,530.589176 357.151689,535.291384 357.151689,540.546613 C357.151689,545.801842 349.125094,544.566643 333.071905,536.841015 C345.939826,542.644405 352.373787,547.540261 352.373787,551.528582 C352.373787,557.511063 326.44469,545.820185 326.44469,545.820185 C326.44469,545.820185 349.861734,559.618333 345.113276,562.897214 C343.843993,563.773673 335.616384,560.82971 320.430447,554.065328 C338.367182,563.211229 343.899246,570.122153 337.026639,574.798101 C326.717729,581.812023 277.130644,549.860724 254.528158,523.1226 C239.459833,505.297183 233.809756,481.856317 237.577926,452.8 Z"></path>
        <path stroke-width="3.2" stroke="#000000" id="路径-128" d="M341.705594,451.2 C341.705594,451.2 318.648429,470.568566 316.174368,483.284283"></path>
        <path fill="#000000" id="路径-129" d="M376.322997,341.106003 L463.027103,323.2 C463.052692,323.515453 458.967848,317.450202 450.772573,305.004248 C438.47966,286.335317 425.366324,277.67996 406.609625,280.337298 C389.220123,282.800939 374.604003,295.264764 371.784551,315.14718 C369.904915,328.402124 371.417731,337.055065 376.322997,341.106003 Z"></path>
        <path fill="#FFFFFF" stroke-width="3.2" stroke="#000000" id="形状结合" d="M400.879143,307.481149 C406.444372,306.078286 412.358904,307.041808 417.946352,309.888755 C424.128726,313.038832 428.722992,317.889221 430.584531,323.94728 C432.28391,329.477621 431.684982,335.975365 428.09151,343.027952 C422.883713,353.248829 413.857146,359.906559 404.800518,361.130367 L404.80005,376 L388.800001,376 L388.800015,356.402029 C383.234604,351.410342 380.639464,343.346065 381.386009,334.748956 C381.418541,334.374318 381.45715,334.00177 381.501448,333.63261 C381.173546,333.50461 380.849537,333.357362 380.531223,333.191539 C379.137514,332.465498 377.97305,331.445921 377.170823,330.22435 C376.428564,329.094095 376,327.79045 376,326.4 C376,324.215194 377.057582,322.252947 378.72167,320.826585 C380.481988,319.317741 382.917823,318.4 385.6,318.4 C385.875355,318.4 386.148114,318.409672 386.418107,318.428172 C386.575837,318.194523 386.737746,317.960898 386.903866,317.727326 C390.900492,312.107875 395.725493,308.780262 400.879143,307.481149 Z"></path>
        <g fill-rule="nonzero" transform="translate(742.4, 480)" id="编组-3">
            <path fill="#282828" id="路径" d="M79.6798912,66.0950022 L66.0594089,66.0950022 C78.7757718,52.4191345 79.4046029,33.2954854 79.0300991,25.2986269 C78.9644212,23.9182251 78.1078134,22.7411923 76.7914603,22.2271981 C75.459719,21.7041487 73.9439791,22.0096009 72.9206554,23.0072435 L60.3356483,35.3612128 C59.6510936,36.0335798 59.6429603,37.1318093 60.3174821,37.8141771 C60.9920039,38.4965449 62.0937532,38.5046522 62.7783079,37.8322853 L75.3619175,25.4797089 C75.3828786,25.4588148 75.4010448,25.4393137 75.4499538,25.4448854 C75.4946707,25.4448854 75.5310032,25.4602077 75.5519642,25.4741372 C75.929263,33.4988544 75.245933,53.3579749 61.1084118,66.0977881 L52.2558669,66.0977881 C52.4095812,65.7788052 52.554911,65.4598224 52.7016384,65.1380536 C56.1168901,61.701675 62.5351598,54.6673369 66.7860583,46.4838247 C67.1997955,45.6371118 66.860591,44.6159955 66.0216645,44.1827503 C65.1827381,43.7495052 64.1502677,44.06225 63.6950039,44.8875174 C61.4200326,49.2697012 58.4267964,53.3607607 55.6683238,56.6815255 C56.673691,52.7367834 57.1853043,48.6831538 57.1914926,44.6131087 C57.1914926,28.8645489 49.5994048,9.59464122 46.3378673,2.03934412 C45.7955534,0.793318272 44.5590639,-0.00936750275 43.1965065,0 C41.8214625,0 40.5861586,0.799629052 40.0523508,2.03795119 C36.7894159,9.59185524 29.2001229,28.861763 29.2001229,44.6103228 C29.2001229,48.666559 29.7199567,52.725581 30.7232917,56.6787397 C27.9648191,53.3579749 24.9743778,49.2683082 22.6952142,44.8861245 C22.4832994,44.4774637 22.117061,44.1695715 21.6772155,44.0303053 C21.23737,43.8910392 20.7600209,43.9318302 20.3503727,44.1436885 C19.9404022,44.3549262 19.6315233,44.7199946 19.4918107,45.1584349 C19.3520982,45.5968753 19.3930199,46.0726994 19.6055572,46.4810388 C23.8550583,54.664551 30.2747254,61.7002821 33.6899771,65.1366607 C33.835307,65.4570365 33.9820342,65.7788052 34.1343512,66.0963952 L25.2818062,66.0963952 C11.1512721,53.3579749 10.4665448,33.508605 10.8410487,25.4727442 C10.8719378,25.4541678 10.9070163,25.4436299 10.9430591,25.4420996 C10.9863785,25.4379208 11.0101344,25.4560289 11.0310954,25.476923 L23.6356661,37.8462146 C24.078745,38.2811597 24.7209509,38.447441 25.3203711,38.2824219 C25.9197913,38.1174027 26.3853596,37.6461535 26.5417009,37.0461892 C26.6980422,36.4462249 26.5214046,35.8086944 26.0783257,35.3737492 L13.4709601,23.0072435 C12.4476364,22.0096009 10.9318965,21.7041487 9.60015518,22.2271981 C8.28659677,22.7411923 7.42719422,23.9182251 7.3615164,25.2986269 C6.98561518,33.2940925 7.61724105,52.4219204 20.3322066,66.0963952 L6.71591644,66.0963952 C3.0084146,66.1002341 0.00385120426,69.0951988 0,72.7908563 C0.00461953312,76.4861961 3.00873335,79.4807128 6.71591644,79.4853176 L8.04764102,79.4853176 L15.83816,112.78072 C16.5976717,116.078135 19.547122,118.411417 22.9411571,118.399876 L63.4560481,118.399876 C66.8514176,118.410863 69.8018135,116.076594 70.5618399,112.777934 L78.3523589,79.4825316 L79.682686,79.4825316 C83.3907336,79.4794605 86.3961475,76.4842713 86.4,72.7880705 C86.3923033,69.0933682 83.3878373,66.1009922 79.6812886,66.0963952 L79.6798912,66.0950022 Z"></path>
            <path fill="#FFFFFF" id="路径" d="M43.1965065,3.53257395 C46.4021478,10.9708641 53.7133578,29.5916626 53.7133578,44.6145016 C53.7133578,53.7939646 50.9129632,61.2336478 48.3696906,66.099181 L44.9362726,66.099181 L44.9362726,32.3733603 C44.89884,31.4426081 44.1309916,30.7072819 43.1965064,30.7072819 C42.2620213,30.7072819 41.4941729,31.4426081 41.4567403,32.3733603 L41.4567403,66.0963952 L38.0233223,66.0963952 C35.4800497,61.2322548 32.6810525,53.7911788 32.6810525,44.6103228 C32.6810525,29.5902698 39.9894677,10.9708643 43.1965065,3.53257395 Z"></path>
            <path fill="#FFFFFF" id="路径" d="M79.6798912,76.0141154 L25.2175257,76.0141154 C24.2837906,76.0514284 23.5461077,76.8168238 23.5461077,77.7483235 C23.5461077,78.6798233 24.2837906,79.4452187 25.2175257,79.4825316 L74.7750084,79.4825316 L67.1703439,111.989531 C66.7730729,113.715021 65.2292609,114.935712 63.4532533,114.928662 L22.9425545,114.928662 C21.166909,114.93467 19.6236704,113.714432 19.2254637,111.989531 L11.6180045,79.4825316 L17.0832457,79.4825316 C18.0169808,79.4452187 18.7546637,78.6798233 18.7546637,77.7483235 C18.7546637,76.8168238 18.0169808,76.0514284 17.0832457,76.0141154 L6.71451904,76.0141154 C4.92807094,76.0118132 3.48044441,74.5688114 3.47813485,72.7880705 C3.48044255,71.0078724 4.92721928,69.5650947 6.71312164,69.5620255 L79.6770965,69.5620255 C81.4635446,69.5643277 82.9111711,71.0073295 82.9134806,72.7880705 C82.9119426,74.5680432 81.4655667,76.0110445 79.6798912,76.0141154 L79.6798912,76.0141154 Z"></path>
        </g>
        <polyline points="409.757074 332.8 406.4 342.4 399.951188 341.416769" stroke-width="3.2" stroke="#000000" id="路径-130"></polyline>
        <rect rx="3.2" height="25.6" width="6.4" y="227.2" x="342.4" fill="#3B58E6" id="矩形"></rect>
        <rect rx="3.2" height="25.6" width="6.4" y="230.4" x="412.8" transform="translate(416, 243.2) rotate(-330) translate(-416, -243.2)" fill="#3B58E6" id="矩形备份-2"></rect>
        <rect rx="3.2" height="25.6" width="6.4" y="252.8" x="297.6" transform="translate(300.8, 265.6) scale(-1, 1) rotate(-330) translate(-300.8, -265.6)" fill="#3B58E6" id="矩形备份-3"></rect>
    </g>
</svg>