<svg xmlns:xlink="http://www.w3.org/1999/xlink" xmlns="http://www.w3.org/2000/svg" version="1.1" viewBox="0 0 1024 1024" height="1024px" width="1024px">
    <title>404未找到访问页面</title>
    <g fill-rule="evenodd" fill="none" stroke-width="1" stroke="none" id="404未找到访问页面">
        <g transform="translate(201.6, 246.4)" id="编组">
            <polygon points="239.289236 269.351579 229.257528 295.774195 265.252416 295.774195 280.308333 269.351579" fill="#D0D2D4" id="路径-89"></polygon>
            <path fill="#3251E6" id="形状结合" d="M147.2,67.2 L147.2,176 L217.6,176 L217.6,214.4 L147.2,214.4 L147.2,284.8 L108.8,284.8 L108.8,214.4 L0,214.4 L0,176 L0.156,176 L-5.40012479e-13,175.844854 L108.611602,67.233252 L108.8,67.422 L108.8,67.2 L147.2,67.2 Z M108.8,121.35 L54.149,176 L108.8,176 L108.8,121.35 Z"></path>
            <path stroke-width="3.2" stroke="#000000" id="路径-77" d="M294.4,128.003134 C235.960739,277.459137 206.741109,352.187139 206.741109,352.187139 C206.741109,352.187139 221.337818,342.806807 250.531236,324.046143 L282.972439,265.6 L294.4,265.6 L333.225353,185.884305"></path>
            <polygon points="315.463771 315.800342 302.857528 350.174195 335.916927 350.174195 351.076881 315.800342" fill="#D0D2D4" id="路径-89备份"></polygon>
            <path stroke-width="3.2" stroke="#000000" id="路径-78" d="M353.653391,315.741243 L294.4,315.741243 L242.861744,347.456882 L499.857487,352.187139 C525.944752,353.918237 540.955875,348.149874 544.890856,334.88205 C548.825837,321.614227 542.201829,308.597535 525.018831,295.831976 L488.691053,265.6"></path>
            <path stroke-width="3.2" stroke="#000000" id="路径-79" d="M337.765028,349.530927 C340.300875,323.726692 355.692628,308.309251 383.940288,303.278602 C412.187947,298.247954 445.233446,300.119609 483.076783,308.893569"></path>
            <path stroke-width="3.2" stroke="#000000" id="路径-80" d="M420.531436,171.433135 C420.531436,171.433135 408.334386,171.433135 383.940288,171.433135 C363.139559,187.277712 352.739195,195.2 352.739195,195.2 C352.739195,195.2 387.764874,277.701437 434.87395,280.248742 C481.72969,282.782348 503.604951,260.832768 500.499733,214.4"></path>
            <path stroke-width="3.2" stroke="#000000" id="路径-81" d="M366.533235,185.884305 C366.533235,185.884305 328.60252,172.3662 323.83104,166.452595 C319.05956,160.538991 344.789878,160.417216 344.789878,160.417216"></path>
            <path stroke-width="3.2" stroke="#000000" id="路径-82" d="M311.514219,230.404539 C316.581911,253.326277 322.093205,270.006559 328.048102,280.445382 C334.002999,290.884205 344.760177,301.386504 360.319635,311.952278"></path>
            <line stroke-width="3.2" stroke="#000000" id="路径-83" y2="349.530927" x2="303.406808" y1="315.800342" x1="315.463771"></line>
            <line stroke-width="3.2" stroke="#000000" id="路径-84" y2="295.774195" x2="266.641445" y1="295.774195" x1="229.257528"></line>
            <polyline points="238.519951 269.351579 244.845053 269.351579 280.308333 269.351579" stroke-width="3.2" stroke="#000000" id="路径-85"></polyline>
            <path fill="#000000" id="路径-86" d="M518.026807,197.317549 C518.026807,197.317549 516.017871,176.583534 512,135.115503 C493.414989,133.03857 476.888363,126.983994 462.420122,116.951775 C440.71776,101.903447 445.526116,69.3452704 414.949158,69.3452704 C384.372201,69.3452704 383.765175,89.0644251 369.406434,102.400597 C365.502867,106.026168 355.922891,112.762335 340.666505,122.609099 C377.368573,114.652594 412.523377,118.226697 446.130916,133.33141 C466.152365,142.329933 471.414166,164.869832 482.776185,176 C500.022195,192.894093 518.026807,197.317549 518.026807,197.317549 Z"></path>
            <path fill="#3251E6" id="形状结合备份" d="M550.4,67.2 L550.4,176 L620.8,176 L620.8,214.4 L550.4,214.4 L550.4,284.8 L512,284.8 L512,214.4 L403.2,214.4 L403.2,176 L403.356,176 L403.2,175.844854 L511.811602,67.233252 L512,67.422 L512,67.2 L550.4,67.2 Z M512,121.35 L457.349,176 L512,176 L512,121.35 Z"></path>
            <path fill="#3251E6" id="路径-76" d="M305.517063,149.314289 C264.680711,152.525098 244.087305,241.710581 302.545373,262.565991 C361.003441,283.4214 383.298739,195.2 383.298739,195.2 C383.298739,195.2 381.568121,265.871632 330.300373,280.933753 C279.032624,295.995874 245.418721,252.641666 236.80766,232.059482 C228.1966,211.477299 212.86562,129.885685 285.17552,96.1509347 C357.485421,62.4161842 419.065485,139.153926 383.298739,163.961533 C347.531993,188.76914 346.353416,146.103481 305.517063,149.314289 Z"></path>
            <rect rx="3.2" height="16" width="6.4" y="88" x="283.2" fill="#FFFFFF" stroke-width="3.2" stroke="#000000" id="矩形"></rect>
            <rect rx="3.2" height="16" width="6.4" y="84.8" x="292.8" fill="#FFFFFF" stroke-width="3.2" stroke="#000000" id="矩形备份"></rect>
            <rect rx="3.2" height="16" width="6.4" y="81.6" x="302.4" fill="#FFFFFF" stroke-width="3.2" stroke="#000000" id="矩形备份-2"></rect>
            <rect rx="3.2" height="12.8" width="6.4" y="81.6" x="312" fill="#FFFFFF" stroke-width="3.2" stroke="#000000" id="矩形备份-3"></rect>
            <path fill="#FFFFFF" stroke-width="3.2" stroke="#000000" id="路径-87" d="M406.989602,85.9291435 C399.395859,85.9291435 389.376819,83.258321 386.099268,94.8601537 C383.914234,102.594709 387.91123,108.939256 398.090254,113.893794 L398.090254,136.950702 L409.323867,136.950702 L410.8762,112.905892 C418.146774,109.489591 421.782061,105.372201 421.782061,100.553721 C421.782061,93.3260007 414.583345,85.9291435 406.989602,85.9291435 Z"></path>
            <circle r="3.2" cy="148.8" cx="193.6" fill="#FFFFFF" stroke-width="3.2" stroke="#2B4BE4" id="椭圆形"></circle>
            <circle r="6.4" cy="81.6" cx="222.4" fill="#FFFFFF" stroke-width="3.2" stroke="#2B4BE4" id="椭圆形备份-2"></circle>
            <circle r="6.4" cy="17.6" cx="481.6" fill="#FFFFFF" stroke-width="3.2" stroke="#2B4BE4" id="椭圆形备份"></circle>
            <g fill-rule="nonzero" fill="#282828" transform="translate(102.4, 0)" id="plants">
                <path id="形状" d="M47.2177133,37.5134257 L39.1463164,37.5134257 C46.6819389,29.7514467 47.0545795,18.8974837 46.8326513,14.3587262 C46.7937311,13.5752549 46.2861116,12.9072092 45.5060506,12.6154828 C44.7168705,12.3186169 43.8186543,12.4919817 43.2122402,13.0582113 L35.7544583,20.0699236 C35.3487962,20.4515373 35.3439765,21.0748567 35.7436931,21.4621465 C36.1434097,21.8494364 36.7962982,21.8540378 37.2019602,21.4724242 L44.6589141,14.4615024 C44.6713355,14.4496436 44.6821006,14.4385754 44.7110838,14.4417378 C44.7375826,14.4417378 44.759113,14.4504342 44.7715344,14.4583401 C44.9951188,19.0129094 44.5901825,30.2843021 36.2123922,37.5150069 L30.9664397,37.5150069 C31.0575296,37.3339625 31.143651,37.1529182 31.2306005,36.9702927 C33.2544534,35.0199156 37.0578725,31.0274535 39.5769235,26.3827573 C39.8221011,25.9021906 39.6210909,25.3226381 39.1239494,25.0767422 C38.6268078,24.8308463 38.0149735,25.0083501 37.7451875,25.4767451 C36.3970564,27.9639305 34.6232868,30.2858832 32.9886363,32.1706416 C33.5844095,29.9317339 33.8875877,27.6310252 33.8912549,25.3209996 C33.8912549,16.3826278 29.3922399,5.44565322 27.4594769,1.15751162 C27.1381057,0.450307761 26.4053712,-0.0052706522 25.5979298,4.60385527e-05 C24.7830889,4.60385527e-05 24.0510569,0.453889555 23.7347264,1.15672104 C21.8011354,5.44407199 17.3037765,16.3810467 17.3037765,25.3194184 C17.3037765,27.6216066 17.6118262,29.9253758 18.2063951,32.1690604 C16.5717446,30.2843021 14.7996313,27.9631399 13.4490158,25.4759545 C13.3234367,25.2440119 13.1064065,25.0692623 12.8457573,24.9902193 C12.5851081,24.9111764 12.3022346,24.9343281 12.0594801,25.0545719 C11.8165347,25.1744636 11.6334953,25.3816646 11.5507027,25.6305091 C11.46791,25.8793536 11.49216,26.149416 11.6181079,26.3811762 C14.1363308,31.0258723 17.940578,35.0191251 19.9644309,36.9695021 C20.0505523,37.151337 20.1375018,37.3339625 20.2277637,37.5142163 L14.9818111,37.5142163 C6.60816122,30.2843021 6.20239694,19.0184435 6.42432513,14.4575495 C6.4426298,14.4470061 6.46341705,14.4410252 6.48477574,14.4401566 C6.51044652,14.4377849 6.52452408,14.4480624 6.5369454,14.4599213 L14.0063206,21.48033 C14.2688859,21.7271908 14.6494524,21.8215666 15.0046644,21.7279071 C15.3598763,21.6342476 15.6357686,21.3667818 15.7284153,21.0262615 C15.821062,20.6857412 15.7163879,20.3238996 15.4538226,20.0770389 L7.9827912,13.0582113 C7.37637714,12.4919817 6.4781609,12.3186169 5.68898085,12.6154828 C4.91057586,12.9072092 4.40130028,13.5752549 4.36238009,14.3587262 C4.13962381,18.8966931 4.51392062,29.7530279 12.048715,37.5142163 L3.97980234,37.5142163 C1.78276421,37.5163951 0.00228219511,39.21624 0,41.3137753 C0.00273750111,43.4111303 1.7829531,45.1107209 3.97980234,45.1133344 L4.76897246,45.1133344 L9.38557629,64.0107252 C9.83565732,65.882231 11.5834797,67.2065261 13.5947597,67.1999758 L37.6035841,67.1999758 C39.6156549,67.2062116 41.3640376,65.8813564 41.8144236,64.009144 L46.4310275,45.1117532 L47.2193695,45.1117532 C49.416731,45.1100101 51.197717,43.4100378 51.2,41.3121941 C51.195439,39.2152009 49.4150147,37.5168254 47.2185414,37.5142163 L47.2177133,37.5134257 Z M25.5979298,2.00502044 C27.4975691,6.22675272 31.8301379,16.795314 31.8301379,25.3217902 C31.8301379,30.5317557 30.1706448,34.7542786 28.6635203,37.5157974 L26.6289023,37.5157974 L26.6289023,18.3741154 C26.60672,17.8458507 26.1516987,17.4285034 25.5979297,17.4285034 C25.0441608,17.4285034 24.5891395,17.8458507 24.5669572,18.3741154 L24.5669572,37.5142163 L22.5323392,37.5142163 C21.0252147,34.753488 19.3665496,30.5301745 19.3665496,25.3194184 C19.3665496,16.7945235 23.6974623,6.22675278 25.5979298,2.00502044 Z M47.2177133,43.1431926 L14.9437189,43.1431926 C14.3903944,43.1643703 13.953249,43.5987839 13.953249,44.1274729 C13.953249,44.6561619 14.3903944,45.0905755 14.9437189,45.1117532 L44.3111161,45.1117532 L39.8046483,63.561672 C39.5692284,64.5410039 38.6543768,65.2338283 37.6019279,65.229827 L13.5955878,65.229827 C12.5433535,65.2332369 11.6288417,64.5406699 11.3928674,63.561672 L6.8847434,45.1117532 L10.1234048,45.1117532 C10.6767294,45.0905755 11.1138748,44.6561619 11.1138748,44.1274729 C11.1138748,43.5987839 10.6767294,43.1643703 10.1234048,43.1431926 L3.97897425,43.1431926 C2.92033833,43.141886 2.06248558,42.322885 2.06111695,41.3121941 C2.06248447,40.3018114 2.91983365,39.4829376 3.97814616,39.4811957 L47.2160572,39.4811957 C48.2746931,39.4825023 49.1325458,40.3015033 49.1339145,41.3121941 C49.133003,42.3224489 48.2758914,43.1414497 47.2177133,43.1431926 L47.2177133,43.1431926 Z"></path>
            </g>
            <polyline points="402.606529 96 399.575955 102.287791 403.388649 102.287791" stroke-width="3.2" stroke="#000000" id="路径-88"></polyline>
            <circle r="1" cy="97.6" cx="408" fill="#000000" stroke-width="3.2" stroke="#979797" id="椭圆形"></circle>
            <circle r="1" cy="94.4" cx="395.2" fill="#000000" stroke-width="3.2" stroke="#979797" id="椭圆形备份-3"></circle>
        </g>
    </g>
</svg>