<svg xmlns:xlink="http://www.w3.org/1999/xlink" xmlns="http://www.w3.org/2000/svg" version="1.1" viewBox="0 0 1024 1024" height="1024px" width="1024px">
    <title>505服务器崩了</title>
    <g fill-rule="evenodd" fill="none" stroke-width="1" stroke="none" id="505服务器崩了">
        <g transform="translate(243.2, 134.4)" id="编组-4">
            <g transform="translate(168.4332, 148.8076)" id="编组-3">
                <rect height="249.6" width="182.4" y="0" x="0" fill="#EDEBE9" id="矩形"></rect>
                <rect height="249.6" width="3.2" y="0" x="89.6" fill="#7A7776" id="矩形"></rect>
                <rect height="19.2" width="3.2" y="80" x="73.6" fill="#7A7776" id="矩形备份-4"></rect>
                <rect height="19.2" width="3.2" y="80" x="105.6" fill="#7A7776" id="矩形备份-5"></rect>
            </g>
            <path fill="#FFFFFF" stroke-width="3.2" stroke="#000000" id="形状结合" d="M166.833152,169.607559 C169.581116,169.607559 172.127027,170.473131 174.21242,171.947314 C176.653248,173.672757 178.464396,176.230416 179.230445,179.208072 L182.833152,179.207559 C186.367774,179.207559 189.567774,180.640248 191.884119,182.956593 C194.200463,185.272937 195.633152,188.472937 195.633152,192.007559 C195.633152,195.542182 194.200463,198.742182 191.884119,201.058526 C189.567774,203.374871 186.367774,204.807559 182.833152,204.807559 L154.033152,204.807559 C150.498529,204.807559 147.298529,203.374871 144.982185,201.058526 C142.665841,198.742182 141.233152,195.542182 141.233152,192.007559 C141.233152,188.599877 142.564724,185.503166 144.736079,183.209531 C146.919118,180.903553 149.950763,179.408687 153.331531,179.226421 C153.701921,179.206452 154.06984,179.202597 154.434654,179.214247 C154.525718,178.859561 154.632398,178.507618 154.754813,178.159457 C155.642658,175.634326 157.300527,173.472057 159.44579,171.953046 C161.532652,170.475386 164.081612,169.607559 166.833152,169.607559 Z"></path>
            <path fill="#FFFFFF" stroke-width="3.2" stroke="#000000" stroke-opacity="0.363741575" id="形状结合备份-2" d="M357.233152,16.0075594 C363.073057,16.0075594 368.483305,17.8476166 372.915057,20.9803976 C377.770324,24.4125584 381.452192,29.3949725 383.238146,35.2077528 L389.233152,35.2075594 C396.744224,35.2075594 403.544224,38.2520231 408.466456,43.1742549 C413.388688,48.0964868 416.433152,54.8964868 416.433152,62.4075594 C416.433152,69.9186319 413.388688,76.7186319 408.466456,81.6408638 C403.544224,86.5630956 396.744224,89.6075594 389.233152,89.6075594 L331.633152,89.6075594 C324.122079,89.6075594 317.322079,86.5630956 312.399847,81.6408638 C307.477616,76.7186319 304.433152,69.9186319 304.433152,62.4075594 C304.433152,55.1662847 307.26277,48.5858688 311.876762,43.7118713 C316.515877,38.8113348 322.958609,35.6352189 330.142839,35.2476525 C330.505471,35.2280896 330.866989,35.2157936 331.227026,35.2103827 C331.332922,34.8656151 331.445916,34.5223444 331.566033,34.1807873 C333.452894,28.8154269 336.975133,24.2204194 341.5337,20.9927102 C345.968721,17.8524783 351.38554,16.0075594 357.233152,16.0075594 Z"></path>
            <path fill="#3251E6" id="形状结合" d="M155.483252,241.985797 L189.424377,275.926922 C194.247818,280.750363 194.416943,288.465625 189.931752,293.491858 L302.702576,406.262764 L321.722444,387.244671 L394.130178,459.652406 C401.628244,467.150472 401.628244,479.30724 394.130178,486.805306 L371.502761,509.432723 C364.004695,516.93079 351.847927,516.93079 344.349861,509.432723 L271.942126,437.024989 L291.389576,417.576764 L178.632576,304.819764 L178.110669,305.342565 C173.111958,310.341275 165.007446,310.341275 160.008735,305.342565 L126.06761,271.401439 C121.068899,266.402728 121.068899,258.298216 126.06761,253.299505 L137.381318,241.985797 C142.380029,236.987086 150.484541,236.987086 155.483252,241.985797 Z"></path>
            <path fill="#3251E6" id="形状结合" d="M341.233152,232.007559 C354.002535,232.007559 365.801416,236.162771 375.351432,243.19483 L341.169855,277.376067 C336.171144,282.374778 336.171144,290.47929 341.169855,295.478 L361.53453,315.842676 C366.533241,320.841387 374.637753,320.841387 379.636464,315.842676 L398.346043,297.132624 C394.659312,325.388519 370.494287,347.207559 341.233152,347.207559 C332.345147,347.207559 323.927324,345.194476 316.410761,341.599388 L222.339978,435.67014 C224.726995,441.994012 226.033152,448.848251 226.033152,456.007559 C226.033152,487.819161 200.244753,513.607559 168.433152,513.607559 C156.78317,513.607559 145.940993,510.148932 136.877401,504.202455 L172.640331,468.438809 C177.639042,463.440098 177.639042,455.335586 172.640331,450.336875 L152.275656,429.9722 C147.276945,424.973489 139.172433,424.973489 134.173722,429.9722 L110.898134,453.247143 C112.338615,422.717414 137.546948,398.407559 168.433152,398.407559 C179.017664,398.407559 188.935372,401.262486 197.458233,406.244297 L289.251335,314.450873 C285.649973,306.929009 283.633152,298.503811 283.633152,289.607559 C283.633152,257.795958 309.42155,232.007559 341.233152,232.007559 Z"></path>
            <path stroke-width="6.4" stroke="#000000" id="路径-111" d="M53.2331518,139.207559 C53.2331518,139.207559 -100.258967,246.55214 114.033152,367.367032"></path>
            <g transform="translate(43.6332, 73.6)" id="编组">
                <path fill="#FFFFFF" id="路径-110" d="M41.6,0 C41.6,0 1.64888487,27.2075594 1.64888487,27.2075594 C1.64888487,27.2075594 1.64888487,40.0120544 1.64888487,65.6210445 L41.6,91.2075594 L83.2,65.6210445 L83.2,27.2075594 C55.4666667,9.06918645 41.6,0 41.6,0 Z"></path>
                <path fill="#000000" id="形状结合" d="M9.6,43.2075594 L14.4,46.4075594 L14.4,65.6075594 L9.6,62.4075594 L9.6,43.2075594 Z M22.4,51.2075594 L27.2,54.4075594 L27.2,73.6075594 L22.4,70.4075594 L22.4,51.2075594 Z M75.2,43.2075594 L70.4,46.4075594 L70.4,65.6075594 L75.2,62.4075594 L75.2,43.2075594 Z M62.4,51.2075594 L57.6,54.4075594 L57.6,73.6075594 L62.4,70.4075594 L62.4,51.2075594 Z"></path>
                <polygon points="28.8 14.4075594 49.8745166 18.9330428 54.4 40.0075594 33.3254834 35.482076" transform="translate(41.6, 27.2076) rotate(-45) translate(-41.6, -27.2076)" fill="#000000" id="矩形"></polygon>
                <polygon points="0 27.2075594 0 65.6075594 41.6 91.2075594 83.2 65.4976205 83.2 27.2075594 41.6 1.60755935" stroke-width="3.2" stroke="#000000" id="路径-107"></polygon>
                <polyline points="0 27.2075594 41.6 52.8075594 83.2 27.2075594" stroke-width="3.2" stroke="#000000" id="路径-108"></polyline>
                <line stroke-width="3.2" stroke="#000000" id="路径-109" y2="91.2075594" x2="41.6" y1="52.8075594" x1="41.6"></line>
            </g>
            <polygon points="112.433152 360.007559 120.433152 376.007559 104.433152 376.007559" transform="translate(112.4332, 368.0076) rotate(-60) translate(-112.4332, -368.0076)" fill="#000000" id="三角形"></polygon>
            <g transform="translate(376.7049, 72.0076)" id="编组-2">
                <polygon points="10.9282032 332.8 18.9282032 348.8 2.92820323 348.8" transform="translate(10.9282, 340.8) scale(1, -1) rotate(-210) translate(-10.9282, -340.8)" fill="#000000" id="三角形备份"></polygon>
                <path stroke-width="6.4" stroke="#000000" id="路径-112" d="M40.5282032,0 C2.8602475,72.9307552 3.92691416,123.430111 43.7282032,151.498066 C103.430137,193.6 153.219383,154.425678 158.79711,193.6 C164.374837,232.774322 109.406029,229.879646 64.5526457,268.07249 C34.6503901,293.534386 16.998881,318.118504 11.5981186,341.824843"></path>
            </g>
            <g transform="translate(395.6332, 0)" id="编组备份">
                <path fill="#FFFFFF" id="路径-110" d="M41.6,0 C41.6,0 1.64888487,27.2075594 1.64888487,27.2075594 C1.64888487,27.2075594 1.64888487,40.0120544 1.64888487,65.6210445 L41.6,91.2075594 L83.2,65.6210445 L83.2,27.2075594 C55.4666667,9.06918645 41.6,0 41.6,0 Z"></path>
                <path fill="#000000" id="形状结合" d="M9.6,43.2075594 L14.4,46.4075594 L14.4,65.6075594 L9.6,62.4075594 L9.6,43.2075594 Z M22.4,51.2075594 L27.2,54.4075594 L27.2,73.6075594 L22.4,70.4075594 L22.4,51.2075594 Z M75.2,43.2075594 L70.4,46.4075594 L70.4,65.6075594 L75.2,62.4075594 L75.2,43.2075594 Z M62.4,51.2075594 L57.6,54.4075594 L57.6,73.6075594 L62.4,70.4075594 L62.4,51.2075594 Z"></path>
                <polygon points="28.8 14.4075594 49.8745166 18.9330428 54.4 40.0075594 33.3254834 35.482076" transform="translate(41.6, 27.2076) rotate(-45) translate(-41.6, -27.2076)" fill="#000000" id="矩形"></polygon>
                <polygon points="0 27.2075594 0 65.6075594 41.6 91.2075594 83.2 65.4976205 83.2 27.2075594 41.6 1.60755935" stroke-width="3.2" stroke="#000000" id="路径-107"></polygon>
                <polyline points="0 27.2075594 41.6 52.8075594 83.2 27.2075594" stroke-width="3.2" stroke="#000000" id="路径-108"></polyline>
                <line stroke-width="3.2" stroke="#000000" id="路径-109" y2="91.2075594" x2="41.6" y1="52.8075594" x1="41.6"></line>
            </g>
            <g transform="translate(408.4332, 214.4)" id="编组备份-2">
                <path fill="#FFFFFF" id="路径-110" d="M41.6,0 C41.6,0 1.64888487,27.2075594 1.64888487,27.2075594 C1.64888487,27.2075594 1.64888487,40.0120544 1.64888487,65.6210445 L41.6,91.2075594 L83.2,65.6210445 L83.2,27.2075594 C55.4666667,9.06918645 41.6,0 41.6,0 Z"></path>
                <path fill="#000000" id="形状结合" d="M9.6,43.2075594 L14.4,46.4075594 L14.4,65.6075594 L9.6,62.4075594 L9.6,43.2075594 Z M22.4,51.2075594 L27.2,54.4075594 L27.2,73.6075594 L22.4,70.4075594 L22.4,51.2075594 Z M75.2,43.2075594 L70.4,46.4075594 L70.4,65.6075594 L75.2,62.4075594 L75.2,43.2075594 Z M62.4,51.2075594 L57.6,54.4075594 L57.6,73.6075594 L62.4,70.4075594 L62.4,51.2075594 Z"></path>
                <polygon points="28.8 14.4075594 49.8745166 18.9330428 54.4 40.0075594 33.3254834 35.482076" transform="translate(41.6, 27.2076) rotate(-45) translate(-41.6, -27.2076)" fill="#000000" id="矩形"></polygon>
                <polygon points="0 27.2075594 0 65.6075594 41.6 91.2075594 83.2 65.4976205 83.2 27.2075594 41.6 1.60755935" stroke-width="3.2" stroke="#000000" id="路径-107"></polygon>
                <polyline points="0 27.2075594 41.6 52.8075594 83.2 27.2075594" stroke-width="3.2" stroke="#000000" id="路径-108"></polyline>
                <line stroke-width="3.2" stroke="#000000" id="路径-109" y2="91.2075594" x2="41.6" y1="52.8075594" x1="41.6"></line>
            </g>
            <circle r="14.4" cy="56.0075594" cx="152.433152" fill="#FFFFFF" stroke-width="3.2" stroke="#000000" id="椭圆形"></circle>
            <circle r="6.4" cy="169.607559" cx="362.033152" fill="#FFFFFF" stroke-width="3.2" stroke="#000000" id="椭圆形备份-2"></circle>
        </g>
    </g>
</svg>