<svg xmlns:xlink="http://www.w3.org/1999/xlink" xmlns="http://www.w3.org/2000/svg" version="1.1" viewBox="0 0 1024 1024" height="1024px" width="1024px">
    <title>暂无订单</title>
    <g fill-rule="evenodd" fill="none" stroke-width="1" stroke="none" id="暂无订单">
        <g transform="translate(262.4, 179.2)" id="编组-4">
            <path fill="#FFFFFF" stroke-width="3.2" stroke="#000000" id="形状结合" d="M135.044291,21.0313253 C143.500657,21.0313253 151.296283,23.8720724 157.536007,28.6552996 C163.92227,33.5508601 168.679851,40.4800105 170.84875,48.4806234 C171.010385,49.0768605 171.156606,49.675223 171.288056,50.2742878 C171.848894,50.0175073 172.414743,49.77556 172.985022,49.5484339 C177.212827,47.8646173 181.823819,46.939759 186.649927,46.939759 C199.356226,46.939759 210.569677,53.3542032 217.257064,63.1319518 L222.407678,63.1325301 C231.686062,63.1325301 240.086062,66.8933382 246.166466,72.9737423 C252.24687,79.0541463 256.007678,87.4541463 256.007678,96.7325301 L256.007678,97.5807229 C256.007678,106.859107 252.24687,115.259107 246.166466,121.339511 C240.086062,127.419915 231.686062,131.180723 222.407678,131.180723 L89.6104833,131.180723 C80.3320995,131.180723 71.9320995,127.419915 65.8516955,121.339511 C59.7712914,115.259107 56.0104833,106.859107 56.0104833,97.5807229 L56.0104833,96.7325301 C56.0104833,87.4541463 59.7712914,79.0541463 65.8516955,72.9737423 C71.9320995,66.8933382 80.3320995,63.1325301 89.6102884,63.1325301 L98.2499751,63.1335826 C98.045477,61.5494192 97.9400632,59.9340613 97.9400632,58.2939759 C97.9400632,48.0034291 102.093634,38.6867953 108.809948,31.9429899 C115.523902,25.2015548 124.798986,21.0313253 135.044291,21.0313253 Z"></path>
            <path transform="translate(112.8016, 241.1483) rotate(-30) translate(-112.8016, -241.1483)" fill="#314FE5" id="矩形" d="M112.767387,215.26645 L112.881938,215.266247 C116.416555,215.259989 119.287002,218.120288 119.29326,221.654905 C119.293274,221.662452 119.293274,221.669999 119.29326,221.677545 L119.224412,260.641545 C119.218182,264.167324 116.361532,267.023984 112.835754,267.030227 L112.721203,267.030429 C109.186586,267.036688 106.316139,264.176388 106.309881,260.641771 C106.309868,260.634224 106.309868,260.626678 106.309881,260.619131 L106.378729,221.655131 C106.384959,218.129353 109.241609,215.272692 112.767387,215.26645 Z"></path>
            <path transform="translate(29.7525, 287.6911) rotate(-60) translate(-29.7525, -287.6911)" fill="#314FE5" id="矩形备份" d="M29.7051437,261.862076 L29.8460986,261.861827 C33.3807154,261.855581 36.2511516,264.715891 36.2573972,268.250508 C36.2574105,268.258055 36.2574105,268.265602 36.2573971,268.273149 L36.1885951,307.131533 C36.1823524,310.657311 33.3256923,313.513961 29.7999137,313.520191 L29.6589589,313.52044 C26.124342,313.526686 23.2539058,310.666376 23.2476603,307.131759 C23.2476469,307.124212 23.247647,307.116665 23.2476603,307.109119 L23.3164623,268.250734 C23.322705,264.724956 26.1793652,261.868306 29.7051437,261.862076 Z"></path>
            <path transform="translate(203.5914, 217.5435) scale(-1, 1) rotate(-15) translate(-203.5914, -217.5435)" fill="#314FE5" id="矩形备份-2" d="M203.552314,191.642164 L203.65724,191.642056 C207.191861,191.63844 210.060168,194.500885 210.063784,198.035506 C210.063789,198.039863 210.063789,198.04422 210.063784,198.048577 L210.024025,237.051275 C210.020427,240.580792 207.160092,243.441136 203.630575,243.444747 L203.525649,243.444855 C199.991028,243.44847 197.122721,240.586026 197.119105,237.051405 C197.1191,237.047048 197.1191,237.042691 197.119105,237.038334 L197.158864,198.035636 C197.162462,194.506119 200.022797,191.645774 203.552314,191.642164 Z"></path>
            <g transform="translate(170.5232, 0)" id="编组-2">
                <ellipse ry="142.496386" rx="141.915501" cy="142.496386" cx="141.915501" fill="#3251E6" id="椭圆形"></ellipse>
                <rect height="25.9084337" width="167.718319" y="129.542169" x="58.0563413" fill="#FFFFFF" id="矩形"></rect>
            </g>
            <g transform="translate(0, 259.0843)" id="编组-3">
                <path transform="translate(180.0884, 163.3622) rotate(-45) translate(-180.0884, -163.3622)" fill="#D8D8D8" stroke-width="3.2" stroke="#979797" id="矩形" d="M112.208107,92.1403932 L211.963828,136.126348 L248.122159,234.749145 L152.747774,195.441769 L112.208107,92.1403932 Z"></path>
                <polygon points="35.0583696 74.486747 183.424575 152.212048 183.424575 278.515663 35.0583696 200.790361" fill="#D0D2D4" id="矩形"></polygon>
                <polygon points="35.0583696 74.486747 183.424575 -7.36755235e-13 183.424575 126.303614 35.0583696 200.790361" fill="#D0D2D4" id="矩形"></polygon>
                <polygon points="183.424575 80.9638554 325.340076 -1.47272395e-12 325.340076 126.303614 183.424575 207.26747" transform="translate(254.3823, 103.6337) scale(-1, 1) translate(-254.3823, -103.6337)" fill="#E6E6E6" id="矩形"></polygon>
                <polygon points="183.424575 80.9638554 325.340076 152.212048 325.340076 278.515663 183.424575 207.26747" transform="translate(254.3823, 179.7398) scale(-1, 1) translate(-254.3823, -179.7398)" fill="#C7C8CA" id="矩形"></polygon>
                <path fill="#DBDBDB" id="路径-26" d="M183.424575,152.212048 L223.650442,207.26747 L370.495008,129.535657 C340.39172,97.154456 325.340076,80.9638554 325.340076,80.9638554 C325.340076,80.9638554 278.034909,104.713253 183.424575,152.212048 Z"></path>
                <polygon points="35.0583696 74.486747 0 153.764066 147.9457 228.05555 183.424575 152.212048" fill="#E9E9E7" id="路径-25"></polygon>
            </g>
            <g transform="translate(248.1126, 259.817)" id="编组">
                <path fill="#000000" id="路径-18" d="M122.520685,137.185749 L190.060249,149.588035 C194.8872,159.689601 197.909309,172.262654 199.126574,187.307195 C200.343839,202.351735 200.343839,227.129818 199.126574,261.641443 L155.104339,261.641443 L155.104339,209.920189 L148.656482,261.641443 L110.1222,261.641443 C112.521334,226.906707 114.594275,200.772426 116.341024,183.238599 C118.087774,165.704772 120.14766,150.353822 122.520685,137.185749 Z"></path>
                <path fill="#FFFFFF" stroke-width="3.2" stroke="#000000" id="路径-21" d="M214.774363,120.512742 C214.774363,120.512742 221.602146,127.258408 216.881881,127.258408 C213.735037,127.258408 199.799899,126.096642 175.076465,123.773111 L162.092145,146.190703 C209.038041,153.582893 237.070758,155.057056 246.190296,150.613192 C255.309834,146.169328 251.692291,130.565258 235.337665,103.800981 C221.628797,114.942155 214.774363,120.512742 214.774363,120.512742 Z"></path>
                <rect height="16.2313253" width="6.47605688" y="36.4914196" x="162.68661" fill="#FFFFFF" stroke-width="3.2" stroke="#000000" id="矩形"></rect>
                <path fill="#FFFFFF" stroke-width="3.2" stroke="#000000" id="路径-19" d="M124.17267,137.185749 C124.17267,137.185749 145.73924,141.388111 188.872379,149.792835 C194.920478,118.692083 198.64286,102.583769 200.039522,101.467891 C201.37763,100.398795 205.240189,106.725476 211.627198,120.447934 L211.627492,120.447796 C212.00212,121.248109 212.954598,121.593195 213.754911,121.218567 C213.868972,121.165175 213.97633,121.098502 214.074756,121.019935 L237.437844,102.347613 C238.067107,101.845091 238.224826,100.953197 237.806064,100.265346 C220.513129,71.9646537 197.34594,55.2595012 168.304279,50.1500222 C139.139338,45.0188539 110.542357,56.8057991 82.5133366,85.5108577 L82.514537,85.5120232 C82.0239894,86.017259 81.9214439,86.7838245 82.2619463,87.400232 L100.354375,120.121312 C100.781451,120.89491 101.754789,121.175822 102.528387,120.748747 C102.727255,120.638959 102.900466,120.488083 103.036498,120.306155 C117.48918,100.944804 125.374549,91.2642314 126.692329,91.2642314 C128.735464,91.2642314 124.17267,137.185749 124.17267,137.185749 Z"></path>
                <path fill="#FFFFFF" stroke-width="3.2" stroke="#000000" id="路径-20" d="M83.2906944,89.6097233 C79.7024227,89.3804489 76.285139,88.0920377 73.0388434,85.7444899 C53.7337031,71.784042 36.8492687,55.9185114 34.2958781,53.8069371 C29.4997083,49.8406544 32.6907066,32.9555713 28.2524158,32.9555713 C23.814125,32.9555713 25.114373,42.2945338 23.1194401,42.2945338 C21.1245071,42.2945338 16.2367085,27.9861169 11.6335013,29.6764359 C9.42763861,30.4864388 2.51232438,33.2343973 0.519077479,43.1171695 C-1.47416942,52.9999417 2.43394104,53.9731588 9.48391133,62.5174281 C16.5338816,71.0616974 37.4929049,90.8964827 52.9330123,102.942881 C68.3731198,114.989279 78.3471471,121.471763 83.2906944,123.073762 C86.5863926,124.141761 91.9239254,122.649559 99.3032926,118.597157 L83.2906944,89.6097233 Z"></path>
                <ellipse ry="17.8313253" rx="17.7521138" cy="21.9372027" cx="170.762666" fill="#FFFFFF" stroke-width="3.2" stroke="#000000" id="椭圆形"></ellipse>
                <path fill="#000000" id="路径-22" d="M152.958366,16.7636723 C159.272133,13.8428245 163.772023,13.0905233 166.458035,14.5067686 C168.483376,15.5746641 168.905771,19.3096231 170.921224,22.8875044 C172.915118,26.4271135 174.977459,27.4902348 176.937081,32.0405739 C178.896703,36.5909131 175.160497,46.8647947 189.736138,56.6456225 C204.311779,66.4264502 235.199708,65.2901844 236.820827,60.475068 C238.441946,55.6599516 218.276416,44.5634387 211.58336,37.5320001 C193.994617,19.0540189 190.52345,8.74746169 184.549545,4.2882583 C178.575639,-0.170945094 170.667861,-2.07088448 161.904425,3.14063558 C156.062134,6.61498229 153.080115,11.1559945 152.958366,16.7636723 Z"></path>
                <path stroke-width="3.2" stroke="#000000" id="路径-24" d="M151.96252,49.0822433 L165.924638,71.8449449 L177.437308,52.2008563 C172.846414,50.9466316 168.44918,50.0626559 164.245607,49.5489291 C160.042033,49.0352024 155.947671,48.8796405 151.96252,49.0822433 Z"></path>
            </g>
            <polyline points="401.070992 281.272832 405.634066 284.175363 408.224004 281.754217" stroke-width="3.2" stroke="#000000" id="路径-23"></polyline>
            <path stroke-dasharray="9.600000000000001" stroke-linecap="round" stroke-width="3.2" stroke="#314FE5" id="路径-27" d="M200.873525,383.225833 C200.873525,383.225833 193.709628,383.615699 173.748518,361.592846 C165.337365,352.312922 159.7302,339.967921 162.533782,325.819122 C165.337365,311.670324 198.223425,301.731072 207.362016,331.661959 C216.500607,361.592846 175.971669,372.582535 148.201914,350.594279 C120.43216,328.606023 107.190699,314.483097 81.1055525,287.691134 C68.7491558,274.999921 49.7804722,253.461715 24.1995014,223.076516"></path>
        </g>
    </g>
</svg>