<svg xmlns:xlink="http://www.w3.org/1999/xlink" xmlns="http://www.w3.org/2000/svg" version="1.1" viewBox="0 0 1024 1024" height="1024px" width="1024px">
    <title>内容加载失败</title>
    <defs>
        <path id="path-1" d="M334.685808,0 L334.685808,434.751592 L169.772,434.751 L186.314154,405.909933 L150.673184,371.279451 L162.36961,312.472709 L122.427294,371.279451 L153.625393,405.909933 L124.171,434.751 L0,434.751592 L0,0 L334.685808,0 Z"></path>
    </defs>
    <g fill-rule="evenodd" fill="none" stroke-width="1" stroke="none" id="内容加载失败">
        <g transform="translate(224, 211.2)" id="编组">
            <path stroke-width="3.2" stroke="#000000" id="路径-17" d="M551.618826,241.528662 C550.713037,331.74745 538.845317,390.231426 516.015668,416.98059 C493.186019,443.729754 461.19412,443.729754 420.039971,416.98059"></path>
            <g transform="translate(119.0709, 0)" id="矩形-+-矩形备份-+-矩形备份-2-+-矩形备份-3蒙版">
                <mask fill="white" id="mask-2">
                    <use xlink:href="#path-1"></use>
                </mask>
                <use xlink:href="#path-1" fill="#E9E9E7" id="蒙版"></use>
                <rect height="32.2038217" width="334.685808" y="0" x="0" mask="url(#mask-2)" fill="#D0D2D2" id="矩形"></rect>
                <polygon points="51.4869492 109.513841 283.203358 109.473352 283.198859 135.235204 51.4824504 135.275693" transform="translate(167.3429, 122.3745) rotate(-15) translate(-167.3429, -122.3745)" mask="url(#mask-2)" fill="#D0D2D2" id="矩形备份"></polygon>
                <rect height="25.7630573" width="231.70556" y="215.765605" x="51.4901243" mask="url(#mask-2)" fill="#D0D2D2" id="矩形备份-2"></rect>
                <rect height="25.7630573" width="170.561037" y="289.834395" x="112.634647" mask="url(#mask-2)" fill="#D0D2D2" id="矩形备份-3"></rect>
            </g>
            <path fill="#FFFFFF" stroke-width="3.2" stroke="#000000" id="椭圆形" d="M484.328982,66.0076433 C499.417088,66.0076433 513.06368,73.0224426 522.946856,84.3253957 C532.902609,95.7113517 539.046306,111.444551 539.046306,128.815287 C539.046306,147.014015 530.264432,166.358808 515.97357,180.693403 C502.921983,193.784931 485.249741,202.710211 465.381707,202.710211 C447.701785,202.710211 436.3749,195.032275 429.539054,183.731127 C420.379628,168.588592 419.163771,147.137923 421.305248,129.002919 C423.223133,112.761387 431.722016,96.7035352 443.610217,84.8530613 C454.980922,73.5184425 469.473253,66.0076433 484.328982,66.0076433 Z"></path>
            <path fill="#000000" id="路径-11" d="M448.010256,78.2614965 C460.87959,79.605068 483.471202,81.2220968 496.102615,87.6544538 C508.734027,94.0868108 519.658983,103.855646 524.921092,129.613126 C530.183202,155.370606 519.949934,186.627205 519.949934,186.627205 C519.949934,186.627205 576,161.175011 576,131.992905 C576,112.538169 565.149549,99.9028036 543.448647,94.0868108 C543.448647,72.2416782 535.615742,54.6584668 519.949934,41.3371768 C496.451221,21.3552417 458.175886,30.7620763 450.841863,35.7060194 C443.507839,40.6499626 431.953892,47.5154285 429.90913,59.8397404 C427.864369,72.1640522 435.140922,76.9179249 448.010256,78.2614965 Z"></path>
            <polyline points="453.8291 117.030677 437.247571 134.358927 445.538335 144.713898" stroke-width="3.2" stroke="#000000" id="路径-12"></polyline>
            <path fill="#FFFFFF" stroke-width="3.2" stroke="#000000" id="路径-13" d="M523.203938,172.77507 C499.320852,198.633514 463.729206,209.145228 416.428998,204.310211 C369.12879,199.475194 346.117466,170.382016 347.395025,117.030677 L283.471582,111.463162 C280.818923,158.420334 283.997629,203.910532 293.007701,247.933756 C306.522809,313.968592 361.917857,363.925612 401.652509,372.51682 C491.195386,391.877287 533.355807,322.359644 540.646306,306.557479 C547.936804,290.755313 555.175212,250.310665 549.694754,222.129573 C546.041116,203.342179 537.210844,186.890678 523.203938,172.77507 Z"></path>
            <path fill="#FFFFFF" stroke-width="3.2" stroke="#000000" id="路径-14" d="M347.395025,117.030677 C359.224743,105.984817 363.809134,98.3932191 361.148197,94.2558829 C358.487261,90.1185467 353.90287,89.9520355 347.395025,93.7563494 C348.811373,86.6918456 347.459864,80.5936626 343.340498,75.4618007 C337.161448,67.7640077 308.496919,69.847977 302.684629,71.0184892 C296.872339,72.1890015 283.471582,75.4618007 282.566571,84.1147185 C281.96323,89.8833305 282.2649,98.9994781 283.471582,111.463162 L347.395025,117.030677 Z"></path>
            <line stroke-width="3.2" stroke="#000000" id="路径-15" y2="93.4988734" x2="297.809061" y1="72.2546491" x1="297.809061"></line>
            <line stroke-width="3.2" stroke="#000000" id="路径-15备份" y2="95.0012739" x2="313.767945" y1="69.034267" x1="313.899725"></line>
            <line stroke-width="3.2" stroke="#000000" id="路径-15备份-2" y2="95.0012739" x2="329.858609" y1="69.034267" x1="329.990389"></line>
            <path fill="#2F4FE9" id="形状结合" d="M259.80625,58.0470004 L273.460426,71.7107196 C274.088934,72.3396669 274.088934,73.3589262 273.460426,73.9878736 C272.832485,74.6162531 271.814037,74.616609 271.185657,73.9886684 L257.531481,60.3249492 C256.902973,59.6960018 256.902973,58.6767425 257.531481,58.0477952 C258.159422,57.4194156 259.177871,57.4190598 259.80625,58.0470004 Z M246.933719,58.0470004 L260.587895,71.7107196 C261.216403,72.3396669 261.216403,73.3589262 260.587895,73.9878736 C259.959954,74.6162531 258.941506,74.616609 258.313126,73.9886684 L244.65895,60.3249492 C244.030442,59.6960018 244.030442,58.6767425 244.65895,58.0477952 C245.286891,57.4194156 246.30534,57.4190598 246.933719,58.0470004 Z"></path>
            <ellipse ry="8.04076433" rx="8.03626554" cy="254.410191" cx="225.269294" fill="#FFFFFF" stroke-width="3.2" stroke="#2F4FE9" id="椭圆形"></ellipse>
            <ellipse ry="125.594904" rx="125.507178" cy="380.005096" cx="125.507178" fill="#3251E6" id="椭圆形"></ellipse>
            <path fill="#FFFFFF" id="形状结合" d="M125.507178,299.495541 C135.65161,299.495541 143.875296,307.719228 143.875296,317.86366 C143.875296,318.169343 143.867666,318.474978 143.852411,318.780281 L139.022085,415.454335 C138.66224,422.656262 132.718089,428.310828 125.507178,428.310828 C118.296267,428.310828 112.352116,422.656262 111.992271,415.454335 L107.161945,318.780281 C106.655709,308.648488 114.458765,300.024662 124.590557,299.518427 C124.895859,299.503172 125.201495,299.495541 125.507178,299.495541 Z M125.507178,460.51465 C132.616481,460.51465 138.379709,454.747393 138.379709,447.633121 C138.379709,440.518849 132.616481,434.751592 125.507178,434.751592 C118.397875,434.751592 112.634647,440.518849 112.634647,447.633121 C112.634647,454.747393 118.397875,460.51465 125.507178,460.51465 Z"></path>
            <path fill="#2F4FE9" id="形状结合" d="M69.1898546,222.206369 C70.0785174,222.206369 70.798921,222.926773 70.798921,223.815436 L70.7985227,228.646369 L75.6249954,228.647134 C76.5142794,228.647134 77.2351865,229.368041 77.2351865,230.257325 C77.2351865,231.146609 76.5142794,231.867516 75.6249954,231.867516 L70.7985227,231.867369 L70.798921,236.699214 C70.798921,237.587877 70.0785174,238.30828 69.1898546,238.30828 C68.3011918,238.30828 67.5807882,237.587877 67.5807882,236.699214 L67.5805227,231.867369 L62.7547137,231.867516 C61.8654298,231.867516 61.1445227,231.146609 61.1445227,230.257325 C61.1445227,229.368041 61.8654298,228.647134 62.7547137,228.647134 L67.5805227,228.646369 L67.5807882,223.815436 C67.5807882,222.926773 68.3011918,222.206369 69.1898546,222.206369 Z"></path>
        </g>
    </g>
</svg>