<svg xmlns:xlink="http://www.w3.org/1999/xlink" xmlns="http://www.w3.org/2000/svg" version="1.1" viewBox="0 0 1024 1024" height="1024px" width="1024px">
    <title>网络断开</title>
    <defs>
        <rect height="348.8" width="547.2" y="0" x="0" id="path-1"></rect>
    </defs>
    <g fill-rule="evenodd" fill="none" stroke-width="1" stroke="none" id="网络断开">
        <g transform="translate(246.4, 140.8)" id="编组-2">
            <g transform="translate(0, 99.2)" id="形状结合">
                <mask fill="white" id="mask-2">
                    <use xlink:href="#path-1"></use>
                </mask>
                <use xlink:href="#path-1" fill="#EEEEEE" id="蒙版"></use>
                <path mask="url(#mask-2)" fill="#D0D2D4" d="M547.2,0 L547.2,32 L0,32 L0,0 L547.2,0 Z M35.2,6.4 C29.8980664,6.4 25.6,10.6980664 25.6,16 C25.6,21.3019336 29.8980664,25.6 35.2,25.6 C40.5019336,25.6 44.8,21.3019336 44.8,16 C44.8,10.6980664 40.5019336,6.4 35.2,6.4 Z M67.2,6.4 C61.8980664,6.4 57.6,10.6980664 57.6,16 C57.6,21.3019336 61.8980664,25.6 67.2,25.6 C72.5019336,25.6 76.8,21.3019336 76.8,16 C76.8,10.6980664 72.5019336,6.4 67.2,6.4 Z M99.2,6.4 C93.8980664,6.4 89.6,10.6980664 89.6,16 C89.6,21.3019336 93.8980664,25.6 99.2,25.6 C104.501934,25.6 108.8,21.3019336 108.8,16 C108.8,10.6980664 104.501934,6.4 99.2,6.4 Z"></path>
            </g>
            <path fill="#FFFFFF" stroke-width="3.2" stroke="#000000" id="矩形" d="M406.4,302.4 C431.584185,302.4 454.384185,312.607908 470.888138,329.111862 C487.392092,345.615815 497.6,368.415815 497.6,393.6 L497.6,446.4 L88,446.4 L88,393.6 C88,368.415815 98.2079077,345.615815 114.711862,329.111862 C131.215815,312.607908 154.015815,302.4 179.2,302.4 Z"></path>
            <path fill="#000000" id="路径-72" d="M249.373413,310.701116 C201.898368,322.642816 165.359713,326.819892 139.75745,323.232344 C151.245487,304.660308 158.342431,289.930629 161.048282,279.043308 C170.793743,239.831247 160.813605,225.238497 180.169758,188.8 C199.525912,152.361503 253.395339,147.452994 273.6,152.361503 C324.8,164.8 339.75047,220.848573 344.406401,229.452595 C347.757526,235.645376 356.239381,245.565167 369.851967,259.211969 C337.007977,281.596366 296.848459,298.759415 249.373413,310.701116 Z"></path>
            <path fill="#FFFFFF" stroke-width="3.2" stroke="#000000" id="路径-73" d="M268.163601,188.8 C268.163601,188.8 241.326887,271.138222 241.326887,271.138222 C241.326887,271.138222 216.77216,249.6 208.060567,273.6 C199.348975,297.6 231.024856,297.6 231.024856,297.6 C231.024856,297.6 258.428514,325.791463 295.23046,315.273218 C308.495605,311.481949 325.580178,290.408524 329.6,277.113708 C333.619822,263.818892 333.619822,244.489029 320.430387,221.865358 C307.240952,199.241687 268.163601,188.8 268.163601,188.8 Z"></path>
            <rect rx="3.2" height="6.4" width="16" y="240" x="265.6" transform="translate(273.6, 243.2) rotate(-300) translate(-273.6, -243.2)" fill="#000000" id="矩形"></rect>
            <rect rx="3.2" height="6.4" width="12.8" y="229.014359" x="308" transform="translate(314.4, 232.2144) rotate(-300) translate(-314.4, -232.2144)" fill="#000000" id="矩形备份-6"></rect>
            <polyline points="220.696049 300.8 284.8 371.2 341.793413 301.920961" stroke-width="3.2" stroke="#000000" id="路径-71"></polyline>
            <circle r="6.4" cy="210.607321" cx="513.567102" fill="#FFFFFF" stroke-width="3.2" stroke="#2B4BE4" id="椭圆形"></circle>
            <circle r="6.4" cy="175.407321" cx="126.367102" fill="#FFFFFF" stroke-width="3.2" stroke="#2B4BE4" id="椭圆形备份-3"></circle>
            <rect rx="9.6" height="19.2" width="57.6" y="359.876542" x="319.491747" transform="translate(348.2917, 369.4765) rotate(-30) translate(-348.2917, -369.4765)" fill="#FFFFFF" stroke-width="3.2" stroke="#000000" id="矩形"></rect>
            <circle r="22.4" cy="166.4" cx="496" fill="#3251E6" id="椭圆形"></circle>
            <path fill="#3251E6" id="形状结合" d="M496,92.8 C536.648158,92.8 569.6,125.751842 569.6,166.4 C569.6,172.466451 568.866048,178.361479 567.482099,184.00113 L540.670141,184.001455 C542.819347,178.551459 544,172.613608 544,166.4 C544,139.890332 522.509668,118.4 496,118.4 C491.566974,118.4 487.274307,119.000945 483.199019,120.125816 L483.198658,93.9093589 C487.356098,93.1802207 491.633646,92.8 496,92.8 Z M496,48 C561.390514,48 614.4,101.009486 614.4,166.4 C614.4,172.381094 613.956508,178.258605 613.100616,184.001443 L583.871793,184.001152 C585.005438,178.309954 585.6,172.42441 585.6,166.4 C585.6,116.915286 545.484714,76.8 496,76.8 C491.653725,76.8 487.379729,77.1094583 483.198841,77.7075431 L483.198349,48.6840334 C487.403557,48.2319305 491.674694,48 496,48 Z M496,0 C587.900182,0 662.4,74.4998176 662.4,166.4 C662.4,172.345414 662.088192,178.218002 661.480038,184.002302 L630.638782,184.001064 C631.535846,177.729948 632,171.319178 632,164.8 C632,90.5729296 571.82707,30.4 497.6,30.4 C492.734613,30.4 487.929608,30.6585302 483.197975,31.1626027 L483.197805,0.485154307 C487.423054,0.163678137 491.692413,0 496,0 Z"></path>
            <path fill="#FFFFFF" stroke-width="3.2" stroke="#000000" id="矩形" d="M74.8336965,317.166304 C79.0749113,317.166304 83.3029855,317.637732 87.4400404,318.571906 L312,369.278993 L312,446.4 L76.8,446.4 C60.4523714,446.4 45.6523714,439.773814 34.9392786,429.060721 C24.2261857,418.347629 17.6,403.547629 17.6,387.2 L17.6,374.4 C17.6,358.595351 24.0060997,344.286927 34.3633616,333.929665 C44.7206235,323.572403 59.0290476,317.166304 74.8336965,317.166304 Z"></path>
            <rect height="86.4" width="3.2" y="361.6" x="281.6" fill="#000000" id="矩形"></rect>
            <path stroke-width="3.2" stroke="#000000" id="路径-74" d="M296.634337,232.214359 C310.222018,246.212703 317.015859,253.211875 317.015859,253.211875 C317.015859,253.211875 308.502809,261.177408 308.502809,261.177408"></path>
            <circle r="8" cy="278.4" cx="291.2" stroke-width="3.2" stroke="#000000" id="椭圆形"></circle>
            <path stroke-width="3.2" stroke="#3450E6" id="路径-75" d="M476.956055,175.397154 C469.662021,181.135245 464.207123,189.066641 460.591363,199.191344 C455.167723,214.378397 466.015003,247.761922 448,278.4 C436.850995,297.361088 395.777088,301.11053 380.779618,317.623749 C352.248077,349.038887 350.046526,387.2 350.046526,387.2"></path>
            <g transform="translate(310.4, 368)" id="编组">
                <path fill="#FFFFFF" stroke-width="3.2" stroke="#000000" id="形状结合" d="M91.2,1.6 C93.8509668,1.6 96.2509668,2.6745166 97.9882251,4.4117749 C99.7254834,6.1490332 100.8,8.5490332 100.8,11.2 C100.8,13.8868196 99.6962011,16.3158191 97.9173832,18.0583405 L95.1142935,20.8042338 L100.8,20.8 C103.450967,20.8 105.850967,21.8745166 107.588225,23.6117749 C109.325483,25.3490332 110.4,27.7490332 110.4,30.4 C110.4,32.8399913 109.489843,35.067471 107.990188,36.7611061 C106.473279,38.4742272 104.35379,39.6422044 101.963082,39.9304196 L98.6099911,40.3346562 L101.046683,42.6732797 C102.866911,44.4202493 104,46.8777892 104,49.6 C104,53.0928379 102.134491,56.1496577 99.346153,57.8296906 C97.9882338,58.6478658 96.443912,59.1199505 94.8608944,59.2004756 C96.444423,59.2808642 97.9885148,59.752736 99.3462473,60.5706713 C102.134551,62.2504221 104,65.3072183 104,68.8 C104,71.4509668 102.925483,73.8509668 101.188225,75.5882251 C99.4509668,77.3254834 97.0509668,78.4 94.4,78.4 L1.6,78.4 L1.6,1.6 Z"></path>
                <rect height="3.2" width="73.6" y="19.2" x="25.6" fill="#000000" id="矩形"></rect>
                <rect height="3.2" width="76.8" y="38.4" x="25.6" fill="#000000" id="矩形备份-4"></rect>
                <rect height="3.2" width="73.6" y="57.6" x="25.6" fill="#000000" id="矩形备份-5"></rect>
            </g>
        </g>
    </g>
</svg>